<mxfile host="65bd71144e">
    <diagram id="LIIbU0o5a2oAnxltYYHi" name="Page-1">
        <mxGraphModel dx="797" dy="258" grid="1" gridSize="10" guides="1" tooltips="1" connect="1" arrows="1" fold="1" page="1" pageScale="1" pageWidth="850" pageHeight="1100" math="0" shadow="0">
            <root>
                <mxCell id="0"/>
                <mxCell id="1" parent="0"/>
                <mxCell id="2" value="" style="shape=image;verticalLabelPosition=bottom;labelBackgroundColor=default;verticalAlign=top;aspect=fixed;imageAspect=0;image=data:image/jpeg,/9j/4AAQSkZJRgABAQAAAQABAAD/2wCEAAYGBgYHBgcICAcKCwoLCg8ODAwODxYQERAREBYiFRkVFRkVIh4kHhweJB42KiYmKjY+NDI0PkxERExfWl98fKcBBgYGBgcGBwgIBwoLCgsKDw4MDA4PFhAREBEQFiIVGRUVGRUiHiQeHB4kHjYqJiYqNj40MjQ+TERETF9aX3x8p//CABEIBGMFNQMBIgACEQEDEQH/xAAuAAADAQEBAQAAAAAAAAAAAAAAAQIDBAUGAQEBAQAAAAAAAAAAAAAAAAAAAQL/2gAMAwEAAhADEAAAAvP0yvOtrys1vKzWs7i6iipA1BhFwaABF5mjAQAqmgBCqLUASbzsokVxUJZIVKk3M2USE6Z2NATU2IbJnSBlBM6QDYAMi4sBgs9ILBim5CopWkyLi0YARUliYxMzuKLSQCRbhlOAdZUtkBUkmpDGISanQQ2ROk0ynLDpJnaupKImdIVliSWENWslCQUhlIU3JTSWzMSqyosgCs7KQlVxQ4qSkxI0ihgic5irloSEAB8/cWl3FLpplZrWdmlRUNwzZ5suBGpAXBJsZspJDaoSpE3GhJQRU6CGCmpLAFFwaNA0BN56ACJ0y0GIHFQaCAlobQUSCvOiyEVDk1cBSSCptZKCKnRJLCJ1zApklBFzQDBTcFAhgybi1AQRUliYAEaZ2NoHFQmgACCdMtKYnBLg1EDECvOxiATlbaEcVBYmoNJNRYALFTaSWjO0ypUrqRSKosaA5zXO2U0kpoQB4NTSVUWt3nZpedxdTQVOhTTBVJYARUGpIOXJbljQE3FDAJvOxghw5NCUVJJqQFqWF5UWpBXFgmCm5KGEq5GOiRhFxoIaDPTM1EwTkKihuaM9M7GEjzuC6TAAzuLGAEOSxIpxQXmyiRXDhNXDGSC0ysogLgk1JY0BFzQNgp0gbGIYRc0AxVNSWSypElVlS2QBeVFktJuKGARcWCaVAyNJEsQLPXKoTkScgAeDUtKqaWrijS87NLzsWuOsaEMtSGhCLgRo5CocmhLGmEUqAYRSoRSJmgY2KbgsaAYRc2IAjTOxiYpqSwAi4LaBoCLzsoQEVBqQFEMKiiyUF5UVIDmkNsEqDOlZKuRLSQGhlIm80agBmQbiBmNheWgzHQvHTjOu+PrGARcWMAeV8R3vl3WpWB0XlqAIcVBo5oEQVUWABFxYlQZtsQxJuAskVuaCahNBA87i2IqRS0iAPCc1Y6mpbqLLuLLqaJ1z2GxiaqBMCbgsAM7zNGmCaFU0MAi4sYIkYNphFSWSFkA6zoolCvOi1IVLRQwmNcynnsSUGdLQkoJm4LMOgTOU6az0A52aVDFfF0mudcR3uQYgm87Fw93EdksMs+uSqQc2fVJWkswx7Mi2w5q2RLKOfWwrLSQ0lrTgRuGW4C8qRTlq89BJ0hq3IVDRo82VjoJltFqxMm4oYgRLLAIuWMAhlEjlLGgi4tzm4JTSIQeFUWjqaKuLW7iy3NBthsW4YXnRTgi4JNSQqHJoSxy0FJiKCKVCVohlCKCZvmOkpAYbBU0AMzuaFnfnnorl6TTl34T0M5s4+palAEXFgAHH1QcHdn0GfH6MmXRlpWOHZMMQZ7IFydkVpedRSQKs7AGKbQnQSWqzpXElhE6QMpkq0Z3NgwCamnUuG0CCTQAEwnTPQAayAURYRcFgAARcaEqggtCVh5nX0QVydUIwkvTn3FU0EXBbQEXNuU1KSmhAHgXFJTVLVxZd52XUsNcthscTpGgkuI6DLoNc1kVokac2aO0xDbTDcE0Tc0AIVxYxBj5/q8h0th5/XaLqGUSC0yorOgluTRIHLksYIbM6VkqwidZAsILRnc6ElSS87LVBMaSVSYJoipoBg4uCk0NgZ1NBnozDn6vPr1HnpAATUUUgGgFcWAmKaksQUkBedFksEQYdfL0ry9XN0lOWMAi5oYSOc2agDioNDLZJm5BWGdFUpcmgEGWvNaEUiTQgDwLz0R1NLVTRdxZVTQbY6xbkDTKys6gzk2MntiNlD5ezMnZAXjoWhktWSUGdzoQ2yJ0kasJWkioYAEXFgMFNSWs6Ki5LAAAi4sYIIuDQTBARpnZPN1wZ68XYaEhUkl1mykgV5sslFyIpyxoQgqkURGe81NFRBYZmiE7CVZWdzpEtsmNYG21SpEVNgNkxpBN0zGtESyyCxM2wRaXnz6MTe4pHDkxcdBZz9BQBNIHNzQ0w5+jA5Ojk66JpRIw+fuKR1NLVxZdxRbQPSdRNuI0nQSpE1NgMFGkFgBFyUMENE3NiGEXFgAKbkDKjaXJVSDEE3FDJCpERlrgdiijQkGSCvOwYyZ0gZTIVozqdSJ2Rz6WCdMmdIClQhhDVDBDloYACZLAoTBMJqLBgE1JQCg0RpFgDQjTM0ABNLGkWNNBFylgKJhN52MBJGigFIuCmCE1BQw5d6QFhBUGikp1FhFo5a0ghNCAPn6mkdTS1cWXUWWCjXSLG0xaZ6AARpnRZKKkk0JCpcmhIUkBedgARSskoJnSTLLtRhekDKBDZnc2JjFNyAwJqDQAADPTPQAAi4NBgpuTPWLGAJNFMBTUhSoE0Rc0OWgTQ3IU4BoRbkKSBXLGKhTUg21SVkUWQWExpimhQSUEUtCCwhaQBTWRZGlKyW2kFRWhJFSSaEBciLFQpuShNUqlKTCLi6ADPOWKaRIB8/SaOppauLKuLLTRpZUJ0E2rEUjPSKKEhoRYATUlNMBoVKgBEXFgMCaktNBFyNgJgRc0DAJqSgAi4LaBoROmdFCRUVJoSi5AztaElyZVOoiwhWEsYlXKdHP0ZmlY6jQhuQoQAIpoGJk3lgdb50dM5B0HPRlvgzY5LOueVFzEHovlo6J5tytctAnFHTFyWJrPPvyHXcWMzhN8dMS7eB0wwbTomlEMshaImkFSSaEupuLAA83o0klVIgD59pjqaKuKLuLLTRvcVFABcWAwzqbAAQBTljlosQNANywEE3FjEDipKVMidYB0yCwwvDqJbZM3mW2yVcFMBDRN52MAIrnOiccjuSA057NMNsDWLyOhTkbrOTR8VHXx6sLbMOnm6QAIasAATk0AGhEYdGB0+fuy+d2Tdg2M5zZnKusOPTdGN1oRsmFQy4fOdUoNCBX5/fCVpmykBWOkVrgRHS5Cqihpom4oaaFU0CclJszuaoGic9ciJpEgHz7AdTRVTRdxZaA0tWBRE2WQ6DO50JKZlRQFApuCwATQVPMdSyDS+boFXH0GkTmdJx9RU4bGjljiszDq5+kGmLyvT809PlQanNRsciO/nVkdPFsVjWxty75mmbDcEctxJ3Y3Btz6STpGhm3Jj1Y7mWlBKvI5+zk7RKw5a0kt2ELSRlAikRc2IpGT0wNnlqCaIuKpicqi4SrmxMCWmNphJJVRoqAJYJSZSi+U6Vmo2WWxNTQKsDSp0ExCvENpApyyaRTGE565ETUkgHz7AdTRVRZdxRYBvcXDHJdxQwDPSLGIJuKKQBNSWACcj5ermFfN1nF2ef2C3WRJvBn24oK5tzoebKyvIW/NuWhiw6JM8uwODTrzJuwidQwqrM3YTOmRowAaIuYNSLJnSB1w9g5bMN+boKw5ug35tmVSYDRN5ZHUAE1BoANAQJnNU9JJlJpWcrvXLsnN38fTUqLiaz0NaizBuA3z0Lw2CObfM6NMtAaFECUBS5ernNioiFWZz92VBjoituTpNZfMamehrneBdxoZ6RVWATzdXKVNIkYfPCaNprVTZVxZaEdFZWaJEXSskoM6LJKDOihFBKuRlBKuQbZjpSM7VADFNwWAKbg0ACaRw9s2MASclgBFwWAABnpFj5OvhOjmyo9Hi3ot56EcXZzGXocvWPj6+Uw6M0dOnNsVWdHP0oKkC3AWSE1z7lDBTaApkFozoshaBln0wI0FyegmFVZmaBhWqM6YMsInWBlBln0hhsrJKZM6SCsIx6ZJnSjk12DMqlhWEUmlZ0hBYc3Vz1GudxpU1ViYouTKakkA+fARtNauKLuKLAN7iyppRpSYAEaZ2MAz0iwACbgsAIuCmANBGmegABFSW5Cs3JqQFqQLyoslFJI0IC5UmgmIYQ1QY9CMZ6IFHQzn00Rll0WcuuoZp4HQcXcIaC87BphNSWIGIMd5oYgcXmaCBgEXNiGlU3IygQxM7TAaGAKpoAAi4LBgmEXGgABNSUDEqRNRoCAmpoYCyxI2MhUyFrBFqiXFVoAEXBnFwIA+eARtNaqbKuKLch0XjUbSkbvKjRQDvKyiWTU2IoJVyMoJjWBlBJQZ0tCCwhWgbBTcFgxDRGkWAAk0MAJqSwAQGd56FIAm5FpzSaa5UVLDHo5egw3zyDpx6BJhNzQ2mEtFiQ3LCs6GSFRUmhIWpYrzZZAXAjQhlEgOQuQGIBzQDBTcFDYhom5sQwyaZoJFkAXmyyAdZs0ICkgsAQItNE3LHFxVgBNSZwIQg+fARipXcWXUWU1RtU3DTRq0xponTPQACLixpgpqSwAi4LaYICNM7GICWFABjt5p6Ty0AAjTOxi4jtkQ3DKiszUhlOAm4Zo4C4JFzdjOO+kIudCFoiFpILSSSNzJuyDTnNVcFNyNqiaihowOieboLcBYBN52DzyN1zs6XnJrCxOpTJupZDyou+Tc1UQbRcFsCDDpFcWA0ZK8h1GZ2HMjovjZ1mTKIzOkiwi5AsIVYG7ENw6uUFPNlZ6web1c/SIA+eACpodxZVzRVSze86jRSGzzZoQh6Y0aEId5UWQFykaOAuHJokwTCKKJLRBQIsI4fQ8816Y1JKZlS1I4u7mN2wVYbhNZGpLGlkXpnqBLJy3wNNObpBMM9IkNFidEZ5nbHPoZ3AaXgi89INsLk6+ffnOkbMLnQ59TMx6Y1HQwBEVNGLvIByZVehmtYNMtMjVwydMegw0nQi2y4aLzpEXnRpeTNHAVhrJlWoc9bBitrJy6Ayy6oFoMU3BYBxxoytM5N3x6HSs7pkuNJZXOaZkgHzwCDTWrii7ix1NmlqhqlGlJgqkVKgGGekaCGgmkUNBFwWAABN56ACE5oYIXDtidmU2bTnmbb46kY74G7TOeOjEbnQiDU5d3uc/ThsYbDL4OzMu4Zb5dwkoRDIz6UNtBFhlrNnPtoGC6ZCNkSUEMokpkTrmS40GWGVFEGgZrVGdGhmaIidIKVgikZ6RoAATUGgmABLAoAE0NzQAEMYlYQtJCdESXI2gzWkk59COe9kFDrKwiwDPOHTAPnQAaZVxRdTQ9M9DW4uGmGrmhzUjaYAidcrKICkkaEI0hI1UoskC8maGbG82aEoziNzOelmF6sytaGfL3YFPHoJNAyWsidhBaM9I0BgEXmaMDk6s9CNM9AACLzNBggCNM9BgCmpKAGARcWCYKLgz00BMZnSYwYlSJuLAAWekGgMQBnpnoAARZSpOAYSqksGIaJuLAAQIoAJqShoJqSmmEXJQnRnpJLsiAVapo472zJAPnQAaZVxRdTQ7z1KouEWiqpkLSROmQaBlasQwSYMYKLkpgCAjTPQARGmWo8tMCdNINAAGGemWg0w5t0ygYouCwQAEaRoAwWekGgmIAz0jQBoU1BoIGhC0zotQFykaEBoShXmzQhlQcx2EBZAM4tjpcBXn93AdG+HQIoIWkDbZBYZUWSUEqyoZcSUyFpIFhBaM6LILRBcjYBLk0IKtSFVlUXKY2nRNSUDjNFVQBOeuRAw+cABplNUVcUPbDoLqaigDVphNwVSYAiNctBoBCZQmKag0EAEk6ZUWpQaY2WZhpBJsQGigFplZRElvLQvHTyD14x3HOiJdMzKyI6M9iZ0kM9eY3rBG1zoSUEzpmW8dxDRN5aDx25R7CNHkGqQTXP0FPOh8PbgVry9Q0BPH28R3VNB5/dwnVrnYxA4uDQAACKllNA0BNxoAARcGgAAEXFgAEXBoJhNSNzQhhFxdTOijOi6haSFJQVFVSGLLXMzGHzYANMdxZVxQ9sNTWs6NEmaMqFNyMoJWgZUWQaBk3ZBYROsAaIgtGek6CGGemeohgouDRpiVIi8tQ5uiDg9Lh7B8BzHrPzu02SCnNEY64HRcaCjTMOfr5jQpE9HF2nDUWbZuzPSMjozjUjaNTTn6cDXm3xCbYt8cxNoUdSItUYdnJ2AALj7OQ62mZ8ndwHZplZRIVDk1ICyGDlGj5tTQgC86LIC4eJ0mVFkAXmyyAuCTUgNJQOosACLmgTCbi6SqRtOEnNWALPTMgA+aaYNMdxZVTQb4bl3FjaZq04eekFgAmidM9AAIuLGgCLg0AEmidIsaAz1y0GgCLg0BFJImoZWaRjtxdo+Xp5zsTg0JRq8qDHVF35/WbZiNJAz2lmes0ed0VuKNZMq2ZhPSHH0OzPPoDk0piWrMTRmNuzM1kiNcSOlaEGiIztg7DPg9HmDpw3AGZVzo7FmGjljJDm6uTqKcsV56A0Di4C0wAJaYwYpuCgYlQZssh0GbdVJQRcMuUDrNlS0WAKLkzAPmQBgFVNFXNBvz6m14WavNx0PFm2ZBuZhoZg9MaNFKCosBhKuRlhmtJJdUZrUMLNDM1DKd8wNAzdoztWSMMtFYp0CY0gtUCGEaRZnh1gp0gtiGgIuNDMvjO2HJoZZHVNQY9Pleiarz9DsipKy24R9nP0E3lRfB38BthHWb1NBhp5p174aGqTJ4+zM59efpNNOTpI5d8TbPo5jXTTmNmI5evh7ymBNxYUmE1BaAYBFzQwBTSG0wTCLiwAJqapphFTQDQnNkq4LAFNyZgHzAAwCqmi6mg2x3LpUFxpFUqFGkFsATRNxoCYZ6RYACmoNGmKakLmgBGeuWoACi4NAATRNxoIaIuLGAEXBYA0BGudjEDioNEAoMTTXizO1TZzTvkdeZJ1zLPM68eo5Ovh6TrnHQ14evAXV5XpDrOi+Tok85ehRyd+Nl8u7OGe9GW4CbCG7MZ6AxNpJNGROoZRvBxd1MktmVFklhC0kllElohtAUEloTGIYRplVW4BuA0IAqGWgJqbCLgsTCaRkMPlwYAFVNF1FFbYbl3FD0y0jSs2XBJsQFEIrTCjUzB3jRoZhcOTUzDSEjUgLIAvKykmKNJGWGZoiKdGZojKnZm7CJ1gDQMywytaEOwhaQUqCObsDk6p0JGCmpHQDBGdphjoxMRoMPOrt4Tsrk6ylx9Y00TcWAMUaQWMENEaZ2NMFNyK4sAFUXCWwAAm4sYATUhUWAmJVJTAE0KosAZnc0MTEnNWASrkFZGbdELSCnNUJozAPl2ANMdTRVTQ9I2CnROk7QqbFOkFNglUhSoQwzubEMFNwWAKbzNGmCpGemeoJoIuDQASpCqaBMIqaBpjz0gsAADPSLAaCLg0BDEE6Z6EhBSlGwmKNJJ0izhOnzTfs83U765Ow86ezM3z1Z53U9S00KosHLHFQakhSkFedFkBSSHeFmhmyocGxAWQDqA0JRZIF50U4CpJNSAtSBeVlEgNBTQOLgsCiaiLAEANMJqaoTDlKD5sAGmOpoqporbHYu4qDbHYppji4NRMU3mVSYJom89AACKksAM7g1ICzMDXns0Mw0hSbmTNFCLrJmigHeVFkBpBJqZsokFU0CpkLSBlhBYZUUTOoZztAGgQWjKmyM96Mp3gRoGL1DItE07MzRGbbE1oRDzNnnsIYZ3GNb1jUapo5b05Tsc2KNMzQGIAkGUMExkVNiYCmpLAAAi4sEwmdJAoIWkidMidYBtDSRopB1F0AEDD5UAGA6VDpMei0CnZnotYTtkLWANAzWsAaBmaBjTshaBmtJBahnOsDbZI5J0zsoAM9MzQGCaBrnOpOBXnZQmEXBQ5KQEXnoNphnpmaNAAGdzQxMJqS2mIAzqbBgZVhJ2HMHSc7NZIM+viDuWWpPN0cp12g5ntBeiCHzwdXN0obnQACOfo5jpuLDLWFdpoJhJUlsBoCNIoaAI0gpoGQh1jRoQFRUlgxRclkhcyjV40XLksGRcXQAIA+UaYAwuaKYGmuehdTULbHYppjmkWAGemZo0wTRFxoCaCWi0wUXBbAU2jPSbE2BnpBYMSrE0WehU2jO4obQE3BSaKJZGmdFmYaQSbEI0M2F5UU82XKk2MwsgHWVlkAs1ItaDm1uzl2bKy0RoSyebpzN3zUbTlJ1GDLxuDV4M3GxDDPk2Zq6ZGe/PWwtCHRElIZTILDNlkFQEWiTZmT0RnaYNIpKK2eRGswGjyZakKIszjeB6YUXUXQAIYfKAAxjpUMYa6Y2a3lRWuGhrWVRakNTMNIUmxAUSCuLEMJVMh2ETrA1oGZojG3ZmaozWsA6ZHN25nnejzdlQWRkyySwmdYBtklIzvPUx2w6RRpmaAyRoi8g2l850wwsJKAM9M7GhDTAqaEMVTWaWZMY7MNHZLYTgpKrm7zJ6oxW8mb3RF4ga57CpMMdsyN89AGgTk1AAJEZ6k2wlSy3AUJksRYsjRYamxnoE0hVFiQyaTFGkkLcrOwGAAB8owClQ6KGqRrasdKonbLUbGIVFACi4NAAQEaZ6AASJlACmoNRAAidMtQTQouDSkw5OvjL6fP7w5+jlMq6ZLfJodU82o6iTeedG5EF6xoYXjmd9xQ0By57htydmA9EywABEXFiaY00FTQAE8mrObTPU114ugcXkaa825xdU85fVz7l4bBnVQakovDQMOnk3NXmy0kO8qNFAUhGpCKiNBaY5HZnnZAUIzZq8NDXO0SlqEiJ6OfcpDIagnRIis+gy3ixUnSTRQAAHyzdCooKKBXJtU1FVLo1x1inIFZ0WSi4JNjMNFAO8maKAdZM1MwuEjYhFmbHpizVQFQSbVkzTC8yOrh6jTi6sjTPn3XK+hnK+mEc6hyHYzmx69DLDsDmjqzKdszNAxo0M1sjE1kU7YlGgY49XMdA7IVyTRZJYcet85WmoZmgZN2ZuwidZEyyI15jojWCimQ2GIM0GAmibz0GAOLwN8sw3oDmumRpQZXQSFkqwhXIFhC0RldMgpmWW+YnszCrsw2ENw6ESagAIPnHbJdMVOhTpI6txLt1notIRQZ3Oghgo0zNAYhompsEwzubAYKLg0AENEaZ6UAQpqS0wWWsGHZNAARecrsYs1hymoSM4+sjTPQQ5Oeqo0y0kLGZ6Z6DTRzR1cZ1ZdElsCM9cyOjk7BKkTcWMQHP0SZbzkdCx0C89AGgQhXnYs9GOLzNjKTbOaMdijI3DE3Rz6PQzNERj05nL2Z7jBkMBtAZ6cxssoOx56BnpmW+cOhZaA4YCzNJ5+g2BmWvPsUIBxdGekjcuGAeE6ZNNibAnSDVjAClrnoDRGekWMQPO4NGgaAm5oBBN56DQBncGjTBARpnpQCCamNBARcjYAIJy0RnNInTDQ6s8hczqlK2yo0hBlWFnSQGihDvGjUyDTNybGTNVmFZXgV1c2hqoCqyZoQFSI0IC82GVUyFYZmiM6qjM0DNayVUhZDGJGjhjEgvKihUCck65aFEgBJbhhhoh56hVZs0zEJXJpjeJn1RpVSyMNGzUgM50CpkK1x1pxcFJzFiDySgVDEUCz0iqKZD0CKpkGijK1ZJYROkgWyC0RTZBojK1ZJYRGsAaBkahjT0MjVGa1mpNlGa1gG2SUGbLIdBC0gptiGGekWAwnPXM0GgTDPTPQBoM9IKaYAycNwbAEwi4sAQ5cmgmA0RSoBgkwi40EMFFwW0wTCVUlDZJSI0z0GAEXArkLYCi8zQABhnpnoA0EXBTAObpzHSoAZIIoy2JGiXYZOqqFpMNDAQeeULLYIYTGsJo2xRcFUmCaM9c9AACLksAE5HUsaAjTPQAAz0zNQATRN56AAKaktoCagtpgmiLmxKgUaZl0mABnpnZQgM9MzRNACI1y1BNCVSUADTECLABNVNxYhkEaQW0DBEtMoQCYRcWMQEXBQMYIcUiwAAI0iwBim5ENFgCjTMtAMTIuLDLXlLqIOismaRKNb5dywCMLkno5eg1z05zZZ6CCTYmhVNEjDhGCGKmMUXmmpCrSFJsZhqsyHpjVaGYaTMxuZhalGjzK0Mwd5ONVmy4SNjMNFmx6YUarMNJgNjMLmUakMoQKosAYpuQLCHQZUWQWETrAFhmaoyoshahnO0CLZmaBmtJE7CCys6NDN2RC0kRYQWGToEWEFozpaEFhE6wDpkGiIWkgaBBYZUWSWEFozbsyooiNsxlhBojNuiI3DKd5MTajCtQxNQh2GGXXJnWoRl0QTTCY0VGkkOoukMOIZCAAAUsKYCi4NBMEys9M9AAhTcFsAi8y2ADRGmegACi4NAdIaI0z0ACJTCgAzuC6TAAi40AAIvM0ZkWed2FaZagALPSDQTBNEaZ2MAIuCqmgTQpqTQAAROmegNMUXmaAAASmiwATRGmegABNIKmwACLgtgCYZ6RRQAJom87EOCoqTQABhLQUAEvlOi+TpHFQaAjO51CL5jdVmbRcFMAmpKEE3FUwDjTIAATCAZQIIvgPQEwRyV03FgBCTRYARWZqAABNxYAgnDY0aBpYGumWgyQ5t8dywAzuDRyxkhOuVnN1cHQbw5NUkcPZy9I9MbLeYXBJsZhooBaY2aGYaTKNHlRoZo0iUbmQaqAemNGhBVSkaPMjRQFykaEI0IA0yosgLUoq8aNTNlSSakBoQBUBoZstSBeVFKQaUmzgNDNlSkakBXL0Zj0w0NMrg1Uo1ebDm6cxbxY4qC2mE1JQBFTVMA4wIAQ00QiySwz5uzkOhtk82+Rpa0INAzKoh2HJnVF68/USWGdCAys4O7m6QnlDulMw6uXtIz3wHbskfObzx9hZEmyxDWuDuDl6+Y6FSKGjk24e4NcdRkscXBoCGhmdTYwYpqQqbENEgFq0JgRcWAAReZbGIAIuC00MAi4ooAE0TcWNphFwWANNCBFgAARUWAARpIrhlDBTcFgAARcaCYCm4KGCjSRNsjn60Q6ZC0kRZWdpjAOMCBNAhE3loMQHN04HJogjTHoMOvCx6c1GvXwd5QBxdPPJPVNmyETxdnOY9HN2EPbIeXVJgdPOZ92Gw+fowNa5+gfJ14CXRyGjVGS21OatbDm6eU6pqSwZzZ74G2ueomMM9MjVADAzuNBgCmkK4sE0CaNE0IAm89BNARclOWMTCLgtNDBmdTYAAARpnoUJhFwWDBAKbg0EDQGemegNMJpCasihFQBYAAEaRYABFSWACaBzQJhNTQTSGAJOSySuUCBNAmGVwyiGVnUmMdYZ2w562DHZhh1Y2aGbLgk2IDj5/TDyte7IfTydBSSNVIUlJVQy0g4emqKcscVJbljQE1NCw6AJqSgDLLblOu89RDBTpmU2ElBnS0JKCC0RSslaBKuRqwzdoytWQWyJ1kluiCgmdIGrQnQZ0USWEFhlasl0EzcjGySgmdIGUElBFKhFBJSJuaAAUaSFCKIYXnRRIVJJo82USBeVFkAXlRalFvGTfNVVjDjAgTQAGWmeoACi4NAAmpC5oARGmegDBTUlgAmiQsx2AU0ihgo0zKbAAIuLGAGekFgANEXGgmAouCwBcfajLaLE0DjTM0EDTCallAAhE3FjaYZ6Zl0mCaIuLAEOWCqaAEOLzNAYAEUmUAABGmegABFyNzYhoM9ILGCGiaQUAA0RpnoAARclNMQBm6BFAS4NHkzQzB3jRopQOdCDQMtFQpuCwDiAAAADPTPQABTSKACLgtpgmiNM9BiAmpLaABCuKGIEJlCB53BbQMQTploMQOKktyFJArihgBFSWAIETcWJjCLgppjAIYFIAAJuLGAGdwVU0NARc0CaEJmO/HodKQVFSU0xgEsCgAAI0z0ATCWguKAAIuDQTAAkclgDQzPTPQGgJpDaYAEgFABFyNqhAEXFgATU0ABNTQRcFiDjAEwBMMmaGZoGRVEmgZztmDsILDKjQzdhE6wMoILRLdEFhlRZBYRG2YFhBoGNmhm9AznXMZYQWiKWhDoJnTIoqQLDOlZDoFOkDKzKOfqMwk0FZJYY2aGbz2InbMHYQWHLtx95C0Rm6Zlh14GxYQtIAsJLCFpIymZ4dXIa3l0ECClTM6LINEROsA6ZBYROsAWyCwyosgtkLREN0QWETohFhBojNuiHTMm6ILDNtklhm3RC0kYg5AYhoARGkaCGGdxYwAz0gsYAIjTPQaAJqSwBJobTAAi4sAAz0zLGA0yLjQAAzuDQAEwi4oYg5+T0+U6YgNwCbixpocXJfH2cpltUjzz3MbnIr0OPU1cBz9PnQethlZnn1B0mWhwd/m95oAABON5nUY85258zDXaS3x9YKoNQA5OrlWezk6EzuLDTLUjSLIM6Nc6yN3NDQBnXOdSlE64suufQ2goi1BpUWAARcGgmIaJvOxgEVNDTCRyWARSYJoQFcoiAAJqSdMqLIA0xZqQFwSavMLJQXlRoZspSGjgLgRZIWQBeVFkBcEmhAaPKg0xo0MwuCTYzDRQDrKiyAfD2yEao0IYVnRooDSVJtzbSVjrJlsIapDlgXlRfNsGdUjlOti0gM89g2Mw0UA7yovG0cxuGjiCejKy5Um7zCufSC89EJxss6wIaY2RagpRZrWTNFCJhydEVJrlaHUMpNBUsLzZZKLgRoQFkA7yotSA5DRIHLktyAIKEEiK5wIABTUFMYhojTPQAAz0zNBghom4sABAFACm4LAGgIuLGAKNMyxoGgV56AGJrNQaACGiNM9AACakoYABFxYKgUaZmjQABKaLABOSbz0GAKLgtpgARSZSYJMIuLAaFNyUDEwCLg0AUASKTKTBDRFxoAwlUhVNijTIZSKYAMJHJYwQwipsQwU3BTARQZ3FgqQpuShhM3IFhCtCKDIYc4AABlpmaNAwDPSLAAM9ILaYAibiwAJqaGAEXBYAAEXFjEBFwW0wAI0z0Dm6MSnFmggYIm4sBgovnOkAARGkaAAGemZbTAEJNFggTRGkWNAGdwaNMACWgtAABnpFgAE1I6mhgCjTM0AVoCWhLABMM9M9BiATCLhl5aATUGjTAAU3BoAABFxYABFwW0ANEXNDAFNwWAEXBYATUFAEDDkYAAGWuQy2ZmiMrWhBYROsAWzNaIl0yCwzZoQWETpIFhDoM2rJVhC1kTsMzQMbNDPLoyIrTmOgvMbbM6LIdBhhuFugkw6jOlZJbM51gBYm6jYzWiEaBmaIyo0ILDOdoAsIdhmUgdBE68prXHZ0vkDrXMjqrio7FxM61ijqfLB2kMaSLrMNCALxs0ICyGJzRG3NoawSavKiyAuBGjhGhmwvKiyAuUjQzZbzB1mGjzDSCTUgLgk0ebKkRZAUSHK0wBDy0zNQATRGkWAApqS2mEXBTTAAi4sYApqDQAADPTPQTVBnpmaCBgEaZ2HHaJx9HjNs87OwGRcaAmHONG4SK89TO5g2fFZ0xcHN1YbHJ28vQPO5NGAAibz0BgTydXEegANPI5+nLUtphnojm6eTrAiDZIFeAa1x6kaGJ28nXzHQ0xTcGmemZrNSZa81nRLwOgz0I0z0IHJpFyFxYABFwaCYAEVNDACaQOaBpkMBtMIuCmmE1I3NCTkoTAA4wAEBnpkbGYWQDvGjQzCiA1IC5UmrgLIA0xo0MwuBGjzDQgCs2aPJmmZJqQyyALyovDTE6eDrkzerLebC8qLIBY78h3GVGXRy7hWbInULSRpIzkvcHlpidBFDEE6Z2USzPl7MDpcsfH2I4H2wXcseG0nJ2+d6BGPTgQ90c9PUnn7JK5urM2QwBDi4NM9ILBmNgXFhNAZ656Cy2xNk0K4sAAz0g0AAAloKBiTCbiwAJHJYARcFNMEBNxQJoGmABxAAAGemZoANORXNAARU2DTFGmZoAABFxoJgEXBYAAEXFiYBFyWAABGmdjTBRcFgwTCKmwADPSAsYkwz0jQQwUaQNjEqCctoG6CVaM6WhBYRG0CdszNAznWROwhaBhbsg0Rm7DKjQzNAznWQLZnn0ZAMGtAgsMygToJKZlRZGe2ZTYS1Yhgp0goYIbJVIGwSoIZRJaJVyBQSrQhsSsM26IKZm2ySg4wAAFNSW0DlyU0wAIuLBphnpmaAAARpnYxMIqSwAAIuLAAJqDQGIAi4sAAi4LaYAEXFgAEXBbTBNEaZ6AAEZaBjrwnpksIuDQAXNtzm+vN0gAEXBbTAQE1BoAA0RecHQYbgmibiwMrKi5KaYTYZrTM0YAmhTXMdZnoABNRZKdAMIuLGAE3BTTAAJclgAARcWAARcFjBJhNTQNBNRYAE1NCGHC0wAJiqJLDNawJ2EOmZN0SUyFpmUUyCgzpWIoJnSQKCSgzZZBYQtJGUElIztWS2CjSCmgYBN50USFSSaEo0MwNMbLIk4PQ87c6+Hr849Z+bod0QGzzRLysvXCyVfIV1c7Nq59DSMIO7PlyPUeNGhAQzEvTIN6gDTK1z1z0HLQ6hpQmGd4nQZ2KCiSLWN8qTQQs3Fo0wADPXPQAAmpHUsYAouSwAAIuLAAIuS0AAEXFgARcWABNSxiDjAATM7ixgBFwaCYAGdxoAAZ6ZmgAAE3FgAE1BoAIAm89AACLgsGIAjSLBMFFyWAABFxYAwioLBiGGemeg0w5+H0vNLw64OnSdRTclgzBvM1uLDm6pDn6cAq8ArTMy0ujHpw3AYQyTPVaHNNwbWtDg7Md1C0c8b4j2jcjHpxTPWLFeehmDWs+jIp0yBtEWEO0Z0WS6CC0RSsktELSQLRJYZUWQWETrAFMgsMqLILDJuiSwydMksOIAQwy0zosgLgk2M2WQC0xssgKlI1ICyGF5WUSFQ5NHIMQTpnYxATUltA0BGkWAARcFgAmibmhoAi4NAATRGmegAB5npI5NNqOfoGKLg1AFx9smPRhuAATUhU0E0Cm4LAGgJz1BsAmgi40JbATRNxajAWemZoDFlsGNXBeWkGomSNJbAACLixgANEXFjACLgsAACLihgBFyUJgARcWABLEUASOSxBxgAAZ3nqJgEXBoACYRcWAARcFgxDCKmxDBTcjKCSgyrKyiwidJAsIWgZU7IWgZrWALCCwyp0Q6CJ1gHTIKDOlZJYQtJJZRJQTOkFDABE6Z0U4ClLHWVFkcx2TjoaEI0IClIakBZmw0xsszDRQBplS2QFwI0edFEg4eZVxaUIBNFuWMQTcUU5CkBGkWAmEVJTTAAloKEwloKihiCbhlEg5cGqkKkk0IDmEwQGeuegACmkWgGmibiwACWiwATQqTAGJNFABNZGfRnoAMU3BoiCnw9pOmegAhxUlgAATU0MTFFwaAAmiNM9AACaQqmgACLg0AAAi89AABNCuLFz9PMVRmdJLHhvkF5aFgAQ1nSNBDBKkRcaCGCm5ClZBQROsA6CDQTNaSBYSWGbbEWEOgzpaEFhmtYApkFhmXIFhBaIpaEKwgpDGCm4KGCmpKAOIGE1JFxQxA0BRLKkAqQsgKJZTgKSCnAWQxiCnKL59cDSJDonGjded2EkwdDUG+mVFqQqSTRwyiGF50NyFRUGgmABFxQ2gE5CpoAAi4NAAAIuLGmCGibiw5+jkN4xZo4k65z1M0WY7mJNx0KXFJQmomiNM9AACaQrz0AAIuC2mAARcJoAAwhiLAAAjTOxgBNIHNAMFFwWAABFxYxMUXBYARcFNMIuCgDjBDi8xtyDz0Fc6EjBDBDCSwkoJKCSgkoJKCWwksJw6cDRXmc209RyPqDCekOc0sksILCVoiTPY5dootoGMEmADEAAwQIYAAAACoAEMAmgAAABUgcUjO40MF0ojbNmdgVBJPThJveVGjzFsgFpnRZCNFDDTJmhAlwI0ebLIC4EakhZAVIjR5sshk6Z0USFJIdZ0UQFw5NCQohivNlkBcCNCAqUFvMNIQUSHMmCz0zNYvMnbHapuLgABpiYAAAAAAADTBMAAAAx2kKw1KAAAAAaBiYYbwcfVydZwen5fpmfN08p2c15G98upWnPJ3AwBiGE8Pf556AszR8+pZijc5OsYAAxDBDBDBDCSgkoJVhBbM1oGbsXOdhMa0FgtmTtmZoGZoGbsILEgtrBYklMgtElMkoJbCWwTYIYIYIbJKCSgkoJKBKgh2EFoksILCCwzLZmaBmaIgsOMQGekF56RU7Y6hWbiyAsgLJCnAWSFEhQgYAOWMTAENMFnqGdMBpgAAANMARwd+Oxy3ugjUOXXUODp2DGOkBoG0DEC8308zjNaNJSNOPfIfdzdBQMAAAUAABAAAFBoGgABgAAAAAAAAAAAMAAAYCaANQBAAAAGCYADEwAAABgAmCaYAAiSgAABgCYCYIYIAAAAEAcYAZ65F53mPRBTGIYIABghhJQSUElBJTILCCwgsILCCwgpmbsILCCwkpkFokoJKZJSEMEwAAYgblFkMqUGHQgnSWZaoOXpYW4CyA0IRoQLZDSiQoQrEDEDExiAaAaBiBgAADQMAAAAGJoAKwEGgaaBgAANAwAAGIGAJoGACJBjGkhzUF1FDEDQwAEMEAAAgDjADPRARoE3BYANMQwAAAAAAAAAAGmCaGAAAAAAAAwBDBMAAAAAAABoGmAAAAAwABMEMAATAQwBghghioYklBJQsqwgsILCCwgsILCCwgsILCSgkoEUElAhoYANBRIlEhZAWSFkBThlEhRIU4ZRIUSi5hF1myhBTgKhUWSFJAxMEwQ2QWEFhBQcYAAELWRzIamQavINTINTNGpkzQgLIZRLGJjEwQDBA0DEDABoGIGAAAAAAAANMTAAAAAAAAAGAAAAAAAAwQxAxCsTAAAAAGgAAGmAAAAAAAAAADAAAAAAGADQwEAAABgAAwAAAGJpgACYZuwTAQ0CbEwAAEwynaCwYmAIABiAOJoBoGAAAAxDBDBDBKgSoJVhBYQWGbtmZoiCwhahkahkahkahkahk9AzNAgsIdAgAAByFEhZAW8wt5hoZhoZo2Mg1Mg1Mg1Mw0Mw0M2WQynDKJCiWrEDEDABoGIGCGJgJgAAAxMAAABoGAAAwEAAaYAA0xDAEFCBoAaAAGIGIAAYAIAABogTKGgaAAAAAA4gAABgJgowRADQDAAAaAAAAAAaAABgAwEAAAwBAAAMATAABgAAIAaAaAYAAAAAAAAAJgCAEAAAAIASASAQFDBWwGwGwhgDABgAAADAAAGAMAAAAaBGAMAAAYCAGAAAAAwBAAAwAAAAQAAQMAApAKAIAABABX/8QAAv/aAAwDAQACAAMAAAAhmQ977/TXDHj7X3azLA3rvLDrXHbH/wB82w4W2cxin37y2625/wD0wz6qPMNnqeV979M688dsw1Gn1yRz+ecUl0HuKVkM+vPMMuNNOvMsEsv+9tucs8M+v8MMfOOPpYvNf/8AjX33ZQkaKCumPzLJbvP/AAz6ox/MW4Id5xJ02zK8/wAPoIPfM/e88vsc/wDxt1L3v3bPfjfvPrbbr3XLHXrvnTr73TbN9HufrzDPvLfnnDvPnSSaTKQsdFx/kmnPlvHzvymNJ7f7n/jXfT3F3nfTH3zzvnLj/wC12+y4Sd9xz/yx2+/8/wDef99ed/8Afj3/ANyyvitkuukuqksn5/mjz2Gnz2fil4cdQ3w/36133ax86e4z0x+1U8936283db2669257z022x7+y73w1w8r05z9o8ruio4kiiqhqqjr9zJq/wAuuIP0kHGNfMdvO/Mdcs19ed+sePdtt8NPM+sdkdesWtMOsufW/P8A7T/vpnvXzrraeGWWKK+yu2bjPXfn47rDnSCNFBLjHzHXfrr333DPnpfH7jj3PP3LTrbDD7zf/wD4x39w1w/9xe+y2z6y3931+79ghkshlPni684fR3L7zywliaQx/wAdefPcvPtc2mmtfu88fM9f9fPcfcs+/wDjfDj7DHr7HR/drH7nZrrTyWWaeKSCXHmOjr/D/vh9tVTzHq+H19PDXfDXPbT3X9NP7/vv/T//AOy87749+/24660880zz1/8As+s+8taYZtcdYZZ8po7PMIa8eM9NNU0ku89crpkeP+vvccf+ENcueHP/AHv/AC368v7xirjv814yz473z61/5z5wwx+7/iksl/8A8/uPo7avU+9cfPNqNN2kcv8A3mqoRn333nHH1hLnzH91LDDvv1nPGW2jH3D3T3jTzbTXDHffHjvfj7zfLbj737LnzOWWPPLbhH/7PHtpJbnD+iusBH/zTfvTpBV7TP7Xf7dV9fPLLnnzJhLLLPVnDHLP3vLjPfTDn/PLrPT7LzXnvGjnnBvHnXnXnvrV1j7/ANqtiXYQx66238RRXb/yW/8A2U1muE8H9NYN0XsWvddMs/8A/PTznDfH3XjrHFKvrjLrP6+3VZ7bHP8A0/8AM/3GEP8A2qaFhDnHj3Pjd9ThlXbn3vvtv3LXhXmTR9nvlH/TrTnzDfzr/v8A02+5xj7Yx7827xwxm+ZQ6x07w3/4xQYWw21unFST6z/zx6Ry84112wx6xVZy7/bee9189+723214w29455y658320s+7+1w03+4+23x176mn7y8S6Sab/wB9Kb7clOOscOf+fO/O+sNatsVV3XXE2CxZfcNOvOdus/tcsf0dcc9Oa7q+P+MdNftNt+vvdt/dbetPc9UEV8PdLK6ucPs8sudOMddf/vvOOHlWEXmXlDwB9fdcP/OuNcfseMvPMdvf9uvOt/tMMdMeOfN8+c+sO/O9ecVEMM/drp5lv99e9tdPv/8ALLHvbB3hhhFwswYtXWOvfD3rb7XDnXvXTLr3LLrjvPTrbPXzzD7HbvPzT/H7PfBJFhDPCqqiHjL/AJ7xy/y5x23x5/8A688lkWEGzDnP+NNc8X1t9ddd/sPNv+e+Ots8MOMf8u+8ePcOesf+te//ALPd/ZnPD+uqnFTv3xTj3T3T/wAyxy8u+c7Ya5aw89yT9y01Sx/55916wyx+050++9+1x+05wz+/6wz738y43w507W/1wwhjnnY+39194z49y18z+1/23w3764y//wAk0eekF0fMv8OucO9m9Outv9cNdMstdkff/wDnvfH77nPTbNFjNVrDy+GyNPfj73zz/fzbjbjHLtRNxtx/5dhhxxRJ99HvrXzbj/n3LTX73vT7DvrLzPZTLTXnrHnD/wBfY34fe/fb/wAIJK5lcs+Ose9tcu8+P9N/9f1Vl/tdd/8AzvbrPvPHb3jjfv8Af4x83282x383877z2x31yz//AMscuMnM32+1kvMIKq4gV2tsdNfNs9feON8ssuvF2ttKBGvsO8U11FdEW8M/uVf1ts99/wDHLPDTPnDzPXHLX7/3fT/zfBlDFB/PqCqiCpB/LffX/wD3zw6/2x361w8z03xXz7vn761bT/66+8y77965906z52714z2527x421+4yw360TeURcSew9lsoirIx1/77x/47w7xwy89y5yzy0/w01z840WYW8//AN8u89+u9OvfdM+PdfOffeOOd/8AjDr/AG7/AN1G3VmWHMNZbYLxWvvONNtMMu+uusesPv8A7rnvDr/fnL3rXH3HjP7vznzLDbrL7vnPPHzLvH7nTzv3vX/PLtpBF515VdTzaWOOax3vvznvHPvzf7TrTPfzzDn7j/TvvjjP/j/r/PnfbzTzTPrDTD3HT3rCrn/DXHLPnnPfLrLNBxzTn9Fziqq+TdTHDvvDjzzjP3vT7XDDzH7X/TPD3z3nPDDD/fnLPzj/AO1261w28w9yy91x/wDeMOP8NfveMcMEcdOuVnM6qLrm8NccueNNssvtNu+vtfu/f9f9MudfOMctcMdc+eudeM+MdtNPs9lcfPuNMPtOt+uscO99cuvtf/NdW3/6bKLTnccfe9cvd+9NPv8AXTfLfLBP7DPbrLXH/nPrrrbzvDzD3bvnv/n7f/PTqb7nnbnfXjDzn3Dfb7L/AN7SQakpprT/AP8ADPTLDbXPTP3z3zXLXv3rvnD7nPfnbDrjHzbDLrbvjbznvrXr3PnPNRjLLzbH3DXvvlvLjjr/AJybcxogurZSQ23z/wDeOtuf9c9fePceUvdf+88tOcs9d9s8O8dOvI9+/PO/M++evuMO/ecccc+P8d9dtNsuOfeXHEMa4Y5GufNsMsN/utcO8+stO+/c+/sU1+vcPMMveMveevtfPONucd/cuPfcv9+N8+f8ftPs+/vNdfu9eeunn33oz0V+0vdveMNcdsc8/wDLHD/rDvjq+7r5bDHrrPXbvPj7H3DH3bXPTbHX7vj3PfXXTvrX7b733TjrrbLrB99Nwd9NnxXf7/37nbTnz7D3pDz7nrDq2fXZnfTvTzXfrjn73/P7XfLnLv7zL3/XDTHXX7zvjD/bjbPj37vzdRHDLv3HXJpv3PfvbnPbbfrbhlDHzn7LLv6FnbTfTfvjbXzvfXz/AH98+x84703169z6zw34681/2x9/V2w40wVXw35w2bQdd5w2+w5x58378w5xd6z3365yy54500w10z2y5085wx5+y208y6wz+8390x4x3865ww10+28582R3wwpgl03414/0z7z34x1w036x77618878/wC8/f8AnvTrTrrzVF/XPHzP7XPjzDbfrvb3jnDfLLjnvzP3PP7XHLjD/OqT199fp5Hjr19Xb777rbbDvfjLbP3rv7jP3XzXPLHvJBnrPLrPHLP/ABxy0y8x44x811y0/wCv8dP+OMNnMHHE99uOs920/eMeecsvPmU0vP8AfjDTDHn/ACw+y1x9941/wxw6996+w1+/68/44050xzyy18z/AN8O9edMdeNO8UFEd9ce9tEXsfMvfssee8fu+fN+s+vvOOv+uM8NtMNMN89McGmd8vfeNOPsuf8ADj73f/X3LffjfbvP/TT7DrdBBFTfLr/PnHLrzDPD/vHXnvbrbLbfz7jzvLPPbbbf/jLfL3LXzvHPf3BHXrDfXLvLXvjfzjfP7nHDTrjzvFZBBd/LPj/TnPbj37fr/H3XjbfXHrLrH7LD/rXDvzD7vPLXnLvTtrX3z7dvzJDzbzPLLrTT7b//AIwyxw3/AMdtd80FUMcs98tcMssdPPte9uaLo9estMONMs/v+e/9u/8A73P/AJ680+7393842z5z/wD/AH//AA+55z/+8w366467+x50cQUY+w//APusfOOtde8//Lbb5Z9c2duO++OKecNtdcv/AHXz/P773/Hbf3DrDHbb3b33n/3rPbrv3fLrLjX/AM05w8fSQw8/961+z655xzzzz9sqjy73w8yw58oqxw9/9X0ywWd8/wAt8uPOP/8ALL7H/jDDnzbLv7jDbT/7v/8A2619zyZWV82w97zy713+2/8AO54KaqM88cuev/MO03lk02nOufc2FXfM+9ddM+ftdOeVv/8ADbT/AOw632/436463/09z+dbc8f388x+nog+0/1/vsPUSS5yRu9XUQTcfQaXS2y48+Rf+1y866Y02C/49wU/2w433z81/wB8uc8NtMcOP8E31vvO8OO/d566dt8/76gH2s3NdNof3EFlkFGFWEd99PNN9/8AL3f/AP74y86h+8w525ww35z19+/7y3/085+xzQQ705yw185xghw913/wpJTS1ZQZaCaVSVUYRacQx3wwz640+95837xzj11x/wCOtPdO/McP9P2e/O9dMO/Ms/MEN+cNt/OuNpaINMuP4y6r+lFl2WDHVW3EFGscMf8A3ffrjvfjjDNrD3WerHTTP77PvjP3XfvLvn33DjjDDH//AIQR+96x1+2x02gyc7zCK5saydUYc7y88U+Tax6wx2w814648wzx+165+64//wDPPM9ctducuPON+9+8MNeuM/OkdsNPNPetLY5Zu9GmklU1H3H+VklFFVGUWFGMfGcuOtceetN3GmEEff8A37DbD7DZXrPTLNf17fr3rDrHLvPDTPXLjfv/AP748ohvrQ0AGMMQdfXaefYYebeSQ331f4Tw7917zy7Td173/wDe/ucM+PUWPvsNE/n0EOcMeNu+dc//APX/AB9/+69lq+41hax4OHObQXeUVTQaXYeRx0zw1yfw6w072+xb6w2wwy02e5y+/b2z9z+372VdQ/8At1NPsc+W2e89PMOMdMO8s9HFOKbrlH3WkFlUGlUnV989fPEndfM+fffcFdfdv+FeF2sPN+nHceOMEvOHOsPPvW00sPOkFu+OevMudsu8dP8ALf8Aujj84UbUbXSdTY/V9yw5464fTf8AfPftE+KarfNEk3IsotMOP/8AnL5RJ7/bfv8AfcYRQQS9/wCssPt/d99f8MP4oIbv6NHkEF3k3vM9E/PtvttfG01ctPv+eePYaZp20nYIpsefcOe8fkUGk9csuOv91cOHPNOMMP8A7rf7rjXnjqOqvLjRB9V1d5DX79J/zdBnDrX/AP7338z02/8AeYJRhCwA7ONVVXXdUFO223t+8EmkHU1W9/8A/PTDHPLD7/XzrzzL/fXZhBRnthrLHzTDD3THjj7fjjvz/DLrPPy+qaeuHHrrDXNRhZppxh5/TzhB1ZxxJbz/AO39z/zg00+440/8YzXaRSbSVyfQVaf2x7316y/zx4zy16x4otkkvkooArg+/QXQbaSdTSTxxy31zTcWfeU53x2083268x+x5z3yy8VbXZeaRbRW4x45U/8AcesdONNc8Ms+kJcoIL5IrAioIM3G0320Vl3FX23El2FGlXEcPN/Pvc/ctMs/+/Nf/tHHX31U1mEl1n3N+t//ADHjzz3r/wD559zx94quhihg+y9y8RabSYeZSfVUe7/2w+bW82a5xf8A+uNf8sGtMEEGUH220mUm2kFW3lnGsNv308sMcMPM98l+4/4qpLK49pcsdssW0c12nHH013HWEcPnHUMXv3EMPfOcc8POtMdFE3nXmkXFXHHGEWU3ntG3XMFCxk1zazwIAAAYb7ATgloMe/GFmF30FGkEl32FFHG32n0VcdMPM88//wDP7DzzTnLtN1J1NRV9hxBh5PTJ3xj9FCLfyy86OssMCyuAE0Z0BFVh9tRRFBtBB5RVtNZBx9pBRjHjfrr5x3/jXrXDD1B1Bx19BV9tRFx5BTxFl1BBADzGcOeCOMMeuOeYwEAgLfFVFpxxpx1ZF1pdFd5ZpxxNd9XLfjjHLX777bfFtNRtNBhBB9phBBB19R1d9dHJMI0++a2oAAAQQ8gAEsg0BtdlNBFppBBRh1BhBRd5hd59ttB1LTjzTdRnPp1NRhX7TvDTDPZt1dj/AM9w4389++6zyhnspjhCCgOCAFLFPAdaUacTTXbfTTfQXfb/AGl33kF0H2AH10N90F/930GF30P/APD/AHwwXXXQw3QQ44/3/wCMMN+H4Lz5zyJ7wDyCBzx10H2H0F0GF10EEH3+MFz0EMH/xAAC/9oADAMBAAIAAwAAABAg/Ffct9tc/wBpRtcpNKlZhL3zbTtjHP00FTRX10cz3Td/nVBJreqkaj7LNKPh3O1zaDdP/SvfHTWiaP8AwyV587/Tha40+/8A+sek0nVktkcc8P8AvFR9dZ1b/p5htAkr/j7XnjB5rqmgWyWyDTvhbn19nNgHFSnVe/lxOR/LIJtzLM9z33fvTbHFJBFf3rVJxL31PXNbDjLfakF5hxJn/wD16aaTa2xYJ478/S3x55wxSRwGOg4Igox/4SrGx8bdw/6jzgU9z/abWTXSVzXbXUQeeU16b894dFoU/wClkctNMU0XG0n28N8+nuEFnNPvujQ4zw5ZyQAwClXBRVdQ4sO3p/BvVl+2FW3X1X9GWF9nk1mVF807d9dU29/X0ePnu/vlt8N+ceu/fs3dYMutdZN5TQY+DiIaLKa5a/fbBM/dcpxYxm223FPN2fcNeUP3n2VmVGhBsZLblxmNxa4dkf8ALnb/AAf851xx/wB38+deM/DKiAYaJyB5KdP+ucvKlfNP6rqTxdM3l+sP/P2OnE3WNnGeYueMJLw55Y/fuN4Lqpd/9cMN9u1/Pd++McsM8tF+RRzabDbSzNO8k3OCd8Mso/blNPM3U33UWlkmMu/lFFd3krJrp4IaZppqcnP6abM9cOcdkf2+/fOmdtNZL6pLiRqt8Y7OecuuvX1E1MM/ZOQ1m9teXnU0nnVH9OGGm2cmUIoLoJRpqqlFlcZJbqte/uk8sN9+cuIYae/PKZaPRD4cdIrO9suP+lFXcsN+aI5ddtf+nWeVs1svlM1jR100XxuppW2f9pVEWV2HMOuNPNv/ALHHvLPqc2yXPfzPfyiCL9XHPjbjuvbhpfzPzaefVDz/AAZTQcw5WVRQ84FJfbV8MK7aVCNMUScYSYY6337bYax4WdSSb5XbZQaYyUzhol1w6zWw5993XcSUzxnpk3K9x4XXVW641RdYfPMX612YWMJDPP8AvVFmHvFH09/LHHV+cEG0VcN8fP8AF93lReLPLJ3bTnr3TDrtVRTzmebypFbL5NNpT7bjZdLAQbjPb5KtOIuxk3rJ3BVLPT/vWHLP7vVZFlVJX1ujDfJNBqy7Z5b3L/jjj7vhxnLPmW+2NvjPBhJtzD9DX5U8YlVPt9dFy010CCYxXd5FX3T79LnPX9BNfpRkPH/7nnZVBDqvlZr3pl3fTfPJJ/zzfi2rdRL3/DZFfpkNh3EsiN9Lzd1F+e+EkU48hlTDh4iD/P8AcYfXVT040g567y5xxVQ352++3xHI/wDsntmkt/8AnGCnN9D3bHDr9xNRkkyyPkN7THDLam/zdAia1l5lpVJF53t3FBJhrO4UTn/bzv37X7377z7bVonzfX7hNf8Aw25mhwA0/wDt8/O89tIjTjYri4Oe+o5qodddRIPMGmUXm1Fnfkn3cNE3FF8vcse9HN9+8n88/fN3F99eeP0GEs8tr+nZM9WksLBGFMOlgAlAISfNa4P/ALbu0F/+dhVl159XyX/ptN5dptlVj7DnXPD3p33frDDlFLfH/DRUFzPz2i63IGPTFtg2nrzTNs2GEBSR77X+WbXWUIEZ1tvX19Z99p/Lp157FtnNFnX7P7/TDPjDr7fbfbLzXr7dHd5/XWu1Mx7nJ/hbDfHpR8Q+KJITxf7xHoIgQaEd1VblFwjdjvfVZ3jH5lz7Hv8A/wCM9tffM0c8NPsf+ct9cM2++0NbqbWINutl32E9s/1WlYrbzyg2jn1hygDaZ1nes7yGWen3l2nPHWsP9cvssuuMPEctdmt/t98vfccNllv3WE8aIp+oucNk2FXstns03AF1/efM9ezru+b7r8s/vWx3VFU91XGUeVddf/8An/D3LPZ7Xrjx3n7P3Zwfj1Bj9plzG+W/q/nXnpFvHDbz9lj1pFpTL7FYwwQIQBpdFhdpl9VtxpfZ1JV9dhTznXX/AFz341z6+81S26y85Y6Rf1WUQ0quhx0TWw/+R/46w5zwaWcd7V+6bFR+mIKNLzx92X72ZUQX4Y8dQeeS496/w+69119+x49ww2yx50yZZ3QRc6qgl/bLR8Rbz46y5xx+QY/d/TSSVsDqLDVUPfUyxWZbVcXUW1w4wbYcQ+Z81a0375y05V2480+5/cdSYXRQQ+ljo+R13+35930z/wCN/pPeffWmW3GH1EKZy6VOPsUlTAX0H1+O/dkPOv8At5LjLnn7jHT5rH7rXT/J5ZlS7XHPKGaCLQ2vptH3rnnW+X+PrLnLN7TTNRFvjKHRZBVXF4mnZbXLXSX77DPj77HvD7T7vPfFFvLX3tlppkeYyKZP6OyGBFPD7rDrDrX3bbT3q7SNvHzTlNBbXzDZDL6mv3nNd9zbHXvLHHvjTj7iX/Hfj3/5Z3jv7HLBt1PLXpb/AAhlihJW879y1+/60773w81/z+WVV+Ucy89/zX8370c45/69w80wX+33zz73w5w8x1047934+/8Ae8dW/t9NnMPJp7I4PNtsOde8/d7POPuscs8c1EFUVdvMMd/efd9ePO98uueNNOEXcukt8fkMNtse9uOvu9MNs/8ArvXTzJDB+iCvXITRDLDDLzWuTjP/AJ7/ANMdkM1XFf8AXfDjD3Zrrr3hR3LzTbFpFnrrf/3nW3R1zP8AQcS+0/d62/z71+2dTymvi7sy1ZSz7001kkw6394yy8+cVZfVw+355+w+x+72/XSa+8/8+30958w3+7TTy66+Sw+1+w1Zy7604w2U8QlksXLVa575478xqnx25y8Y647XbQVeaRXcS/xYU967247/AKO8P+tOOuPeOvfv9s9/923OOee+sfe9PN+VZ82K7N3Bcs8sOdcu8L5es+9vX2F+uP1usG1nnW11VUvsfu+8Mvf3+Mcsv+ccs8UfN8MteM+tP/tudduNe+fw0EEKd6AO0P8AvzH/AM1wuhyxwz08623X+iPaf+Zcz2zwe798x373x447+72231f2+1630a+Xy93QS/7816xwxsdSfR1eUeyb/wDMvcMd8sNM/wDj9fLTXhhQIll3VNnrbDzj/wB68yy97feXVW75UTz62RbTWWSd7/3bx/dU9z6z60af85zz4+7ba8709886/wBc/t9mVctvvHNm1TfUn0Msc7nNMu+N+9NMut+ffeM+t8X+c2lWHf8ArH3P9JVLfjbL11fP/nzJR5FjHPHbDHy2rSHb7/B3H/vDtfVxlTbnL/mTnrDL7PbffPHzrrDPPfnvv9Z/Zh/jjrXPnL3f/D7D5T/z2iKv7vXnzbL+mm6O7WDDf/TvLXjzzHhjxHX3brrnDTHj55n3fn7nT7DPXHTjnRl7nBrTfHD/AIYy0wwZx63wwxelg1VVR1RT16kLJ33gjkt37rgzzy+/zw7y/wBPd9d+Ned1F+NePfOv8MeOfvce/vUs9MO9fFE0ee+/v9Mm802MmFeMctEn+e8f4IMM91gTLtJrqutPcdMu9NtOdd8s/te/vs9+c+MO/tFkFunWM+tff+8ksEWVO/mXdOcM/wBxTJRTH/8A8UZ5z0+hh777vpux8/075556435yw24yw0x3y144ab3+/wCOOnWVmPUXPvs+s889ONsXH8tnnec9P0HffUO8ed/fNN9MNoN/rp5JooPvtcKrqyiIaod9arbvedOcveelltc0mtEGlPfOdP8AN/XlzXDj7rzPb17vC4l9/wA2RfZ2ut2Vgy/18nkj4pqkgkz3QihIJCkols+glmv0/wBs92nt39ss2cklMXE3dfPeuHX289+N8tOcNsONMo1sMkEEfNudd8scO5IIZKP+8YIqBDIKqgQYYYL3qzYjspcu1lfX2d+E2UGWntPuPPsfdeP2v/8APj/LvrTr/XdB5XRZNbPPvHtnLr+IeaTXHL/GY6U4gNcYlMWUlA4dtpptVxFRFFldl5RJhZnDJBb/ALzwd+cb783y7Zz18QxywzQ9486+8297x8r09bNvmu4z0vBHVAEcCLeYUTfWA9eUdx+VWfTVfUYR/ZeT4beUY97264afSby183Ry9pwzz5/82effb9/PsNrpFAKHVfYdaFLBULCfdBMjmz210xRQaU8z7eQVfbb27daTeV7Y03y74WfVYW/4/wDtf9aMsP8Af3nRzpjb2GvffCsMgM9BzSqicRSN8HrfjTbPT7PFTpJ9PnBBt5rBflVCVFZlPNJdRJxJRlN53L7fbvb1t/39PjhHXG3LuijrLuS0cppDyeEDtg494jL76/H37nHphtBpttlfvLDBx9FxpIBpBhV5tppNh59FZ39nTzznrTrNDBBLX/8Ay97g30gsuqlDV5vnK5hvv7g+0x89zx3wVXQc+18UWy4VcYSVL62cf2c/++9T58Yae+d4Sx4z2Q27z0+Xz6543spj63wlNnhS8eQGs/jrn9os148x1beBYdTT/wB0Ek2lFNU3fp6/vnEH/s08necOFmVM3XM/89MMPP8Az/FPJL/qK6SuLM6Ug/f4Ji0eiuOE9xtHlL7V0wp1VPXfhltFdth3pj/BrZNZPLhF1ZBhnJNJddDnvn5Xv7zzvtBTnnrmK37ztksmGOyeiOii4CiST3HrHnD3xt/tdlNVBZ9J73TzbNJ99dFl5RlLdtxpJzJLdxhppVxJ1pT/AAazz/w0/sonjzyefsF218yimynrt8/3y36zySaU8S2ceUSQfVV4yVaV307SYUQbd78RVUR1U26waSUQTZb4cQdw/Qxw46AXRDDAejAK29xh06202/342xx0efVbSb0fUwWTTdR+SweUYTVZwSS9e6cRX0TQcd99/RYV8Ye1Q324b+3742ltOIOGFglHTeRh8z6w44/4x9y+ZTcTZ9yZTfTSYQe+XZYVY3c13WVUdzxSdXfyTX/UdUXV73/Qce4wyy+ylu7gjnkECMMvbVVNL8z8opz9w9Z/LLRZSTY82xTZeUe8RLHOcf2+7Dxs+bYRZRQW/wANXnV3nPuvMc9fncMNP+udeKKos6Cl/XljnDPv/a7s/mHVNTxWEknWs/tGm0XOk9eS6yQdcuxgIv0VG2n0W8ctOHk0FHF0PE0eHuFNuMMa6Y9tE6Ipf2exzQOfPaY8cFESJrQ38MGVX2U1cdmPE9O99SD6b67ZinXP+cN2uuV89cEFl/feNcNvlmFVvqYp5rB4G0OPyRwxjEIf++A/+ERilQx2lHX212eNcPv90svsOTACyDy3nGWmk8fP9/MNtt2W0utd8f8AbJtx7/aSuP8AiJOylU3f3U+8x2090U68z6zfXwTQWSbdf1zx3S+RsilBDLALoBPTb3w/5z49yx5WfQWSS006z20Q4xisvtrprun+5/7aVVxy+67y44xwUVbV/cycRWUdR6zzTQd5D8lsgPNDooHIc04/y484x8y20160/wAW8PPnMZcM8s3EMXTck3Gk1Fdss/8AXbvDHfrP5rVhBBFRx15X3HP17hxvOmyW6ExB/r9XTbLLjXfbP3jJ9d5drDF9z5GNzDhhph9/IV/6Xj3zfvrLjxdLf77jX5XtvfBxFZtttBV7xklQeqiQs98tLFnF/vhDvbHPPbHjPTxprT39Hto9P3LxrxFQ0pJkyDvfr37nPTHfTPvLDvdjPDJDOSn3u0u+ACKCY402ayf4NdZjn3vj7DXP9d19hzTz/RPPLxqv7DPg11ptByGKUYIvT7SP3rjLLbz3LplLZPxXXs5hgsO4AiCW4MoCS6L+zrjvD3jnPBtBRZF9tN9BxrD9PdbHnjxX/wCceY60gMMvmw878/8Ave99u8M918uvuP8A6J1MSgwMA6u84MMGe+WWFBb7L7DXRJllpNtRLZBVT/vBzvhr7He09hVldtc2mPnLPzT3XLrj3z7/AP57704xRzuimPFOIghvrrrossntlh27w9wy2zRWUQcebQfVdaXcQQ400+YURVSz2fWx/wBPvGU2B4jAQedqsG0FVV2HWlnWFWriQIwyYohJIAAC5KYduu/PN8923k0X2Fn2d0VlGEEEON7/APf9hhfhdhBBjjjdfB+8gA+jif8AfY34wfQffX43/wCHyB4AILyDxxzyL75+N9+P/wDf9hdh9BBhf/8AfIffwf/EACMRAQABBAEEAgMAAAAAAAAAAAEgABFQYEAQITBBMXCAkKD/2gAIAQIBAT8Ap4ZhPXIOtuttOJeqdNJtW0w8D84Aiee3ILYgpgNsOTcgc0m5A4nbwlISdUdUdOJOnEnl2yZJyzyCTpx4HTCfrTSTXrTRmmnEfdOnEnTiTpxJ04k4FxpJ04k6Z6om4e2GvQydOJLpxJ023S8XIHP7RdNtQVbklPzmL9qGrwXUmr8m2ZvS/Tp5T6rfqI1Q4t/42T9JZpV/EfgFbWr1fn2q2i+uh4zq4X//xAAbEQEAAQUBAAAAAAAAAAAAAAABcAARYJCgsP/aAAgBAwEBPwCifjFDXoRQdRtvPQ//xAA2EAACAQMCBQMDBAICAgIDAQAAAQIREiADMRAhMkFRIkJhE1JxBCMwgTNiFEBDwWBwNFCRgv/aAAgBAQABPwJcFwWccPdhPGG2Huwltit3hPbFbvhUqSZUqczmLd8KFCS5CWD6ljHvhLZkdlhLF7rH3Y98e7xW74VKlUJqrLkXF3wXPwJuuxWR6j1HM51KPyUfkp8lH54Ufko/JR+SnyIo/JR+T1DqKp6ir8Ffgb5ouRVcYbYLqlhHi91woj3YPNcFwQsoYe7CXbBkdsFvhLbConuVKlRs5nM5lBLcoU4SxW7wlti+tYx74PYWywli91j34XIckVO5VnM5nqOdTmUfko/JQpzZQoihQW7xXU8fdiurFbvBkdsH24URaigq+T1FWXfBXmVXGPfjLtxe6w1p2CyQuKFlDbBdTwfbhUqNifIuLiotzmczmMoUKcI98JYx74S7Yx3lhLYWD61jHvhLZi2RUqXEnyKlWczmOvIo/Jb8lChTmURQpw74+7H3PFdTx92Pvx92K6njHCWK74e4oinyeoT5suXCXF9sNddP5zWCFwXF7EXyLi4qLuczmczuUKFBoS5YLd4Sxj3wl2/OMO+Eu35xjvLCW3GpUr6ipUr8HMVeZzOZQa5EVyRQpwntjLdYvqWPux92Pux92Pux92Pux92Me+EthYLd4PqWHuKFB1oXcJbYNZoWCFgxLkU4x74e5YS2FssI4PGOEu2McJdipcXFRdzmczmS2KFCiKHuWMd3g9iPSsJ7Yy7YvqWPux92Pvx92PuKlSpVFeZci5FxUb5lxUuLivMuRci5FUJ82VRXg9hbYd8HusPdxex2KEq0wY8lkhcZbC2wjh7sJ7Yx74PtjHYqVKjexU5nM5ka8KFBrYphHvhLZiw9yxjvLB7EOlYT2xl2xe6x7rGvMqVKlSvqKvwVZ6jmc7jn5KPyUKFOaKFEUKEimEu2PfChTmURaWlok/J6vJ6ir8FfUXIquEu35wfUsI7cHsLbB/yrjIWEdsF1YS4VKlRMqVOY+xz4UKEdihTg91jDbCW8cY9/zhPpFg+pYx92MelYS2wqN7FS4uK/AzmczmczuULS1FDvj7li+pY6srVUhKsVhLtjKSrTCvMl2x92MdsHuuFF4LUNHqKvwXD7YLbjHbB/xoWEhMqVGxMqyrOYtzmUKEihQpwjg+pYMjth7ljDbCW8fzjHvhPpeL6lxqVI9ypcV+Dn4I1ojmcyj8jXIoWlqKIeL7carh3Q2kqkZqS4ydDTndx1HSJH28Xq0lQvXkrzXB6tJULl54a0ZU3NK/l4wlgzUnKMqtH1ZfaJ1JSoQn6pDlWmNeZXhUu5kcH2wlsxcZIp8nMuFxjg/wCRYPdFOLFgt3hLtjHbD3LBkOlYe5Yx2wlvHjXgnuVKlST5HM5nM5lPUUKFChHvxoMh0rCW3BTTbXGWMu3CclFENaKk2yM1JcibpQ1HqSj0mlfQjXvw1FPyaTkq0IuXfhqwk/cRufciqEopmppcuRHTjRDVKFiNXT8EIJcNVViaapFYS2FhqRTQtuKjRse3BxTEqcHusJx7ka9mKvGWD2I7cZbYU5s5lRd8H/IuC4e5YPYW2Ee+D3WDI7Ye7B7EdlxqV9RUqVKi2OZzOY61RQoUKEcJbGnO5vD3rFbyNLUcpST7cZ6rWookOnhrzcY8maeonFEtiqRelq1IzT4KbvfPGXbg1Unoq9cuRFJLkPdcFBLjLsKCTrhZR8eRyHQuRVFSozmcz1HqHUVSj8lH5KPyNCKfJR+Sj8jRzPV5PUeodTmVfgr8FfgTVS5FeEtsJTiiGy4y2YtuPu4rd4P+VcV1YS2xh3we6wYmVK8O/Dmcx7CXIoUKFPUUwjtg91x1J2cI9/zw0n65LhqdJ9SydaGnNy7cX1rF60lKXpI6koTfLc0pzluiS1OzNaGpW5n6atnPhPSTRoaddyXSUTRPT8IROFy3HoNPciqKmEuxUqiqKjZUr8HPwcx1OZzKPyU+RooWotRQljLYWD2I7YMjhLYWEse/CiKIcSnyeodxPSnc2kaM/T6typK9K6UiLrBF1IIjOvbnw93H3YP+NYrqKlSqGypUr8FX4I1OZzOZ3KFCg0LDvhLZi2w0puU3xepTUS4R6Vg+pcJtqPJGrqymuaNKepy8Ee/5JVaJaUoy3NONqJ7E9O6glx96xW8jU06yTXFpNGnyiVKo9JJ8mJlWczmSqUfkp8lChJFEUKcHjLtjLGWwsJbC2wZDbGO2D2I7Cmm6LjLbHvgxbYJblqJadVSok0qHbY/8kXw7rj7lgx/xrCO7KIoUH241oPVRpyb7cJaiQtbnsV9RKaiS/UUIyuVSToiEk1gt8HsLjqyko8kac5qXIg6xqSrTkasNTc0q/TVSPSsH1LjOFyoRVIoj34cuEtipUqVK+o5nM5lGJc2ULS0oQXIoinCWzI7LCewsJYyxnxlCvuPpP7mfUlfa8ZbCwexHbGG2McGLpND/ACTG6F7evuPYWD3WMdsFu8IlC0dSpUe6w1JKNCv88O+HdcJuiHKbex9RLsaTTiak7UQhXmxxRFUZrNvVSNWEuxoSrE14OUeRpRtilgt3hLbHSjTVlxdGckiL5IqXFSvNFWczmcxVKFChJcihTj71jHeWMOni2kOSoQdVhLbGWMsZYSlJdjm51oQdVg9hbYdiO2KaKoqiqKoTLkVRVFUdjR5TkPmKKhq8hi2wlxboj68SOpDzh3Iaik2uK78XwoOvLD9RsmLFfxQw9y4ylGO5qSg4s/S1oz9SnyZDVjah6qIVciVN6D126qhoqiHsSnGO4mmipUT3KlTmNnM5nqKMS9TKFC1DXIS5FOPuWMdsJ7YvrWMd5Yw6eEq05Cr7kVjQjssJbYy2xlxqVJPkVKoqP8FElyRz8FZeD1HqKMVaFH5LfktLRR5FqLUURREVuUKIpwW/GhQSFpRrUtQ9NMtEi0oUHU9RzP6JPS7kVp92Jxpy4vclJaep/R9eb9pGVyFu+L4y2w/Uf4maOpdisVjDbjUrzKoqiVJbj0okeSN+x9JeBQp2Fucz6ZaMnoqZGFFQpwj3wliup4S2Ytlh71jHYerFEZqS5cJ7Y+9Yx3ljDbjKSW5qzq/SQ6UVKouRJ8i4uKs5jrQ9R6ij8lPkaLS1FEURJchYS2FtxpwjtjHGO7xW7xW7xjhLCUE90fRhVigkWot+R1qasJylHkKiIP8AdkjvxYuD2Fx11XSn+D9LFpPFYrGK5FpaWlOZRFOEthYR3eEu2Me/5wn2xW8htIjNS24S2YtsPevxjHYnD0uiNNvTjzQnVEtsfeipUqVE+bK/BV+Cr8HMjWhz8lH5HCp9JIjHkWooihLYWEthYS2xlsLbB7EdsY7Yx74rqePuxXVjHBi2w74PtxjGurJlOZR+TmVFtxjtxkqpojpWYr+F7ENsF1YSxj3wl2xjhLt+cVvIl3ZpRovzwl0vH3FUVRcVIvkS1rd0yc5anJIgmopDqcyj8lCh7yiKcY7yxhtg9iPSsJbMW2EthbYS2Ftg9hbYMjtjHGO7x92Pux92K3eDI7Ye7CXGg91gkcypHbB4rFYPYjtgt3hLtjHB7rGO3CpUb2LipUr8CrzNRScdhas1ytIS1JfBKtNynyW/JQtRRXf0URTjHYoUS4S2x96/GMd5Yw2wexHpWE+li2wewsGLbBiwZHbFFSpVFyEypUuK/BXmV+Cr8FX4Ofg51PV4PV4PV4Ofg512KvwVfgr8FfgrzLi5FyKojg8JbYSwXGPfB4r+GWxHbCPfCXYqi5FxUizmczmc64UIrkURQoPeOMe+E+nH3/1jHbCe2PvX4xXVLGG2DI7LB7CyqVRVDZUr8FX4OZzOZzKPyUKCRQtRaiiEihQlKMd+C3eDdCM7pYvdYvdcZytVSOsm6HfjQoJItRaU+R18nqKvwXDaFxltgt3xW7wep+444rNcJCqczn54RRQoUQ1zRTCG2Huxjtg91jHv+cJ9OPv/AKxjthPH3rFbyxi+RVFUXEtQi3TYq/BV+DmUZzP7KfJQa5EqppioU4MWKxjwquMe/HX6kab9KK+pn1I1pUqPUSJayaNF+ouXkrwviN8Gy+L78H24zjcqEf06TrU743OroXT8EZp8JbYpKhb8nMdaFxVcO/H3Ya9V+oFgv4ZCwhtg+pYPYhth7sGR2WD6ljHvhPbH3/1jHbCRVFSpU9yOZ6j1HMpzZT5KFqLURRQoS5IjHuR2xXGLpqtDJ9Bpy5YLYTTwWNaJilKbofTPqU5F7FMerQU7jX7GnVmq3dSpHTVtSGr6qGpzkSSSPA4q2ppSqjVn7TTjyJcP1EZSjyNHTaXPhLjOVqqLWctReDxwlTyU/wBuC/y8J8pJiJbCwjtxYtiiKHOpXh3wnBMp/K+wsI7Ye7CWxHZYLqwZHZYe5YoqiqLkSZX4Kvwc/BzHKkz1HMp8lCK5Fpaig8fcsVvLGHHU50R2NNPzgypUqaly1Kiv7lKxNLd4LmiMFHCOPZmnynwnd9T4OVpDdkPUxcpE1yILkasfVUc21RIjBqRKsZDbm+RKPJH1KRoaCJ6VzTEiXF6kE6V4S4sXWeODSZYuG2pw1uyI7DFthHCO3HuuFqO6wY/5XuhYR2w9+EthPkVKlTuV4c/A60FWhzOZRlOaKFpaURFFCnCe2MfVrN+MVOKom8JbYVK+pYqbvlyPXqbckO6E1z4rUgqpsU4vZ8HzmJciTaivyOVC6UukhKqNR0K15kU6VJypaaq9ItjsaXU8LkqYx4VRciqKk4rcjqtblyn2KMhGleRFJbRHvsVf2lX4Oddj1eCj8FGWv4HUsqKL8lH5KPyNfJT5KfJ/xl9zFH5Gj+yj8lH5Ho8yjOZ6j1FX4HuVkuwlWV0iqKiwW7wjxfbjLBj/AIUIXB7oqXFfgq/Arj1HqKPyU5lC0tGuQkinH3YPYW3GqY+pcFJPbjHv+cJ7YSdEzR3eOtX6gun+i7Um3RmnOW0jWnakf8nTJfqIo09VTNbUd9iG3otMhO+NSWs4tpn19ROr2K+mpoc/qGnLlQ1/aLbhLSg3zZpQ04Pq58P/ACcJ9C/Jrv0ogqRRHlqM1uhmlp3R5nppQshdUqiqK+k0p+sq/BzPUakW4Gk5OO5R+SnyUEi1eCiKFBbsoUKC3Z7sXusZiwlsLbB7C2wlsLB78aFEJFPko/JVlfguLlwXfjLjLbBj/l9wuL2I7YLqwlsLBdTwewtiGrL6rTNZ0iaXQfVj9RIex+n3kTnb2I6iYtVKpL9Q60ihVoLUd/Mnthq9DNH/ANYTdIsnOT9otTUcensfpn1I/VyaaozUd36dM/TwU9OZoQf1OaHpyhO6OxqLaVDWl9SiR+ndIGvCU6UQ9OsKEFbCjZpQslPmOHOqYoKtW6lUVJQvI/p+deZz8ErxOTRbVE9K+nqLfksVTUirJGgl9NFq8FFxk6abNOOzwp6WaUWlhHvit3jNtPkiCffCXUsZ7CwexHbjci5EdsHsLCcn9VIlVjjatyM33KkZKr5jdOGtsR4ULUOqqQlJou+BtU4vYWD/AJfdg9iO2C6nhLYWC6ng9mLYly1z9Q9kdOj/AEU9KkaOpfFkHbeQlfDmadas0OpjVNfhqruVrBYa3Qafb8FSqLkVRJKUSHKNCWm61ifRnJ1kRg1C1kY02RRlGWt9yzmiwtLUUQuqRTCPfBohsXKtK8ZKsWiDWnClROq4fVpKjXCbclakRVFhHGPfFdTJypFs+vKXJbj+pHnUv9NTdkJepoWpvUhq3DnFH1XLW4X1dEXSuoS+oudStYEdiToj6z8H1X4Pqaj7ENuE73L4Ppok/wByiIbYMjtgubbKDXIiuRW0hVy/slzRd6SV3ccrUiLquFyJGn08NTlEij1F3Npi2wvq6fxLiuoXGWwtsF1PCW2K3eEtuGv2kXX6iJ/45L4Lm6RP0/KLKKtaH0/yRVvtNOFKslByLZ20Rbrvky1pLmWvyW/JaasfQzSo0KKKFOEdsJbYvqWNVe8Y9/yfU/ccS9XW8Y7D/wDyUN0XMrXhpRrJtkpKKIayWo3XkenWRBOMaMhtj7WaE2208I7vH3ElWLNDTca1JL0s01WDR9ShoV5s1E7yXoZpx5cyUbdSonU0otSkS5OpqTT5IpSBHbhJSryKankSfdkduOrO1GnFbtkWsVxZHvwbE6HKUyEbZMcuE/UzVryNPpXCXUKtDT6eE5ppkJp9yvMluiOChST/AI1wXVwqVGxSRci5FxXmyr8FX4OfgdTmczmUfkW7KFCiJLkULV4I6MI7IoWq/YphDbCX/vBirpaj8Cwh04T2xfXHjLVkte3sT1FE04uc25cNf6v1FTYW3CPu/JqynHV2Iyn9VPvxdXK0XLWXPufqeg0v8ceENhpMnoK5UQopbLhHbFNKorUVXkuRchPmy4uLvgr8HfYq/B6vB6vAk12JQq+aEpFJDi2Ul5JRFD5LfksPoQTHE5UEoliLEWoSRai1EtKMj/jx8shpxLUWotRahItLfko/I6xYriUZM+lPuRVvYqO1lI0FFImqi4U514R78Jf4mRinAi9mT2I4P+WO7LS1FqGlQSWEd3hLFbvCW2Pv/rGHThPt+cfc8YdOE9sX1x4/qY81If1Y86VI/qWn0mlq/U7E5qEas053xrwrS4nKP1IscoXxZXg4d0xaSpzfMalLlJmnK3lRl3wRbpsVl4PV8HrKS8iT8lr8lvyy0sRqpWkYq1Fq8FCgt3j7sZbrGW2LEvSJUwj3xW7xXfBojth3KFEWoaKMrIu+Cpy4OE607Fk6u0bsSRLpI7vB/wAsN3hLGPfCWMe+E9sff/WMOnCXb84rqeMdsJcKouXkuRX1IuLvhmqnKPSRutSoW1k/ShJrahqab1FRs09JwjS4o/JStR/plXc/40D6aLUJIoinGG2KxlG7H3PH3Yy7Yy2FjHbGOK3xW+McHhLYXGRai35PUJ82elkux7sH/EuMN2LjLGPfCXbGPfCe2Pv/AKxi+RVFy8l0fI5LkXIuLvgq/Bzq+R6vB6j1Hq8iTpuUfkp8lCSLUURTg+pYrqeMe+EppfkUJy9w66Uxc+McVisfdj3xfbGWwtsY4rfH3Y+7GPfB4MW3GWwuFDuULHWp3wY/5Id8H2xh34VKjZci5FyLhPfkV+Cvwc/BKpzPUcyj8nufMp8lpai1EYqhRFFwl2/OK6njHbCWMupYrqZPVUKV4LUcptLbhHuak5R2iLVl44R/yyIn6n2kOlcY4x74rd4+7HusXixYpouRVeS5FyKqpcXFxUrzKouRciepQT5lUVRXgt8HjHbixbce/F7rBj/kiJy8HqPUOvIpLyUfkt+S35IxLUWooh9imEcJYrqeDIdKwlvH84rqeMdsJYy644rqZ+oXJH1PQkaaSW5ciHc1HL2opqP4EqE9OvNEfqkdLnWW+EcUVRVFUXIqXIuLvgqdyr8HPwczmc6nqPV5KS8lH5H+Sj8lPktLSgootRaiiOQiiKcfdj3WGquQuxRFIlqLUULfllr8lJeT1FX4LvgvRciOEduL7cZYMcl/JDB7rGG2Et1jHv8AnCXbFdbwZDpWE5xUoquK6pYrZYS2FhLqjj3Zq84MWlcq1Pov7yEEnzZFrmXF3wV+Cr8Cr4PUev4PUUl5En5LfllpyRQSRTBbvjy4e7F7rCqJcXsQndwjtxlsLYj341XD3cZzUVzIyuVR9sJyjQT2G3J0I2J078KnuwbQtuNCiLSj8nqE/guRUfGWxXjq8oMi73X+TTw9yxhtg944x2wl2xXVLB7EelYa/PWNOV0a4LqfHW1neoxZVU3E1QuRcVJV8Cr4Ofg9R6jncUfkt+S0oU9TLUWooihDeX5xh3/PCXSzRbadXwj34zfrXBbvg2uNfUyqGx6afOLNPUdaM7lSLb3XGXbhKVER9fNjpFktXlsQmpIlqUYpqSNPkyopxXcUqlSUqntOfkhKpJ0Rp8+fB7ri/XL4ESwtXg7Ee7IdZKTrQfoIyd3Mbd9SM6jmhcyipUg6rhuLfjU09VSk1woho5lRtUGqxI7cJqsWaMafx9jT2Fx9yxhtg+pYx2wl2KlUVRchPmy4u+CvwyvLYVabHq8HqPV8HN6zNBS9XMo/JR+S35EubLUWo0o3ajZ2I7Djtxl2/OPvWEpJClO5+k09S/CG8vzw+rEUk0ciHf8APCezNOSVR6vhEHvUU4vYrKcvg95WrFJwm68G6yEMWmrhW9jX2RBelEv8v9ndYy7cNTY0+k1Yqh7DpZpu4XpkU9Y6KJordl1JUJ7D2Keki9zTNd0iafSuD3XDVlREZQS3PqRrQeThPsQhRiT+oa1aFvKI4yryRGCLXeyK3G6Jo016SglQ78ZO2qIqjRz+oivqoNoTTG6DI7C3fGxL+SGxUqi5FyqXouRcXfAny2KvwVl4PV4PVU9XweryUfko/Ily3LfktLUNLkWooU4LeWD2ZHZYR65P5NJcsI7y4S6Wfp9mPYjsjW1Xpyh4fHWlbGpd6alyW7FKL2Z9eFaHvX44XR88KLcnO24/TxpGvnCG8jW2IpWocKNeDUVOaIz5XF2rS45zgaUaNi/yDfUiCpGRptKLNNVlUj1Mnue00+cuLhWRQnC5C+qlShDTdayHusZcJKpSUdh3S7DhJLkyOny5kdNRJI7j5oi2uRT5JbG+5WJbG4Tih0fYr8F3wNlfgfPeJZH7RJL2lfgr8Fz8F3wXfA2XIqi6JdEqiqwW7w93HX3iSQupGp1lfcaXI1HsXek0+k93F/yQXISRRFD3C4vYjth71jHbCW6/OK3lhLpZHpXF7Giqv+yclCNRa3OjVCpOaiabdZV4anRL8H6fpY9mR2R+qjWH4FLUnyi6URparrZPqP1P+Nkn6NNGvznBE/2pcu6PpftU7mlKrQ+Y46cPa2Rr4pw1/wDKq7ClHthHeRqKqNN8iZqSrGlBQf02vkhGkKEY0EqEtNMhGMWz0j0oV6hWJURJJ9yMVXmXIiox2TLvhl3wyvPYq/BWXg9XhHqOZJySFc1uUl5KPyNFPkt+Sz5ZYOIoqhYiyPgsj4LV4IpFEULeHuxli9hbYPYXGiJItXgsRainyUddz1eRuRc/BUuRU1IXNfBOpzSTF65NlP22Q2iPsNVRpKlR9S4v+SG2HvwlsR2w96xjthLeOMd5YS6WLZcGyetyfpZpaiVPyTd84o116C+kEzT9c3MhvL88J9LP0/SPZkdka3+OX4P0ypp18msqUn4NRXJIhpzuV2y2Hp11Iy8GtpObj8cEktWtS6PkuRci74Z7n6T/APyVl4NSUr4I9XgV1Weo+m/IoNdy1+SK35lvyWlqLUKKqyi8FEUXBbvH3YvdGu/SQ6VxltiyO2Md3j7sZYvYjtgyO2Etse/CnB8LUWlPk9Rt7SqFTit2PdcdfUcWv43sQ2wXXhLZkdlh78Y7YPeOMd5YS6WLbjrv0EElYajpJSRW9+o1LZxomQolTmRe/LuXf6sbf2kJShNqg26MV1Ckn4LX5JQuVGy3bmWfLLEWItj4KK/+sV1S463+XT4R3ljHeWK3lj7sfdjLsasXKhFcuMthYw2xXU8XusZbCwZHbGO2EthYd8JC4vCiLfk9QnzH1Ljr6d04v+N7ENsF1YS2Fth7iq8ly8l0fJchSVC9F3wy74ZV1XIq/B6vB6/g9XwKvMpL7ikvuLf9mSXLdliLIlkfBqJPUUUWq5ci1eCnGPu/PHWhVVW6I6ldNkdlhL2/nH3/ANYrrlxnC6UX44R6pYx3lit5Y+7H3LGXbGWwsY4+7GW6xewtsY4xwZHbB74MXGWHfj3Pfxl/AuL2FU9R6/g9fwKtdykvJR/cUfljXLctLUWIsRartii8FEUHsR2WD6ljDv8AnCfSxcHNKFTRj7me9Yw7/nDU0u6I7LCW8fzj7/6xXXLGPVLGO8sV1PH3Y+5YyxlsLi5UQv1UnLY09ZPfkXLyXovReiqqXF/wy74Zd8DfwVfgq/BV/aVl4KvwJvwVl4Ky8FZeCsvAq+CsvBWXgq/BV+BP4Lvhl3wy8uQpIuXkqvJUeDFxlth34sju+LH/ABMjhHqeE9hYe7B7Edlg+pY6ff8AOGp08fpKteH/AJF+MYd/zhPpYsJbx/OPv/rFdcsY9UsVSsiq8l0fJdHyXR8lyqy9F6+S/wCGXfDK89ir+0rL7SsvB6vBzqev4PX8FJDu8n1XUo/JT5LfllnyzVg4c0+RpO5FqLEWR8FqjrEIKtSmHuxllHbFYrd4ooWrwWRHFFvyWvyeryeoUn4Ly+PkYstTYiuXFj/iZEXGO7wnsLBdbwlsLZYe5Yw2/vCe2Pv/AKxht/eE+l8Za+nF0qXR8jkuXMvRd+Svwyr+053bEpuKrQ09ec5bH7nwer4FW58ykvuJTt3kR9Srcy35Yo83zZYixFkfBbHwKKq+RReCiKLgup8dWduxpV7nfF7rBmrGhpyrHCarFmk6PDX/AMiNPF9SxnsLGGK3eK3eK3eEthYR4UQ4rwJfJSXk9Q2XIqS2xf8AExYR3eE9sV1vCWzFth7sKryRapuXx8l8fJehyRd/qy5/aysvtKz+09V2x+58H7nwevyik/uIp+S1/cyz/Zjhy3Y0qChEtj4HFz1GaPQh7xx9/wDR+o6UaMaQXFdbJOibIQThKTP079LIzlHUpIj1SxT9UhatXthfG58+Ot1EVyKq8nqKJDUuRVcK+pCPqR8lVw1l6TQeD2KUkLbgxK/VqR74vqWMthbYx74rqx92K3eEthbYLvguL4WoafkWD/iYipVFy8kZLmXx8n1I+S9EpIv+GX/DL39rLn9om6vkVn4PX4R6/gd1Ox6vJSX3Fr+4tf3Mp6ty0sRZHwWx8EF6ShThPt+cV1/1jDb++P6mrjyNCTdVURLZn6ZV1JMUUh7rH3/0fqPaR6VxXW/wavQy5/SojSjbE1I1RoSrdwnOU5Wmg2m0yWpTsJVuI7H1Yrcnq8uQrtQemlU0tuGruR2RqKmpUXrYvRIl18HuXdiUaKpzkjRb2NXoZo9WDJbi2XDVutdD9M+pPcju8XusZbEdsV3x92PfH3YMjth3eC4sXBi2wf8AExItRavBREEuZRFOE8Y7ywntj7/6xh0rCfb84rrf4xhxkqkdFQblUT5Gr+plVxsIak49ItXX+RSbt5Y+/wDo1/aLZcV1sZ0S+CqJ1SqaD/dfBf52Q/zM1oSlSglSv4IdxK6pp86mnyqTfM0404a3Yh0muaGzNVEtkz6vKglsycZXckONVQjp2kYUdTU6WaK9WDHuLbhyIcteQmqly8l8fJfEuQ3zReXfDLvhl3wN/BWVOkjrSbpaVl4Kz8Hq8CuPWev4PX4R6/CJudeRGUn2Ky8FZeCsvBzrsVf2lz+0u/1Zd8F3MvRfEuj5Kojh3w78WLbjHB/xd0LCHfCfbGO8sJ7Y+/8ArB7EOlYT9v5xXW8YbD4avQzSlWD+BP1UJpWvkfpopuXIod1j7v6P1C2ZHnFcV1v8cJRTRHSijkRhBTbKryTdNZmlRc2y6PkqqsjahOArFsiXlJiq5c0X/wCrLn9rNS5rpNPUe1o616RXfaSU32FfTsUfhHMpP4KS8lJeS1/caipHc0o17lvyyz5ZYixCgmWIsj4LI+B2x1+ZpuMm6FEUXCWpFOg+2S2H6dbDvi98Xi91xoi1eBRRYW/JSXk51PV4LvguRVVwXFYP+LuIXHT2wl2xhvLCe2K63g9iHSsJbx/OK6nxqiq8kWkty6PkujXqJTjazRl6pI5VrRknWLVrP09U5qhz+09VVyPV4R6/gpPyikvJR3b9iek5RpcQcoO1sSr7mWfLLfUWI+nE+nHwWR8CSuZavA9KN9S1eChT1PH3YPT51O641XnhLtxbohSTRqSUvSmacaR4vkLUUq0I4aujGe5pxUXRYakGyOpRC1YslqUIyTKlRGvylEXH3YvtjLGXbFb4PDuWot+T1Cb8FxVC3wf8XdCwhthLeOMO/wCeNUSLl5Lo+S+PkviXKrLy74Zc/tY26bCcqLkV1PCP3Pg/c8oalVcyk/uLZfeyx/cyz/ZihWT3PpxPpw8H04+C2PgUU1sWrwUKDjFbLhQUIptpb8H1Rx9/9cJ6cZC0tVPk+XBdf9Y+58HuKcW2u/D3YSdqqaWstSTxe64a87YH6ZbvhLtwZGThqtSLqJ+DQTcpMjtw2NSaa3NO1fkhtxbNec1sR1v/AOn1/KoXrgnzJ8pk4cqkPUxelifCJ+pfqiR2XHvi8ZYyx74SweC4UQt8H/F3E34Ky8FZeD1fBG+nY/c8o/c8opP7hqVVzLZfcWv7mWf7Ms+WKKZ9OJ9OPgsj4GlyKLwUXgpwXU8JbMj0rCW8cY9UsYdKwnti+qOPv/rH3/1j7nx1fRqKQnyO5Kri0aF0W4vhPoZ+ndNUlKyNRy1NSp+n1G6xfDuuH6x9J+n/AMa4TFXh+rWzJzrCETTilAjtwn0sjbf6hPR8kZx8leM4VizR03fzRrRTiLoI9JDrP1HKaP8Ax/0fp+pjSaFcnTgjV9erQW3HvjLGWwsJY+7CWEsO/Hvg/wCJdQhcHsR2wfXHGG2Eu35xW8sJdLI9Kwl1Rxj1SwZDpWEtsX1Rx9/9Y+/+uMpJJs05qcak9RQfMryqaTrczXVYMhWcbakG9LVtZLpdDRd3N78J1a5CThrqvk/V1+nyNGEpw6jT0Yw58HuuH6xckfpXXTXCW3H9UqxI6Lmqpj09aBoa2pcovjP9PF7Oh/xX9wtCf3GlBx3ZUqvJdHyVVRtNCtoOMfuIqMSdslsJqlD0rsXfDHz7M/olKkXyNGM73Jo5+D1eD1eDmeo9R6z1Dqcyr8FZeCr8Dr4Ln4Ln9pc/Bd8Mb+C5FyLl5Ll5KquEhcWLj34vBj/hj1C4vYjssPesYbYS7fnGO8sJdLI7LCXVDGO8sGQ6VhPbF9Ucff8A1jX1f0VXkuXkm40fM/TSja18mu1KVBa0oxtaNCSsJSTVDRioVP1CrzNOdYohym/S6F3+rLv9Wa6d6lQfrh0CepoS2I/qa9j6z7I9XI9fwa8Jzg9j9NqOMrT1+R18lH5LX9w4V3ZHSUdmWfLFposXyWIsiWR8CiuZYvBavBavBavBTmUKcXsLFblMJdsWLBiwYtuNENIsj4LUW/LGn5Fceoq/BUUkVXDvxf8ANHcQuD2I7Ye/+sYdOD3WMd5YT6WLbB9UeFV5Lo+UXx8ilGr5l8fJei/4Y5fDIt0XpLn9pWX2lZ+B3eEfufB+58Hr8opLyNOq5lr+4t/2Zb8ss+WWq6nwWRPpx8FkfBbHwUV23YtXgtXgtXgloSTbgzS0qS9W5avBTj7hJLCXUuDinuf8fS8EdOMdkPtx/UaFHdBGh+or6ZD2yjtiup4y3WMtiO2K6njLF7EdsY4MjhLBkeLFsWotKPyeor8Df80dxcKjE15Ll5Lo+S+PkuV259SHk+pHyfUiXojNU7l/wy//AFZd/qxt1XIrL7Ss/BWfhHq+BXcz1+Sk/uKS+4knTct+WWfLLPlliLVVH04+CyPgtj4KLwR3lg9iHSsJYvqjj/5F+Mff/WPv/rH3YvdcJakY7sUkxyS3ZcnSnGTSXMcIasuQtPVj7+QtjV1JLUomJ8Y4rqeMu2L2I7Y+7GYsGR2xjjHCWMcI8XxYv5YlqLEWRHFeCyPgsj4LY+C1eCnqZQpwexHZYPqWMO/5wn04+9Yx3l+cHsQ6VhLbF9Ucf/Ivxj7/AOsf/J/XB8fdxqV5ndcP1SdEzS1aaX4IV1pNlEqUHNLhr/W7vkaD1EuS5HO0ek372T06T3IaXzxjj7sZdsWQ2x92Mtso4rGODFgsFxfFiwrz/hgLjLFdTwlsR2WD6ljDv+cJ9OL61jDeX5wexDpWE9sX1Rx96/GPv/rH3/1wfGvqFxod1w1VWDNKLkpJEJ6ujyoP9U37TRUpO6XDWjdE/T3JUaHsI1NO4hWnPjHjUqiquLl5Lo+S6Pkuj5HJeS+PkviXovRchTSL18l/wy74Zd8Feexc/tKv7Sr8FX4HXwJvwcz1Hq8Hq8Cr4Ky8FX4KvwVfgr8Ffgu+GXfDLhSL0XryXLyNryLDvh3wXFYOPP8AhgLi+2MeqWEulkdlh71jDb+8J9OPvX4xh7vzg9iPSsJ7YvdY+/8AouXkvj5L4+S+PkuV39F6L18l/wAMu+GV9WzLv9WXf6lX9pV/ac69JWX2lZfaerwerwerkev4PV8ENGx1VCkvgcfwUn5KT+4al5EpeSj8ijy6mW/LLF8liLEKKLI+CxeC1eC1eCiuLV4KLwURQlsUHOKdMJQb5o051Xzg+pYsjtise+K340RahRXgsRaW/JR13PUeoq/tK89i5FV54LisH/DDYXF7rGG8sJ9LFth78Ybcak2qbl0fJ9SH3H1IfcfUj5L1cfVXhn1Phl/+rL39jIyfP09y6X2F0/tKz8Id9NkK+i2P3Pg/c8opP7hqXktl95a/uZY/uZZ8scea5lsSyJZHwWx8FFcii8FEU4e/+sff/WPuWL7Yy2xewthNPZ4R3ZKVpCd3Cc7RTq0yM238YT6SGq60ZqqqNOVVxj3JejVFxluso7Yrd4+7H3Yxw74d+FqLUU+T1FX4I9/5Ysu+C74Zd/qyvNci6X2l0vtKz+0rP7ROfPkVn4R+58H7nwSvp2KT8opPyUn9xbL7iju3LX9zLf8AZlnyy38kYposifTj4LI+CUVTYtXgoinD/wAn9Yw935wexHpRVbV4y2xluimHvWP/AJP6x9/9YvqWMu2H1oEtsZbEOcS36epXCO8jWdZUIqi4NNzJ7ohGi4TnaiMrlUlsasdmQdYiSXGO7P1HYh0rjqKvIgqKmMcV1PHvj7uNSqFJcy5F6L0OSqXR8lVweC49/wCTsR2w9yxhhPbH3/1jDpwn2/OPv/rGHf8AOD2I9KNaNJxn88O5LbF7rF9ax9/9Y+9fjF9UcZduLVSX6f7WOc4cpr+zVk1bRjWrStxpa13J7n1X9S201Olmg/Qav1a7ciGrqpdNSOpd2fBbsXPVwa5rjqaKo3U0YPe4lsON0SEbVTBbs190Q6VxllHH3Y9+FS8v+B3VLZeSwsLEKCqWIsRZEcUWRPpos+RqXkrLwXoqjvx7/wAj2I7Ye/HT2wniut4Mh0rCfb84+/8ArGHf84PZkOlE9uFB4y3iVwfWsff/AFi+tfjF9Sxl2whK6p+o6BQctKItWNKS5EafW9JqxdVJE9esadzQVIEuk0dn+ePdkf8ALg90VXkuXkk4tbmk0qjkqCkqbl8fJfEviXouVWXX6gpIuLvyT1UuTqXfBd8F3wXfBX4Iv4Lvguf2sr8Ffg7lfgu+GXfBeOZez/8Ap6S6I2i6Pkuj5Ll5Ko74PBiLUPT8FZRZGSfB7/yMWC68YdOE+35xXU8HsQ6VhLt+cV1/1jDv+cNTVhFc2aWtCfJMltxnsLB7rhVFy8ly8jauRfHyXx8l6L0V9X9F/wAMu/1Zd/qy5/aVd2xWX2lZ+Cs/B6/CHdVbH7nwev4P3PKP3PKHd5KS8lJfcUl9x9F9p0HozfVMjBpdQ9JMWkl3Lfln0kKPIt+WLTiixFiLVU1NKLE0t0V/1KS8Fkj6XyfS+T6S8n0/9ijXdEZ03QqPDUurRGlC3DXXpNN1isVu8e/GpRlMWcjl4KfBb8Fp9Ms+S1/cNS8nrKz8F0vA38CZcipIouxGdeQ+38jFgurB7EOlYS7cKlSqE1V8y6Pkvj5L4+Ryj5FOKS5n1F5PqRPqL5HKtNy/4Ze/tZe/sZdL7Cs79uxWf2ldTwj9z4P3Pgjf8Hr8o9fkpP7h/pY83U04/vq0o/uLX9zLflkkWliLEWIaVUWrwWrwWrwUQ+tcIybnx96/GL61xclHcXMe8cZYvYW2K4bF5WbLZXbliLVx1NWKFquWxbN9z6fyfSR9JEdJNH02tmXTW6FNPg+vHW6GaPQsVu8XuXFGUKkuNeDFxvj5HvgyO2C4UQ4o+kj6bTrU5/yM5lJeSkvJbL7hJ1fqLX9zLX9zLP8AZlvyxQ5bssXyfTR9NDiqo+nHwfTj4Ppx8FkfAoqr5FsfBavBRD2FsinGW8cV1v8AGMNv7w1HSDP0sd5YT2xlvEqsH1x4afXx96xm6NM05XcNbsiPSh7x4V58Z7YvYjssapVFO7Yt8ip24e7DVfO0elGhRwmLbhVcIbcZ6fdEJ+T3LGaTRDbFdWDY+bEuOp2HsVKoquEtivCUnwfYU+LI7cLl54RKrFi/jfYQuMd3hLZkdlhLqjjHeWEtmLZYS3j+cV1v8Yw2/vD9U/RQ0JwoorsuOtqNco7j09WnORfq6fVzFqRaK8HvE1uk03WKHJLcjOMth9cSc6Gjuyc2tlUjrScqNEpUkiMk8P1HY0vq9uGq5XbGnf3JbxxntiyOywboO6SlQ/SyalKLNXUq7UaaUVThKteRXX8IS1e7XCfLXRLYnzkiO3DW03LY0lJR5kO+GpDuhS5rFkdsfdxbNx9uLbHUbaQnU3Y6RIyqPY7FR7CSoT5IjSuESTGiPSXUTRDcjGkh8WLb+N7oQuMd3hLpZHZYPqjjH3YS6WLZYS3jiut4w2w/V6d0K+D9FDk5cYerUbJGu19NkNOsa1ITui0x6skuQp3WmuqwNNSpuSrKdKk3a/SV6GPnzIdFSMvSR9Wqajf1qC2w1Y1ojSVFw1VyqQ2RLdYz2xZHbDWZpKiH6f1H5J6EJ8+5/wAeS2mQTS5sb5n/ACP9WLVm+3DV01P8jWslSppxpze5UqvJcvJdHyJpV5l8fJfHyXx8l0fI16uQpIuifUiXxLkKSL4l6L0XIqql6HNF1S5E5F78i1Cq8lyqTacTTYp0G7u5Ci7lV5OVCnMaqj1E+kjbgie6JbEXy4Kg+C4x2/j9yxh3wl0sW2D61jHv+cJbMWD6o4rreMNsP1H+KR+k/wAXGE1DVafclsa1HGjIzlpqlDTXVI0+dSHKdCco2vmaco27jmlJiSa3JUaiUru+RfBKnMlz2qQtj2Y4V1VLmX/6svf2svf2Mvl9g26r0lZ/aev7T1+EL6i7Id/LY/c+C6d1OR+55R6/JK6m4tWV1G6FJfcWy+4tf3FH9wly3Zb/ALMt+WW/LNeO3Miq9yehdJOp9NeWWL5LEW80fTifTiWR8FkfA4qgorwWrwNKmxFp9ii8CSqyiKIoihqbGnjHH3cJc2JcNTcqhR5jRGI1yEi1eC1eC1eCiEkWx8FkfBYhxR9OJZ8stf3MpL7j1V3JSd3MucnsOPwUXgVpTnvwXGP8fuWFSDXMuXkuXkuj5JSVNy+Pkvj5L4+S+PkuVx9SJ9SJ9RF6FL4Zf8Mv/wBWXf6slLl0lz+0rL7Ss/tPX4Ody5Hr+D9z4P3PgpqeUK+r5opqfcik/uLZ/eWy+4jFtdTLH9zLP9mWf7M1Y/ty5vY/Sxrp/wBn018n04k/08ZfkejqR7mnod5bn04+CyPgsj4JQV0eRavAoJFEUH1RwlKMd2KcZSVMZdUcZdvzwSf1G+M9jWjsyDrFYQ2wnG5GlKjcXi91jLYjsuD2NLra4LqeOrsQXLGHfGTdw5mlc+b4yQorBkcVgxbcK8O4lWTElw78KItXgtKPyeojvhQplT1Fi8Fi8FkfBZHwQjHwWR8FsfBavBJKhReCnH34xwnsJYPrjjHqljDpw13TTfI/SJ/T5+cJYy3jxqn34S6o4KP1JuuwtNR1FTgucyTdaLhLqjhrwqqo051Sr2ZOrjyNGb2e/GWxqr0Gg+VMIbYy06yZGdOUsJdsXsR24xhSVeHuwcxpspVH05fcfTl9xY/J9P5Iwddyz5LC1+S1+TUrHubmmqR4y2Fh9SJFj1EmJ14rfGPCWxHYkafGTo1guPfCnGhTj78YbYT2x9/9Yx2wnti+uOMeqWOn04T6WLCexfV0R9NeWKsd2VHvH88X+3P44S6o8ZbGl0j6o8IRoU4S3j+cGJUnw+nGteMtman+M/T98I7Y+4lFS3LJR6WLV8oU4vuS7ZQ2xqrj6kT6j7IpJ7iikS2Fit3jqRUhxSohcZbEdsJRpzI9zchtx7ivq6EpvY0xsUkSG/SLVijUm5uiNKLS58dXePBsTqV58e+FChTFdeMNsJ4+/wDrGO2E9sX1xxj1Sx0+nCfS8Z80f8eHyWTj0yJSvS/JL9vmjUl6YtEelVIydZImtaW5DSlydTvHjPpZo7UJdUcZbx/OM0t8ZbM1Og/Trk3hHHvg9OI9OncpqeS7U8H1J/afVl9p9X4FqvwfUl9pXU8H7ha/uLOYoxORVFR7CaKlV5Koqjuyq8ly8lUciRLdFUV4MW3Fsk7mQRS1ia88e5Dcl1iSRrOgnzKViU5EUavpkpUIal3bjqrlUSe49ivOh34vfGmS6nh2IdKwl2xXW8Y7YT2x96xj1Sxh04S2wqSZLViu49aPYSVrqySk1SpJK2KqLWtVGQmr2xyiQaQ2qovRei9fI6xlWKYtW5rky7/Vl3+rLn9rLn9o2+XIul9pdP7Ss/tKz8Dcis/CK6nwfufB+58DuoataI04ztXNFNT7ik/uKS8iUvJbL7ij+4tf3FPkpz3Lfllnyy35Zb8skWlpYfTR9NCgj6cT6aPpxLIlkao+nHwWR8FkfBbHwWrwKMabFsfBbHwWx8Fq8FFUtXgsXgtRavBJIkkWx8Fq8Fq8FqEkWotiS0/BDSSLVU+nE+lEsRYinMtHp/LLP9mSXq3Fp89y2X3FJeT1Du+BXeC5/aXfDJNNF0aUHJU3I8+ZJ0Ftwf8AGnSTPqRPqxPqx+S9eGKapsz6nwy/4Zf8MctuTL39rLn9rLn9pdL7RN1fIrL7SsvtKy8FZeCN1Nj1fB6/g9fwSqev4PUeryeryc7tyk/uKT+4tn95bL7xJ1fqLH97LP8AZln+zLPlkYJrdn018n0o/J9OJKKSLI+CyPgsj4LY+CSRZHwWR8Fq8Fo1ziWooU4S6o4y6o4y9v5xltjLYtuaxj3x92Mtso98Xuso7Y+7GWw+kW2Ecfdi98Ped8GLizsWrwWR8DhEt+SkvI68H/DHd8KcHsR2WEt44x3lg9iOywn2/OPv/rGO8sdPpWE+liwl2/OMt44y6o4y3j+cZ9vzjPbF7EdljHvj7sZbC2xj3xlusobY+5Yy2PaRwj3x92Lws9VTvgxbCl6muDFxfF/xw74S2FssH1RxjvLB7MjssJdvzj7/AOsYe784w6VhPpeMu35xlvH84y3jjLeP5xn2/OM+nF7EOlYx3eL6ljLYW2Md3jLtlDF7rFkdhb4Ld4vdcVqboerQlL01RB1RUqKdWN81hOVERc6EZbshKq4KQ5ciMm0VZX1FRi24P+DT74T2Fth71jDvhLZi2WEt4/nH3/1jD3fnBkOlYT6WLCXbGW8fzjLeOMt4/nGfb84z6cWQ6VjHd4vdYy2Ftit3jLKPfF7rFkdh4Ld4vtx1OTIxrE+DTF1EilKD5kXxnubIaaRp9PDuyj8iVEdiCe534R/ihhPbH34w7/nCWzFtg944rrf4xh3/ADgyPSipUqT6WVRVeSq8l0fI2vJdHyXx8ovj5L4+RyVVzLo+S+Pkvj5L4+RyVUXxL0fUj8n1F8kpbF/wy/4Zf8Mu/wBWSl8Mvf2svf2svf2Fz+0k3TpLpfaVl9pWf2lZ/aVn4FfTY9fhHr+D9z4PX8Cu57Hr+D1/B6/g9XlDuqevyevyevyeryO6m4rqblJeSkvJSX3FH5FWr5lH9xa/uLX9xR/cNPyWv7mW/wCzLX5Zb8lvyxL5Lfllvyy1/cy35Gvkt+S35Lfkt+SnyJfI4vyJPyUf3FH5O+5R+Sj8lH5KPyNPyUl5KPyODfcUZLuOBZPsRhNOo4TZSXwUaPX4Kz+0rL7SdX2FF15jfLZkZouRJJ9zshSqOO4p0I1fPgv4WRbpsVn9pWf2lZ/aScvBXU+1FdTwj9zwj9zwj117H7nwfufB+55R6/KI3+T1+UUn9xSfkldTcpP7ikvvLZfeUl9w06rmWv7mWv7mWv7mWf7MUfU+ZZ/syz/Zln+zLPlkYJ1Ppryz6a+T6Ufk+nEjpxoj6cfB9KHg+lDwSiktiyH2n04faWR8Isj4Gly5Fq8Fq8FF4KD3X5KFOMt44y9v5xnt/eM+kWMNsV1PF7rF7EdsV1Yz2Fit3jIWMeHfj7sZYvYW2D2x78aFFUsXgsRYiz5LX5PUL+F7ENsJ9sV1vGG2E+nF9UcV1yx0+/5wexDpWE+l4y7fnGW8fzxquEt4/nGft/OM9sZ9LFtjDbFdTxl2xZDbH34y2Fiup4yyjwYnwfUsZbC2wexF8uDINsYjUl4IVpz4e4nzRB1XDvguPf8AhlsR6VhLt+cV1vHT6VhPbH3LGPVLHT2f5wezIdKwn04y7fnGW8fzw1a2OhpxvTdeaNKV0SW8fzjP2/nGe2Muli2WMNsV1PGXbKG2PuxlsR2x92MthYx74vdYvYW3Fj9bFGmxHYlsaYyOxT1cG0iU6TrUTTEqS4PfBce/8M+lkdlg91jHqeD2IdKwl/7x9yxj1Sx09v7w125elGjX6ca4T6cZ9vzw0tZuTT4y3j+eEj/H+o+GQhbUlvH84z9v5x1NsZbMjssYbYrqxllHbH3YvYjtj7sZbC2xW7xeLI7cWLqIrjDhHYpwlFM1NOhpw78Xh34vdfwz2FssE3DXo+/FmhcpzgyO8sHsyOywvi9n3x92GprOGol2I9+Lkkj68TTdY8KjdEQ2kyPSuFUVRPpKryVXkuXkuXkbXLmXLyaq9dUaWqpR5vmXR8ja5cy6Pkc4+T9VSkWiM4tLmOS5cy+Pk+pEviXolJcvyXovRevkvXySlVF/wy/4Zf8A6sv/ANWOXJ8mKfLZl3wy/wD1Ze/tZd8EZU7F7+1l7+1lz+0uf2lXdsVf2l0vtKvwVl4G34KvwVl4Ky8FZeDn4E34Ky8FZeCs/BWXg512Ky8FZeCs/CPX4R6hXUKzKy8FZeD1eDnU9Xg9Xg9fg9Xgd1NhOXgrPwVl4Ky8FX4FWuxV+CsvBWXgdfBc/BV+Cr8FX4KvwVfgTfgq/Bc/tLn9pJN9hXifwy74ZXnsX/DFJIvRfEvRPn3I0S3KoqOUfOHfi/4Z7Cv8nr8nr8o9flGpVasHUpP7ik/uKT+4kpLWjz3Epc+ZbL7i2X3lsvuHF06hRdOotf3Mtf3MmnKVik/kjp26tKlf3Last+WWfLLPllvqLfyWL5LF8mpCU9VxIR5C+m21XmhvSvtPpQHpQNGMatM+nHwfTj4NWMVE+nFQ/oUI0XIsj4LYeC2BOKpsWR8FsfBbHwWx8EkuRavA4rwRSjq0KIe6KDR+p2RpqkI/glvH84z9v5xnsLB7MjssYd+NOHuxllHvi91lHbF7rFkdsfdjNciLxjit8VxoMoi1eC1eCWj6qoUUW/LLX5KPyevyeodf4Z7Y/qN4iZUlqwi6Nms+en+SL3wlsxbcVqqM51NOrle+5rUrWvMi6pPj7mR1Yyr8Gnrqc3E1JNUS7s5/8jmVpGbLZRa1BxepKUkaM6x57ojzlIhy1Vx1t4kulkdkS2ZoPeL7DlL6t5qP0GlK6HM1G7lQ1NT0enuaOrcqPc1NSX1K9hSqq8Nfk4vg948dbW9W3IjJSiqEt4/nGft/OOp0iwlsyHSsYd8ffjLbKPfGXbKOL3WLI7Y+7GWwlyK4R74+7Fb4MXFi4vi9hfwTx1jTlKHq7HrlFtS7i9UHJ7kpV0oM1a3VTFqOWg33P8cIzqa2s46ace5paspQdRbcdOMXqSTQ94mt11NF/trj7masfpydO5aoSg0a3Xpfkmv3oMn/AI5/kca6P9H6f3n+PU+GQmlKabNP1ai+OOtvEl0sW3DV9Mq/BZ+0J10zSdG4id2qyH+Sng1fRKvksrpo0OVYvh+p9vCW8eOtpxtly7H6Xo/slvH84z9v5x1OkWD2ZDpWMe+PvxezFjHd4y7fnKPfGXbKG2L6ljLYjsUNuK3ePux74S2FtxYtuL4sjt/BPtjPv+CNPpmk/wBtlbY/kt/ZJ89O4iv2Gakk9GJqJyhpUIq2UkLjq6clK+ItTUk0rSeldCnc0oWQo+FUJq6R+q9pGV1kfk1NNylB+BxTafgcHPTa+SnKhDTUKjinujW0buaNDTtjx/UL0kZqen88daDnSnDZuPyT0q80aULVz3IadJyl5HFPdEvb+Si4avPUguD3jx1uiR+l2l+SW8cZ+3846nSLB7EelYx74+5YvYWK3eMso7vGWUMZbrKO3GhU7498e+DFthHi9sI7fwPdY09TJfpq7Oh/xX2kfSjRJot5H/Hqt2R09RK3sL9LEhCxGrF3KWPuXH9TPUutjUs1vDP3E+47rE5H6elvGG3CvB7MjS1FUVHQ1NOUZViacpPqKoqvJVEqciq8lV5KryVXkb2Ll5Ll5INS1HIqvI2qouXkuXk1ZKx8z9M1axtViXR8l8fJfHyXR8kmuXPuXx8l8fJfHyXx8kpJrcU4l8S+JfEuVCMlQvRfEviXRFJcy9F8S+Jei5VL0XxL0XIckKSLkXIvRchPmXIvRei5EnyLkXIuRci5FVzLkXIvReiUkXxL4l8S+JehNF0fJevJdHyXIbRci5eS5eS6PkuXki0XLyXR8l0fJWPk2Zei5eSq8lV5HuVRVFVw74xwXfixcGxfwS6kWvyWP7mWf7Mt+WKPN8yz/Zln+zLPllvyxR5bss+WWfLLPlko/LLPlli+SxfJYvkp6ixFiPpxLEKCdTX01Yfp4Jxf5LIliIxTRZHwfTj4LI+BwjR8hQjRciyPgsj4LI+CUI02Ppx8FkfBZHwWR8EkuXLuWR8FsfBbHwWrwNKqLV4LV4LI+C1eB9USiKI1I1i+RoSirqn2lCiKIoS7fnhTjPpFjHpWK3fGnB7rF7Edlj7njLbGgt2UwlsLjTgt2UKFChIoUKFEUQiiKIoi1eCnMtXgsRT4PT4GkWotRZEsQ4osRYixFoo/Jb8lH9xR+Sj8nq8nqPUfUaPqT7ROfdEf4H1rGPfB7MjssJdvzj7/AOsY9/yTjdFo0IOEKPg9iHSsJ9LFssJ7Yy7fnF7xxfVHDU/T1lWJSlmMu35xn0sW2MOnFdTxe6xexHpWPuxlsLFdTxlsLbH3Yy2FtjHd4vdYyR6ir8Fxch4rvhVVLkXMoyMFx7/we/GHf84T6WLZYPeOK6njDbB7Mh0rCfSxYSxluvzi+pYvqji944z7fnGfSxYw6cV1PGXbF7ENsffjLZi2x9+MtiO2PuxlsR2xXU8XjLbC1EolnyWv7ikvJSXkpKu5SXkt+SwtVSnFce/8HvxhthPbF9SxW7xh04S2ZHZYT6cZdvzjLeOL6li+pYveOM+35xn0sWMNsfc8ZdslqxXIrh7sZbMjtj78XsR2xfUsXsR2x92MsXsLCWwsPdh3w78Xuv4F1PBkdsJbY+9Yx3eMdsJbMWE9uNSo+35414PdFSpVFR7rF9Sxe8cZdvzjLpYsY7Y+54y7ZammqVNHbD3LF7EdsfdiyO2L3WUcfdjLbFi2wewsPdg8O/GX8CVWyz8liLF8jiqCgqFiLEWIcUWIsRYixFquLIliLEWoUVzLIlqLUUQoqiLUWRLIkkki1FiLIlkfBKKLEWR8FkfBZHwOKVCyPg+nHwfTj4LI+BxVUWR8FkfBZHwWR8Fqqi2Pgsj4LI+C1FFVFiLIlqLF4HFVRavBZHwWR8FkfBKK5fksj4LI+CxeC2PgmkosiotIsj4LI+CyJZEjFMsiWRLI+CyJarj6cSyJZEsRKUbqFiLEWItRaixOJpx9bRYi1FqKc0Wlpai1FpFci0t+S0uakU5lvyy35Zb8lvyW/Il8lvyW/LLfkt+RrYp8lH5KPyU+Sj8iXyWvyUfko/JR+TnUo/JSXkpLyUl5HXyUfkpLyUl5PV5PV5Fceryevyev4HcK49fwev4PUc/BWXgrLwVl4G34Ln4Lvgu+C7mXFyG1/BDvhLZkdlhLeOPveMf/AHg9iOywn04z7fnGW8cX1Rx9yxlOKkufBSUuL3jjPt+eENS5P4Iaz+rR7FTU6GaT9BLUjHfCG3DUm1sLbh78dXlq/wB5RI/5cHusobcWTIvbhdzLhOvCOM+2Ue+Mu2L2FtjHBkdsJYPbB9uL2FnDvhPpxfVHFdTxjtg9mLZYT6cZ9vzjLqji+uOPuWGtqzi6JCac1cdiCpXjLeOM9uFLdSfyTjRKRq+rTqVrp/0Q/wAbNV3mnqU0yOtNS5s7EO/5Gy5X8z6sPIpJ7E9aMZkv1T7EdfVc1x/U9YtsV3I/5MJ9j92DI667lU+MNsJPmJ0kuEtxLkR34Q78HIUuEsk+fBsvZUkV4O4v8lSO2Me+McJYPYW3GXFi2yZDbCe2L61jHqljHbB7MWE9sZe384y6o4vrjj7ljrwToyHPSRpOq4veOM9uGt1onGukafq0hTtUos0l+2aXUTVsqGrp+hfBoP0Ee/5NSLlF0Poam7Fb3NPViqRRLRi5n0dJH1NKJDUjPYZrX1q0abrBY9pGhV1bNWUorki/V+Sup8iU6qvB6cX2OenLjDvxZvI1IUoQdUPci+Qt+Ee/B7iQ9uCwbJbifI7lhFkzsJlSVBEcVu8Y4S2FhHbi8I5S2IbYTx96xjvLBkdlhLbGX/vGXb84vqji+pY+5YSVU0Sc4uhpqkERVNSS4vdYy24fqOx7TQ9y+TW0buaIL0IUFFtktNN1KVRpwtqR78ZfpoMjowiSr2Ho6r7i/TT7s09NQXDXjdA/Tz5W0xj346snHZH1/gvmxDdCl0uMO/GWxp9RPY6GLmxxl2IJ8I7vg+TKkme0W3F8JbntI78PcSXIRThuUI4+54rvhLYWEeLwXfKWwoqhYixFiHFcj6aLEWIsRarixFiLEWojFOpYixFiLUKKoWItRYiS5FqLEWItQ1sWosRYi0ceaPpr5LF8li8ss+WOPNFnyyz5ZZ8ss+WOPNFnyyz5ZZ8st+WU57ss+WWfLLP9mW/7Mt5rmWfLLPllv+zLf9mNc1zLH9zLX9zKfJa/uJJ+S1/cS07t2WP7hadG3cOLp1CTpuWy+4tl9xbL7i2X3CT58ykvuKS+4pLyUl5Oddyk/JSfkpPyevyNSoKMj1/B6/g9fweoVx6/g9fwerwi1+Ecz1eCV77EU12Ky8FZeCNavkVfgrLwNypsQUl2G34JVa2IRa7FX4KvwV+CvPYu+Bv4P6ZVvsdthS+C74L/AIY5/Ame4u+Bci4qhsUi5FUXIuQmXIuRci5FyqXovRei5FyqXouRchyQpIuRcvJcvImvJVeSqKiZXh3eUtiO2Et1iut/jGHf84PYWywltjLt+cZbxxfVHH3LH3rF9SxlvH84z2xezIdKxjvL84vqWMthbYrd4y2yW7xlsLH3YvYjtxkRO+LI7Yrd49ynChQ7lChQoR2KFEURRVLUWotQootRah8sp7C2wfUsV1vGG2D2YtsJbYy7fnF9UcX1R4z1bGjc9yx9yxfVHGW8fzjPpxexDpWMd5YvqWMtiO2K6njLbJdTxlsLbH3YshtxkR2HusWR2x92L3x92McO+C4yyntj71jHqljDpwlsxYSxlvH84vqji+qPFK7UZp914PesfcsX1LGW8fzjPpxexDpWMd5YvqWL2I7Y+7GWwsV1PGWxHbH3LKHF9XCXbFkcfdjLdYvdYrvh7sO/F5T7Y+/GO7xj04S2xl2xe8cX1LH3LgzR9w+Wovk96x9yx+rF6qWMu35xn04vYh0rGO8sX1RxexHZY+7GWwtsffi9iO2L6llEcqPnhLKOL6sZYvtit3g91h3/AIZ7osRYixFiLeZYixFi8ss/JGJZ8ss/JZ8st+RR5bss+WWfLLflkly3Lfkt+WW/LLfka25lPkp8lPkt+R7rmUf3FH9xR/cUl9xR1XMtl9xSX3FJfcUl9xSVy5lJ/cNS+40k6PmThN05nqruUn5PX5PX5PV5Odx6z1/B6vg1HJR7GnB1Uj1/B6/g9Z6h15HqPV4PX4Kz8Eq02Ky8FZ+Cs/BdP7SsvBFumxdL7S6X2lz+0uf2ilzfIvf2l3wy/wCGX/DHLmuRf8MvLy9FwpIvRci9H1YeS+Ndy+PkuRci5DkhSRcvJdHyXx8ovj5Lo3bly8lSvBkdi4rxe6yXclGqIPtxltku+L3WMsZY+7B9sO/8L6liup4w2wlsyOywntjLeOL61j71j71wexpdyclFVFrxc1wlqKLoLnw9yw1+ghtDh2NLVbm4y4S7fnGfSSmon1Z9omnrKfLvxh0rFdUsZbrKO3GhraaqfRddz6OoizUKavg/d8D+p4P3GW6ngejMX6d9z/jxPoRqf8fwzT5Soy1FqLURimixCSZYixEkkWlhaWlolzLfknGj3Lfkt+Rr5KfJR+Sj8lH5KPyIo/JR+Sj8lH5HXyUfko/JSXkpLyNPyUfko/JR+SkvI0/JSXkpLyUl5KS8nOu5SXkpLyUl5Gn5KS8lJeSj8jqUfk9Xk9XnL3rGO7xh04T6WLZYT7fnF7rF9ax96x9/BugtZRbofuzTFG5fg0Z1j8oXq1uPuWGv0EfZ+OL04uSl34S7fnGfSL1zKUIr9+vFOVqoLBdTwlsKbvo8GOrZp9OE1VGm+eLIvlwujWleEpSrVEJVa4P/ACYQ24R4OSRqbC24Xc+K6nwnsR24S2I7Yrqxli9hYS2Fg91hLYXF/wAPvxj3wexDpwn04y7fnF9Ucfesfevxj7/64T0Zyl1cjTgr3w0+qRp8m2aP+R8fcsNfoI7Q4S2ZousOEu35NSLkuUqFP1Me9SEtavNcuE+liVkq05En6amju3xhtiut4T2F/kWE2QiQ2wYuWpwnO0esl2FJNVKpogKW6ZJe5F/pLfSzTfrpwp68Id+C6uDSZqQt2Iwe9eEperYjOvD3cJbENuD2I7Y+7GQsHsR2wYtsJbrB7C24y2/hXW8Yd8HsR2WE9sZbrF9Sx9/9Y+/+sffxX+Xhq3QnyNCHJt9zR05QlKvH3Yai9LNJ1t46PKUo8JdvzwetR7H/ACPCE3Ql0vhONY0IvWjysEtST58inIrSAtsPe8NRlKTjhrLUry2LtZENbU8CrTjrOSVUXVknw1VWJpUlUo9Ofwyv038Mg/Waqo6kVWAt6CEqavCmEe/D38dXpIdK4SVULh7uDIcGR2x92MthbYx2wZHbCWDI7cXsL+Bc2y35ZZ8ss+WW/LFH5LP9mWv7mWv7mNPyWv7i1/cWy+4tf3Ek/JSX3FJfcUl9xSXkd1VzKS8nq8nr8nq8nO49fk9flHr+D1/B6rj1/B6/g9fwev4PVcfueEevwis/BWXgrKuxWX2lZfaer6i9JdL7TvsVf2lX4Ln9pd8FfVsXfBd8Mu+GXfA/2tSvYWrBl6K01al6JPYuRWJ6C6JJqhci5eS5Fy8ly8jpYQatXMqvJVFUe4rxcU2asfUnlHBqpRwnRiHzRpQcW6koqQ4pqjNLSoycLkRVEWRrXhKPqTwbpwju+FOfGWxHbH3cYbvjHF7rGWwtsY4x2wltjHbixbfwQ74w6cJbC2WEu35xfVHH34+/+sffj7/6x9/9Y+7Fr1IUIrZYS7fnChLpYtiiKIoiiLaxFFFsfBZHwWoorixFiLEWIlFIsLS35Zb8lvyJb8y1+S1/cUfkpLySjsUl5KS8lJeT1nqFceo9R6z1eB15FZeCsvBWXgm34FJ+BPm+Rc/Bc/Bd8F3wN8hS+C/4L/gvLyvMvReiMkXovQmi9F6L0XIbLkXovRciqFJFyL0XIvQpIvRei9F6FJF6L0XockXovRei5Cki9FxcKRcXfGUO+D2I7LCfSLCft/OL6lj7/wCsff8A1j73+Mff/WPv/rH3/wBYvqWMu35xlsxbYw2x9/8AWM9so98Zdso98ZYauxHYXU8WR2xfbgyHfjHuUKFCgyhQoUKEdihQpwW7KcaCwYtsFu8Fm9jT2wlsR2WE9sZbx/OPvWPu/rH3v8Yrrf4x9+Pvx9+L6o4y7fnGWzG6QNHVbbTwh/74s+v6thOsv6xlsLGPfGeS3eMthcZqqI7HvxZDbGXbhLYhtxW7xkLGOK3xXU8GR2w92C3eb2IbYS2FhPti944+7H3YrqeK63j7nj7/AOsfdi+pYz7fnB/qIJ0K1iP/AB/0aabm6C4w7/njqdIoVNPk8ZbCxju8dTYUpSFKSdHgt3wlqWsi68JbCx9+LOa5kZVwlweC6njPYWMcfdj7sY7Ye7DvnLZkU6blJeSkvuKS8krqbnr8nr8nr8nq8jryPUeo9Z6/gdao9R6isvBWXg51Ky8FX4KvwVfg7lX4KvwV+C74K82XfDL/AIZf8Mv+GKXqZei9F6L0XK5lyL0XRLkVVxcvJcvJcvJVHK4qivF9Sxl2/OE1fqeg9n9Ht/o05U1SvGHf88dXZGn0nvXDWTceRDU9AtScZ+rZkthN3UJOhUerFOj4Qkm5UeOt0mnS0brMlKhGtOC6nwnC4S4S2Ftj7+LZUUqkTplhLbL3Yy2Ftit3j7sfdjHvg+pYd85bEdsJ4vdY+/H3YrqeK3eK6pYrqePuZRFEUXgoiiu/otRai1FqGlVFqLUWIsJItLfklHluakZQaaNPUclzO25N0nWvc+u/ItZ+RNvaRG7nzPV5PX5NW807rT1XHrKz8EqqdDUTcdiEm4Dk1JcibdNiMu1CUbq8j6jstFXTdUR1E1UvRei9E2mhwXZkbYITTZcvJdHyJ8yqPqxrQrwewmqF0fJVcG6I+ori+Pkrx2ZA1NiL5cZbCx92L2Ftit3i91i91it3g+2D3Wc9sZbrF9Sx9+K6njHqljHeWK6pYrqePvePv/rF9Sxn2/OGtGsWQdCSnO3nyJQtfMhpQouRavBQh3/PHV7Gn0nuXHV64cI8nJE1yTHJOBT0Jml3NVUkONTQ7xwlsURLm6CiiXN0RbRiXMoinqRaixFqHp17n0ZEdJlhYS0lU+i/IoNLcW+5a/JJEK+RqXkhd5PV5PV5HU9R6j1nrPUc6nqPUeo9RzFU9R6j1HqOdT1HqPWeo5nqPWes9Q7j1eT1+Sk/J6vJzqUl5KPyUfkafko/Ja/Jb8jiWlmM+2L6lj78V1vFdTxjvLGO8sY7yxXVLFdTx939YvqWM+35wn0lUpM0n2NdGk66ceMfdx1F6TRe6PcuLinwmmnUXOKHoeGW+mho15k9O4W5KDjK6IuMthukSC4akWnchSuYurhqqjI7caVieohdx1Ox6yNSXKVS9EpVNPudiHF7EdsXuso7Y+7GWMsfdhLbCW2ct1j7lj78V1PGO7xj3xh3/OMd5Yx3liup4+7F9Sxn2/OOvpNOqXI0dN8ma8LoH6ev0+MN5YST05XIWpGUo0xexHZY+7GWw02kLjRHu4NJ4Q2xl240HpoUKC3YyHfi9iG2Mt1lHF9SxljLbF9SwewtuL2Fk+pHq8FZeCsvBWXgq7ti6Xgul9pdL7S5/aJ+p8i74Lvgu+C74YnuXovRei5Ca5lyLkXIuXki0VRVFUVRErhHvjHd4rqePux9yxn2/OMtmR6VjHeWFCyKkqLF7Edsfdi9iO2PuWUNsZ5e4lsQwhtjLKPfF9SxnsLCWwtsJdsY7cWLbL34rqeMd3jHvjHChFciiKIoi1EUWotRYiyJGK5liLEWFnyxR35lnyy35Za/LLX5EnV8ykvJSXk9Xk9Xk51PWes9R6jncVl4Ky8FZeCr8EuxV+C5+C74LvgcuQpci5F6L0XITVWXLyXLyXLyVQ91iyO3Gq4d8WR2x9yyh3xnsLH3EmLCGMso7vGW6xlsLbB7EdsJYxwjtkut4x3ljDvjDGO2MdsbqKiFGXnCHf8AOMe/5xW8sfc8fcsZ9vzi9mR2XChTglzZRFqLV4LUNKqLUWIsRYi0UeRb8lPko29yFdqnOu5R+SkvJ6j1HqFU9RWXgrLwVfge6K/Bd8F3wXfBcJ7l6LkXIuRJqgpIuRci5eSq8jfMVCqKrjHGW2S3eLxYtsVsVRVFUSaLkXLyXIuQmuZci4uKlfjGG8sYd8YbYw2xjtjHbB7Gkq88YcHyE09uEe/5xW8sfc8fesZf+8XsyPSsVvLGW8cobcV1kuQnzWGpUi/SR2xe6yju+FChQa5CSLUWotRahpVRYi1FiLEWoSLUWIsRaNFpaWlpaU5lpYWFo0WlpYixFqFFULEWIsRahRVCxFqLV4GlQSRaiiKC3f8AFDvjDbBkOnBkdlgyO2DFthqPkafQuFeMNuE1WIq6citSHf8AOMd5Y+54+9Yz7YvYh0rFbyxl2yhtx9xPYjuiqK8JkCL5cXqJCkmS7ZR6njLYjtjLdZLd4y2Ftj7sZbCxjjHBkdsPdh3xZF8i5FyLkXIUlQuRcvJcvI2iNKFeL2Ftg9hbYPYW2GpuXqMUUnPdkYKJ9VV2Ll5IdI6yk+ZpTdbWay5Gk/SQ7/nGO8sV1PH3LGfb84vYh0rFdTxl2yhtxnubopRm7KpCdSexDuW1IylHkXJoZp7ksl1PF7ENsZdsl1PF7EdsfcsZbC2xj3xju8Y7Yd8PdjLYi+RUqVRWJWJWJ6T0npPSUiUiUiURRFEUKFChQpwoUOfk5+Tn5JJuY9F16izUXc+rM5tNnqfM0pScCrjMi29Xkajdr5Gi3R8hVXYr8F3wXfBd8Ce5cXFyLkJqrKoqipU92Mv/AHi9iPSsV1PGXb85Q46l1RPUHf3Ibk3Vml0ktiO5EoS5EebFGhLL3PFkNsZ5LqxZDbF7rF7EdsY7vFdTxj3we6we6xn0sjsuFwj3f0UKFChRFEURai1FqLUWotRaULS0tKFChT5KPyUfk5/VOY6lH9QUZqNCGnJXVNNSVUSi5diELOxqOVuxpXW7FX4KvwVfgr8Ffgr8Fxca0tiMk0iqKo5HpORyORRFEURQoWlCnyW/JT5Ofk5+T1eT1FGeo9RWRWXgdX2KvwXfBd8F3wXCZci5E2qEJIdCXIUTTZU2kdmKaJ7i5MqSy92UNsZ5e7FkdsXuso7Yrd4+7FbvB4PtjqbCJcIrkLqf/Zl1rhNS7GlGVzcspqoln9WN1vDXXpNLoRKSiqsjKMlVFChRFEURQtRai0tKCp5KfJR+Sj8lJeSkvJzPUeo9R6j1HMq/BV+CvwXfBcVKoqiqKxFSp6T0lIlkS1DhEUEPSR9L5JaZHl3N+5R+Tn5PUeo9RzOZ6isvBV+Cr8Cquxc/Bc/Bd8F3wN/BUuLi4uK8y5F6LkXIuQmVRci5FUNlUXIuRciqE1QuRci5FyKqpci5FyLivMuLvgu+C74K/Bc/BV+Cr8HM9R6j1FJFH5w1O3CRQRHd/wDZ1Bbfy605QpQlKU5ciE6rnuPr4a3QzS1qel7E+cGaMqH1G52onK0lrW/k09RTWb2ZpOmrxqv+hQoUKIoWlqLUWosRai0tLS35HpChTuUfkpLyeo9R6j1HM9Rz8FX4KvwVfgr8F3wXfBcVKlUVRVFUVRVFUcjkVR6Tkcjkcjkek5FYlYnpKxKxKoqisSqKoqi5FyLkXFxUqV+Cr8FX4KvwVl4PUeo9R6vJR+cJbx4Nqo/zwj3/AD/2WjnB/AnX+SUVJGj/AJaEod+5SX1KcNXoYoV0v7I6i+kQXokab/dRr9jTjdWpp/t6zX8EvTqCZqypE048qmzRrNpD1aQTIa0nLn/+wpwoUKFChQoUKFChQoULS1FEURRFChQoUKFP+q+tcHQVK8I7f9qhZ4PUV/j0/wD8j/8AvDVg1JTRHUufIaNONE/yT/Tpvk6EIWxoKLjrrxU1Y3R5GjFxjzNaPqjLN7Gpoteqpp6c2qpkpTpbI0uhGo/UjV6CT5IjFyadP/kHv4VN2uCfLYu+C74L/gv+C9F6L0Xouj5Ll5Ll5KryVRVFf+z9JX3caL/oai9LP076ka8eVT9O/Qa3JpmrqxcBw/aqaGoraeBOv/x/3jHUjWo9hbZUKFCiKFEURai1FqLUWotRaULS35KfJT5KPyUfkpLyeryeo9R6z1HqPV4Ky8FX4KvwV+C74K/BUuLkXIuRVFUVRUqV/glsaUWpOo+aNPTsqNVPowKcif6d19LNONsaf/CKcalRP/pe8bKojJMlt/8Ar6FEUKFEWotRai0tLS0p8lH5KPyUfkpLyeo9R6j1HqOfgq/BV+CvwXfBcXFyLkXIuRciqKlf/wB1XhQYtv8ApS88KcJ9v/htChQoWlqLS1FpQoUZR+Sj8nM9R6j1HqOZV+C5+Cr8F3wXfBcXFxcXIuRci5FyKoqVKlSpX/pt8a4Ni4VKlSqKouRci5FxcXfBV+Cr8HqwYuXLjLdf/KKFChQoURai1FpaWotRai0tLS0tLS0oULS0tLS0tLS0oMtLSwtLS0oWItRai1FqLUURRFEUKFP4pKonTfg+pf8A0PRlP5XcK5P+eha+x6i6Xgul4Ln9pe/tPqfB9T4Lz6h9RH1EXovRfHyXIuRciqKlf/oOX/ZoURQtRai1Fq8Fi8FiLEWIsRYWlvyW/Ja/Ja/JSXkpLyUn5PWes9ZWfgun4Lp+C+Xgvfgv+C/4L/gvL0XovRci5FyLl5Koqiv/ANO0KFCiKItRYixFqLEWIsLS35Lfktfko/JSXkpI9Z6z1lZFZ+C6Xgufgvfgvfgv+C8vL0XovRci5FyKoqVK/wD09QoiiKIoiiKIphVlWVZVlzKsqypX/wCDf//EACwQAAIBAwQCAgMAAwEBAQEBAAABERAhMSBRYXFBoZGxMIHwweHxQGDRUHD/2gAIAQEAAT8hYTGExhMTEIVPISIINnBFcF3oeNIvpozC1+RvakkknukkCIho6EtjpRM4e52ouBEIhEU9PTn30ekN8VJpiu6LT1V4dCEhkiy60op0P8pNEdzmM4oQOw5Igw4EfqRxI3iuQxUQlQEnLucysEwrupqlG5FnwPHwTspJ7i6XOcW8SNmH8Exfb0tuFZOtNseohhMYYTExCY3Ya37FVO/rR9mjB6f6dMmSTReDSmWw6ETTjcdib9iJAg8OyKQRp+UWFqMVy7irm6PW0Lb90SHp8kjMo5KJKTsOAnYSZ4Cukb6id2KwIUIEBUUEUjUFn1pyafd0JbTfcQcBwndiwt5HZHCiXlhLPwJnmkmXeuT863aOMk2pfmjHoZCFUQhUeH+Dkj37E0QEQLSECB1GcrE1E4O1Rou/Yggg8O9P3aPu0+1ozmGj0Kt0y71kb4B0UCJA9glscNMFZUCW6mJCKOIhtRB/jpWXWlfiks+tP+GlfT8QwfejEWj7tDw6OM4sWckMiYmeaYLtV83OiQEoQ6MdSyIVDCGESMFIQp6juWgnbWacLkt6IikhUCCNUxXen7vwj7Pwz2KyZxYJIbkBpDoidWTE7C92O5G47F10IKBCn2CFX2SSfwD/AA0I/wAdDFl1pX10+PWl46XhpWXWhn2VkzjWX4P9kVVl0NHlHFtEbTcS+bEn3aFNDQx6hCEMMIQjEtBCNU9E49SkjMnofHehmL7pNMu5JJNMX2SSSMvmRIECew7m3yTtpjcSncQicQkGviI0e7ozdVk11WR79hC1WRjw6GJkiZ/jp/w0/wCNZJG7KIkdzmGkXNQgR5EQZDk6nRkCF9DkOQ5hSDmOxJmMWhZ6Pd0ePVc3QrocXA0siekeohCEKohUMQqeDF96JMkk0FikU+zRn2q4Gx1QjuRJn2JbE7KyQd/JD3OxEVPYhsRX7dOwWh+p6fc0ZD0KKmUVG6fceBa86TpImiHmR3IkTqeSPAgcJOymICAYOxEcCjscRDYgJDRAhVyEEEUeFIIGmwkkoOIhsQ5HyZAQgLfCp+B4OcW8T+AF4MNFuHs6q6GOjohUQhCoQh8UKjxWmmXoikjWEyG5HenN2S2JbE7CU0Ie52HYJYQIbEUUaPs0ex+HZDBaPTJ0Z9qyPD0SaSY2NohuK+REgdGTDOVYnbT3I3DThc7kTgIbEKJCIqwX4RaHgkm60fcLRAeUiqlbLYy7af8AHQz7NanARKZZ+hviHkZT31TVjHpsYx0WBCEKohCGx2IIkSyRJWOA4KEcyNxPc/cRKOyBDYgMw/f4w1R6Fn2/hz7NIXjR6QqNCAyT7kToTkNwHgCDG+gcsjxuQpcQqUW8kEVz7VuRN6MnpsImSrITIbZNJZoZ3MklblxYOENW1MlCk+4mCRRniO5KuIqu4cCiFQq8jTEEPDEpj8iEZCJRMjcEIsVDQ8c+Dy70Z9tIwpAiJE/gSvgh5sPnuuH70mMdVgVEIVCFVJBISMGJZEEEaKxr9tDxpGCozB6Q9Nj0e1SSBIr5EdyJ1GNrCdlqkbh2LnciRICX7kECGD0jKLAmuVV8d6cuwiUMZQTYNaCkYFYiZknCRCrpGbERQOGRC3LoWBTIGZMiKU8hgkwIbCFJlAn5pYSEPSYaLjQtlGYhkTYLBkBFiohKuNP2LcCJl18O9GYwaBVShbzRn2q6GOjqqIQqFoSrmMFFTLtV06VEYCaDw6Eq5qqSA0hfwR3InVjtwx3CxO2mCmQS3O5EjsJnsgtRYYhMY0P7dc9Cp42sewkaXeGJNxryIpY4s7eR7aRuFI5LZInNZMuxIqxqS0rmSNJB7pkbSqSXvsNKeasgtryxUYncPZfzUup0HbWBPYTtP0os5EjnQkGRklGSVQDIyJRyQHZH6GAnbRT3DJBjlIbk80FVBDf6LtEsDqsuqNFunsdbUQhCEKhCLyhVFiiGfZrUoZQKhXIUTwTt8EvapOQyFztTEhZHgjsRR4MenwQJVN+WJyppmQtvzYlDNMShZolZjX7OhsWid3GRl4Eha2JTFVGGU0jH2JEyeSZkIiULcO8LCQ6Ka6NuWRezQ3sQqESRrs6khIdTARxI30ExDF/JGhwEdhLYEiNBhozGDRgxLaMhitHh2JEEU/xIRwHEISE0WMJ5RYwS6cDEqsEHhiuXE+Bzzy0OciX4L1OCeKeHVVl1psY9CohUIQqRl0JCNJMETqyVAaDhea8biHFSdyJERDFUIginn1pWDqrwTv4oxz12Y3Z65WpyMgkMMei1RFZScCJOXka68mUiwyixV+jRIoM8GdxUcExEhEB7wmmKFZVjgJ202ZbEKY7ulCS7FtECGxB496furJJiu9OQwWjIYtGDGs0PFJVzGAfvBSaSxoeIq4MxVaFT2Hti3SQYchGUUrMd5FHWfo1To6eaIQhUIVETJbQkEmwqmzyRRol2ePctlGTEsEjRiC43BWIkLZLENp6MtZMxgq5tjk0uPUyhk96GINOxmc14/BCp4jnBj2o02a6ECJ0JQt4J2E7aeUc7vknudiA1ENaECD0hPiIGiC4JbQtl3VU8O6STTBd0ka8yQ0YJJkeRY0ZTBUmiXGPQz7NDMH2LQce4QBWKwzGC/BHrzAxM9jV+CPiwiRebnNCR6bdHll1XRZohCEIQqZhCo/ZSVcEqbQJG8SUqg9zG1EECuCONi2hZFq2LzYZv4Kj1RVWXYvAiUIiGRDQhKIkDqPwjgJ21lg7+SW9RExJBAggforFPa0PRZBk8JRoS4WNGOnBd0iuOiYiZLMzGrbTVWzOPZoeRgJLErcbW4pN/JznMcxziLiDmOYcGRJN1JFSSCQJm4wMWjw7FSccCavKIkFNNWrMP0QkiK59640iImXnRPjMe2nKiEIQhCp5iq6DITcXKQibRARhEIeUjwxnG9heUhAD9/SQqUEoTIEC5RlsTsHRdHU/UjcchJe8HdkaC528C4W8URR/fSCKZu9KtHov8KZ91L/zIXLi8gVScaM4sLSLRgSTRDcR5EaUdhk1EhuFCJ+FAnYj9Bw5FZL0i5DsyEZYqi4DiOIRPYSbHAQ2IRCRC2IWxAabCG3YQaGTiHqeGQgW0Q3Z3ZPcTcfoTtQ2/IUcLDG7pFETKCaJ6kkCuFaLk0PFiqKrw3Yju2NOVUKhCEeGZuxMkgQicxzCKhDlkUpIbgHKfCCOUECMzYUPIlhSpd0KWIbEH2aMV3rsU9Y9TQ/S9P3MZRJNqlaH6tPtaftqrFiQb4yG5zHIJbC4M6M4CdhtBT2I3UUhayxJQ4jiETEULQlxipFDVhbdL571BLSlV6YzHRgKjMOM8QKoSOA4MhES40bksjKiIFJB2FZ64MwVMxgqx4NB+aumdUKhCEeCYdnRAS2x4FtENhJUEsiKRpP2fhmHZatlCY2V2DrQ9M+4WskPEt2LU0ffp+hkNyG5EifMndoC+EQTB5jZdNCIHAcR0M4lkQRTKYLRkFjRlMWjMYdHjTMy7fiCzFoyaGeXejExfg59q2UsNRAOsjXyPZR4ZhryAKkk5GtGdUIQhCMgtujJ1VGIqRT7NGXfTi+/xTWyE2/ImkWFSSUNqPQ945iBE2HkU0CaKzNrBavudqDs6YUFwcQk2IIPapFftEQQLd0eoRo2LrRkMWjKYB1W7oxaMHTS0YPusD1BZafHr8yYPTPDRgu6pD2KsS/khfJzQ6qdDHqIVCEKli/BvuFoxff4R9xJAhuKb7ECOx1ZINKC8keQRpiglpIJMJ7jsI0MWAtohsJV2jzAsRU+6sUeqJaPvERTMepo9AWzoggZmMVWDFmKipgzBaGtWklDagdKbkNyG9JgiWR5I7M6M7jhZPdWKSbgtQkJCSmB1ez3ncKDWZDmhyHMMopAzJaRV8OxV8u6M8HNXSxj00IQhCoYBUkyosSMp7HNQhsdWMSwTsOlOEh7kPcjmixpR2I7C/IQRX7aQiDMLQtAzHoxdoVWPTvdQqs+16MHp2YxVWPAmoIbnJQQ0KxWJ0CdowlAjdQdmPnTicQtse0Kc9kamKGp0pCSxFn8yAp0pgggQ2GJtTjuye8RYE8aLkmNIZR+YX6lRj0UIQhUIwLCEt5AQ9yRO5EicQoobVeHoWPCsDwY9Hv8A4cukstBmPRgu0KrH6HoenNoUsvJyUoC0mknJA1BdUOAShkhiW4huICSyzEZIhTAw0MxqqNZ9knikmmXaqXOKElQc4pm58D0kqHhUScwhtCYhKWxYyOmfasqwlh41kZApJY0+J2O1RKxFGhtLHBiF8yXUoSWsxO808+q+fWiCaw0hrUdMKIQhCEI8EIJV+zWJMxhqxfUiuD/Fr92j7NKy0GY6WJQ6az5OYidWS2HODwTtP0P0I3ibIT3EN2IOMW07eRKQGTGKab5Zh0PA1iRse6wxrMSQqKm4nTwWSMI5pFMdKkdi50IaJZciBCpasKcsX4ka1B1ZFNwrl+jnJge2LEIiGw9AOgHyk/YhLa54diERKJcbkGAqPbCSC30HmhYXgLawsFzdEFsDSjIYKr0GDL1HtHFst3HNQSmPHrQylosGOixVCEIQjPtQqPGmePVYMp6Qq/RowelPRtodJPs5jmoSLDyT3UEl1GQWuRuRG4kHyJVuQOAjsKox5IIq/W9P1iS00bMH26tIUkrS5lom2hrCSxDeh1EXQ8MB/AFVZ4EtsxA64aGRIsnSNShLEMS36DWYL5MW1JOIg6KbEmheRcGsiwkcEaC8dXGQ2LnIggSoVEjJTD9iwSLKYsfvVkBL8EQeXgkad6SxEYMxVZ5d1eiYQMGmrmoY6KiEIQhCPYoQh4MOj/DQ1wiBAgRJ9BcGS9iQaSxYRRG85BtmO7OxCkhp28kNiBB9iIIIpwZNDF9w0fctJo+gnRf+A/M/zl8yQnYbG6FOR7CXRLHBBEcaYteRvPwQ+9lZIqZJWz6IHmSGT8kgxi0eyOj8mdD2fZKOQ5DmEibuOWZFMKxzLoHcSkVeZyN5YK3JOSLKjbBGyNruhN4RAFSMF64lReeMSCaMhu1mX5BqUTGRkSe6o8kpGhZP1P0J2KivuQ1rB3kBbw0jI9vwTB91z7V8O9Ux0VULQFQLiLgxPuHALShCXEjcqJN5+DuyBEWmsQlYhsQQLLoiuboxUYsRn26T8piuPZWT7dEiEu7iVXgXENY2EyxJFym68mGeRzxLI+Lidx8EOyCaEoWhRPPQkGUXQbDtpZEPgISFtGpH5wuR4aR0Y7oeKZF3ke+T9ki7qFJbCSB5ElHEZuhixEOdo+g4cCnQO4/cW57oOIjsQFQQIEBfB5FEi1Y0KKf5C6EuMWjMYtJhowUsQHtC2d1G07CZNiHlMW4SjPtqZhYrgIMelCEIQjwEEqZBbdGXrRnMFo9LRm6MHR4tn70ilY3yjJRQZuEMjVIm5AgdlbVyx2qcH2aGgfDQkCU8EDMCO4+ReYIsN5IRKCvNmMxtJG+xgc48CzjLE9x0ZK3zA9ExnOArAshX2VJrsxMs5IZv0FFKAjXSUouiCSr2kfcazJbjMlyKO4HrRwjiIHgmfAxPnFSC5A5JryRRo+zQ9Wz4ZElr/gM0cURXMYKSkPdG1O5g0ZjFaIawI1KYHsaYjKBgQSAtJYmmjH2NjqkX4HsGAfgkrSOTDWQnTMYKroY9CEIQhCFiIQjMYBa1nMF+ETAJE96U5YEq8yRjj8DGdZQi4UxcWH4gvnLk1YkXCUX7isj3mJQ3OY5BksrzJZNLgzOmeZRiTKkgwlHQco7BhwUKHkjzS4hVFGxDYggYvtWDZGee5zjaqt8QuPcKmo8WbMs0InnXYlC2qzB96cu2h0DFnhChoFrd3MZmB7oddDFxiHaiIM6yMXiaRlByFaHTJSczMAxjSlib5j8ZYLW0RNIKG5AXDowMFX5F7QQvKBzNNk21MhLI2SRkWyRLY8Ee6NGWMr9GIgZOcFlQ2WbMWYGKrItQY9KEKhCProQjIYvwjWFqUkjXCahXLIHdDNi0AkoCyNPI50tyc2sIVg50LLL1YaXYpEn4hK245J2HZm+EXwjYENiGw0LaQQQL7ISrB6b0pS58LTmSnBwsnbRV18x/QLmYSImjwNScYJO8DEM2HNhXQk+A+zQxTZyeP7R7OlZ9EQ4J4t/BIjgYBC15SFafyRKXknZ2IZJdkb4tiUsMtq3gtSsTiEBiLF6ZQcIgAyQlbkotid2JpqSyJEolbkolbjMa4C27CwXYESP0jBsjkxLDZYpFhYEik8ueQi1CSIvDFSSELPJlGFWS3kY9KEIVCZmExchJuKayQVWobMXgM5tFJPG6F1I3ojdQJNw7sjzSQmEkYG1Qw5bCBDYmCBBFPtIriumhJUGFyw8pOKvBg0fYtPpOqU+Yoe5OVa9PJxKE5pmErXQlhXCo11tJY8EHt7PWqoIaseDApwDPu0ShRJ+RJmovTcqOUWgjydGdpPeJu/ZRyDksDHIR8AgoUHIjKRQui7kYlkd41ahtikPIiGKKtjRwnCcA8sHGcIihogBJvycZxnGcBLJ2Z2D3ojkuxMlDRt5NlY30jOBc5hWH0qitUUcbQ3LRMPDEXcyYeUMaHA+Ty0KMehCEIQhCSSQW0LZFMDZEIgihiuP7F+C5xY/KWHRpSX6hVeDBo+xafQdYkhWK0yNMhMsIH4lrMiSZ7l47DirEjVhtQOcwGLO0HwYIXiYFzmEPDOojcjgDCHJpI7uh4zyYx4OER2qUaP8AHT7eqWNCSmLcCXVo+78Uz7UiimmYtDwIbHFShWWLdGjwmcmGgg0PYLxwDW8k4rItn61Cx6UIQhCokIRgLRn30YrsWjLtoyi/BMWzR9bT6WhmHRh+yTkOEco0/QR2dNFkInsURAY4hHwhEUI+JPkbVyg7fkSUrHGRseTpIEU+zTi+9L/kLGhaTwrNMqIrkMNDxSjRk9OXTk0Mx0ZLSYIaEhVBwFmGLNiORE7A+G7EvTTY9KEKhCqCEeHYtH3aPu0/b+FWWg8CktzkRwqRzLydx0Z2UCdkJ2D9TuhqGBFB7kluI7sQkuzgOIhsQizoFejVPpkEVy76JRK+wWuYCKXlDJExkj2/enz7JoqZPT59aXiQQQQfdpyGDQ8GOhmTSvpp8tDMtDx70YmKuQwVHPyxKC0eUSeKMIUpZ0JQ9KEIQqZBCEZ9haMOxKIENxVuzlqENmb5knuJCSaF0fqfoRvoEn0DuOzO4ceBhW0caOBELbUvp6Hgwjriu1p+2LQvxoZJ5E2kWRb5JGv3PIA00qYXDF9maLIjS+KM8u6xT7PwCSRZ9aWS0ePenFmCJJW5KG0KeR7lJyHKKQQIECJC6tc5AsJcjmRzIhuSZqTTEVXjQYsxVeP4YMehCEIRI7vCNgE9qF0LvYVD5bzsENXmlxHEKps8kNiK+XejFd6fT0YP8Qj6Oh4MI64rtCpNPvi0eiid2zHb3eLmHpeRp8mXcRSuCfliJmSZLDGi1A67miaeXdFRsdKezmOY5jkEkuhHZnYdGTt8UMlO1H6jsYOyI2qhq0hzTuOzIbsapDCOM4CHwQ2EKnNjiRDYgihaGEEEI9kW/Q4CTwjjpxmKDk0Ds8CFNZc7DlGUZq8aDKrwFV7C+WSPShCEeBbPsSEKhSqz7tHt6cdB92n0VowZ6ehwLp0/W0PFNcvTF2hhuv2qKjE/WLZZI2yyLwJ1KJfsNOTsG++hzx5HRUI3qhYm/NBHkZR2JDsQ2IWxC2IEKKTup/h+AScw1hEjQzLoeNA4aFGv2q0ZdHgKkuGIQZ9qyPOkxIih9lkMSJSRKoy4UjqFIGmwnN2ODZsnohq8hAkfnQQKxVZsrYStkLShCEI8GH7EKj0Lwff+HZu3o+7T9bRkPV0SZHhEbofVJJRuSXYyI6494Scj4sZ4W4ZBmJ2I/Qagv4p1yEN38keRI/0HEcaOJENYKCaYti7xcg+8VLRR6aGRXpBSMTvIhK7FeRSubehwRPWKtfsSSDEcm/ocaHmLEYmCByguU2NYFkBGFC/Akp30CfZYnmqQ0YyVgkI8OxUY48BiKTi+ZJFGyaeaeYuYH+IkMpNIvfJEOyYE0koyVaJNkISEPaIFkRn5Q0xDIdu6kT4L6SNKEIQqPsoQqCq8Mw6jNGfdo+whucxzHKIl3IcnYTJtK8eKPEnY+SdqGSXbiDTCj5p2C3P4ZxlnAtqsDSTWEUbeCR8CKY9Gn6BKva7EpKVcKI0s7XY+cmiYpeRlK0JPUK5F2HtmXZe4pbayMM4UatWzMBMlhKkV1JErmhG1mBFm232IzsRKAWiS+KJCr9w1YVlwxJkJhNsjwXLJwLB9grDjwSyIaIRDWFq0USjHyQHYpQL8gh0O5ayCYiOTEVWNZ7MTBnwQ48qwsEKTaCCLIIJCuisPWFAIkkclAlIQqXga28SxbjbX7QK8LpTcxjEQkRQ7FymNR4PBGPQhCEI8MdIpNxbxyli5Fund8HVjsdw6F1YJ2iYcHcRtUfJJ8h3Eefmklh5OEhsQ2IF0XrHpVeB0BDPesHv0eG8Fw5Oj0jAElxOmD4aIx4jhQIwozcuyaZqypMlzcKn8xYmK0CfONat2RrgdGdzwPXFuMnyE7aG8uGXQLfJI0DEydGSfiPE3kVTFb9B5RURfbxgSrB5wsxOxbUl4d0gQJ6yUMiLFQhLcyYBi7MgSapQrafIrk4SPNjQk2UrCiyNsmWhIbMz/AEJd52EkWYuQisMZyTEFtGQn3HJJ7zsJFhnZT5DkQ3RDOQlVRYCK+FVX7hCR6QzStPA2bYuJ7j07fI0cuKOP1o6WPQhCEIeBLSUbIW0iGwlZ0IQQZjHodWBmP8pb1D0a5uhKHAlD9It7tgQTcvCHWWS8U98e4esekXfsJVZCWMxIT2e0dogtPyLxYCHQn9l65SaESNbjxT7BMrweFRrGxI4vOlqeyP6RLVeUXK2Rl3kihXEAxFaJTe45mYph2Q5KzgvQh/KgxJ2zZIoh/BIOi0il+qj4fySTqh3rBPpQ6TqsclnyT3D5CAR3YlJ5Hhw0nEOMNTZHER2EmxCoSIr4acxipFbAghHAI2ouE7juPAEbQi1ZC8pd6sznIbj3UwvgiIJgexeBM92RIJZ/YRA0Ogm04qWeY9KEIQh4MYhCYvoKuQx6H6NDwY9Hsafe0eoetSBYkSkNFiIQxZKyYqG82HKxGw8YqF3WZez1j0qNG+Vxaau5yIxOZJr89BiJpSuWG6CGjgUeJ/BH/QQm1ywJtKx/iyyEXJ2jExm402w55SKvQ1u5k7CO7O84zABbQ4jgI1L/AA0+4WCEjo0S0YGLQ6CCKvDTiLGjMY9GDMGmVYrciDx7IWxwkfDY2TQ/Rkh+syXFRY0XQy8icrShCEKhhEKn0C0L0tHh1oeDHo9zT7mmYOqWFKG7E2OCVKfA3U2hLwKjEvsMui+BBmEgh5DO2MxZYLLGBoNNwElQkX6GsZgbKMskP9h2fJxnELBQElsRX6VfYp7en3NWWhZ9aXh1py7FgECKucwWh41kX4dkMVow0jwx9DIYLQ8dGGh4ipBediSwxbszY6Lx0RpQhCFSwCEI+kQnTKYKSSty18+DiHCpHA7iyI4H8UkydBOdr5OlFNl5P6I5hMIXuCdGfk4iyE4YGlMMC2xBeCERojlgQR5SPS0Z6Bnjpeoq3Ayp7K0+/pfTLPrS9InsRoW8wRBBA0Y/vSshaPYFozGKsDMNDxpYMwaMGjEwrgLSY8TPRVQY9KoQqDwUIT2IQLkEdwq/VE1wkhXZ3fNHhFIWw4xxKhLhPipGs492hwxQ8F1vBnzPA/W9P2qszW35PS/DHjpestP0dPtfiqz60t6Tw70upGCJJQpj4GdYbEwrhxjlOU/mC9ZHZkP9FJ3k0XHNObXVsQg0HinD+aBtJb6xeRKlIbMfOILNFxCG54CdcDFaBY1LWi9nNcKHpQhCMDAQhUCrlMV1oWfWjN0elo+3pw7NGTtCpfs21tT7Ghn2NHoGC/NB6i0p6KWLEofKOMcE4dAkuk7/AIOL4EP9FImvkc6k4fyTtfI7WKCDlRCsCW7cW5J7yRP/AKB9IC77o8IwOPizG3iJNkQthKjx6rBBiLGh4LtLN6xBBAuSGxwjgEzuOWRtDe1CCMPKaJAyayNaryhU2NyCrDUQhCEYmCoQtPymC0ehoy9HraH6tDM3asn3r8MzJ2EMkb4BNErcQWvOKOvmO34I7fARuQJ8iB3Zfkdklij3CYiT+SF2tngsECRSKwHI/mvOLS7jnEjgRC2PQq2wO92dxfXUFW5GYtyK0KSexDoVGPjyYskkmoWkw0Mw/f5snSLQYVeDyo3eFQrNmRsmV8JjfKFvkHQVXQ9CEIQjExQhCpV+RrfAYNDx6rKHsBa9DgUnb8DkWeajv6s/qycazG50PYR/rHA+BtOI3r1XL7i4rY2A1LAgLdl3C4ZH91IFWexyI3jr6KOHEXa25gkRyMjpTwN6qSSqQAuGSFSUQWBM0uK0pEinwIRU3oicSMcZH5GUF+BFlkkzmRaM1Bgo0KThyM+2qLTYtDPu05NK/CWQxaMqmYvRhPKP1CSYwVXroQhHiMJNxbyOEKu7zWLnGF5yR/0VRcslqPF+SaCvpYSjj8H8kcukeGWCO7+TtoHBgIhYjtRB9KkEUy1RTN2rZW7L5rGCGgugBC0kezSdE0wPXQqemLukUFV8EOvLuy/rKJEsqKNi24oRXSsZEnmC+WxFSyGKSSNldh1Dwh8KJb0ekQSbCq4iMMFqMbsXKiSRjA/MmC6eg+sVEYaDI3mj+Q0R6/kMOnPtp/x/NYaRaLN1xMFTB6o9KEIR4didhbYtkLaQxgsi2kJNiDBd/hWUWF+AeHp30tPptDPPujYjIQayLIkQREevcPP/APApZwcjFmrxDuQvwCVPTQlhK08vJZzI8MuxMKw1RUu5ngck5XDLSMSvHgRumyLyETogd0SzDyh4MvZyXZEbU2H4ly+wu9guYQjvJJyovR0YMwmAlbje4dXFhZr1w5Kaghs/is0t4xrMitkOTXI/uzgE7RcdkTsR0E0ARVoJrocL5OH80DcFG5RMO8aXwzsOQ4g9xDW/BWVcGYKMw0npQhCH7KEKmPYVft0+5oyi0LPQyC/hx6K0Mzd0N2JfrIIPiCZtHCGC0tEEEOitFATpngVPTUgTGsyyYXaFdhWOMLYRjSWcQv8AOUXt5EsJ/A8snwQm6dF1bUU0NOZtpGZBBhV+xDh8iLCAxYtmMnIOF8UvOHNuHs3I/oyH+w5n8ljyXBnDWCahYjZY4kcBCJUyfZVEDVBP2MVVnpxEQxVzVI0CCFscSHRKG7Jb6Fx8CdglvobgTVHgxozz/CQhCEPGoqfZoz76V+T8L6GjJ0ehppaPXVJ5OQe0LsRHFHAsgzybHFmiXS4XA4AaSWyf+w3/APon9HSX+kF5PUw/3EyOS1K4lJTl2L/rEklfB3/JwUXGIZBwh1YC2RDYSfoI0f4VgU4i94VJ3CQgT2FRTGTJHmAskVVkks4gMatjeWh0sSTRy+CBT8FuwxDiGVRgNYeUNZVWlmGKvh3pyC0ZNGS0NIcBLwxCeUIDkmibyZNN6UIQqxOnimq+1rUo5B1GfJwjinAOQUkQ2fxXBKXlreO5/wBInZTb1XNrH9VWD/ixCM2R5O75pOGcUXZQh8CGxEWtoTIovoMq6CKI8aMqr7iGKDLpL1USxiyuzNPLqk0S1sIgJRCFpSkkORjNDx+whLDBLMg4h4QmCjaS42JIRWpuoNjdBim1jzwFckRriXkTsTuqdCjQ7hYj4mSEMwLQX9WjOjx7oq4i0eAtCz0eAq5IVcnRu8CJaR6UIQq2R1siYuwsIoCX+kcL4LjPJp0h/sxY5bydnzVZbDyLaHEIbEUsV9I9WkU9vT9fQ8aNAml93StMs6JJJF6qShYtdiGj3JTeHNhcJEb0+aLPSWDcWxhcywhqxMYo6UcK+cLupC1CkD8XENJp7mAkaLE2He40hZykIjhS6jIpAhjE5i6EbXgbeXCTQ7uLzhDL+FimS9gsIqvEgS0PAiamGjAWPwMBajFlVhaD0oQhVCCMhjEtYZ9j/DPraPQPU0ezp91aMGeno+4Wj7+nx0lnRAxngiVRcb3sIR4H7YdDFSwIe2WZK6vFjiGzojqaGIMPkiGKKm6GsJb0C98nWqypEvk8XAslT+mOXFEjuho2J+EozCE1fIbnGOAbpEUlETJtEuzI805FvpClhiklOv1SRFLjIa4g4wCZTsE7A71ZHRHVHRHVFi6RO0VUG0AoFQuSSKzkKLDr7hG4RKrgzBVxMKPRyX4RCEIVQhGU9QVX6tD0+Wm9rR6h6Wj2noYvz6MGevo+xafuafGiUStyVuhJO44xwiHQuhKYhAj4HedFkxS+zbHSWS6G3L2F205S2JdDwO48hEwmEbuM4G10XxaJ8S7ZI4Q2byVJdC5kSJbPwLG9D5Q+xsCdpg1gIs3Ob5Hf8nFSPuyi4xwDgDRJYhsQ2IWxBmMVSKMRSEhAqZdhaMS4iuDMUQQQLatCOBEhWoOZ/JLwSSNnKJ2qlduGQ1cTPJI8K+IqsehCEKmeojOYOhCp41MeDFo93T7mj0DBo+wStziH/aOGLS+VM+f4I/6CwySiZ2OWf2Zwfkfzyb0exj/WP5qhvL9Ey/syH+wsbhxUXDOKKaoDhD2xxiEtPgc93QG3KEF4IVGvUwigjRExTCSh8XqlmfakDv2SBCLJuOgsaHjX2CCKe3pyGD8Q8OxaM2keDDRgYEV8BVwMKpYRDhIeJGhj9WTWXFtCxVj0oQhGYYTEg6aNkOEcU4ZdvYcGi5fQ4/PwIIo+B/dUs6Ca/wCw4vyf9Cl4kZI2Pg/gj+iFHvYmL+TIf7Dt+Rx0WFszinFOIL8hFcnR6ejBdrT9/S/yCm6Nn+OiaZIZxAIZTsxXgLs3mrA2sPkIa8oTQFqC7aCIV6Mx/Esu+nMYtKzFowMNGGow0Mw0YCqzyqzy1VsYKrHpQhCEmREtkW0JqwW3FtxbU4QkxLBHYgQZhfiII/GVkFhaH9v4YyHp6PuWn3X/AOIQkyePQqOgmafEIjJkKyNwRU3HcibaIk4nMyxYuu2LzAMilG5C05UZj+9K+un7haMHqP8AHVJ2pNGY6fPT5aMTCrM3oydcRUSxjVjeXepCp5UIRguxCFq+To9b8Jx7NGYWj03+Es3R6Oj7Vp+5pf5ZS8CbRj6GpAy6a13sZchy28xV4ETOqTKJBlGQwQ9pTEWFTWfZPJKIbnIjcLBwjgHEOIbVmg5jlO34HF5LMzi+B/JUnYSvkcg51GhO6GxE7SdhOwSDXaRbqZN3E99dobMQmctFxhhYDKNCy0LOrwYUeDHRe6kI8GH7oQjPsIX4JPS0P7dObtplofuactBm6PQ0N7rT9uskobUHI4Rwzj0GVI7/AIOH4EP9FN5vATBtuFvz+TMPkL/oP5Mnb+Sdr5HdYjoGnTQYwUuQ9Xj4C2vwf0RE/wDyQsxxO8a0obk+RzP5Oz5HJ7rFxjhFhbwcI4hxEdhYCSMCu3ktR4FEl0yzPAVIoFoxZg05MjQsxaMpBC2OJD2EOq9DHdkt9AjeidiprZSFvi2hJhXz0JfShCPDqEI9kQq+1pGLrR4daftpKGm4xiyjjnAONRW7vjY/4JD/AFn91RUbH/Y/szhfJ/1hppDHWncR/pHG+CJfz2OR8V4/5MQpG+Sby/k4qDiHglg4xxIhsRqvCqCB/cRoe/ai0S0Zh7TDDFX3Rayy5aVEBHADmo7aMxZ/pl0Swfqa/eLA/BjVkmMT0PBirBA2m/w/CeDDR46HgQht8IahN4c7pm6Gl6D0oQh4IFgUPIRk4N8kW9F/1n9Gcb5MQud6JOyhuJYX+kOD8H9EfzRiTxQJh/JkYz8hRk4qLjiqQmUcM4kQ20EV+zoW4X4S75KM+5afZGoqv0UX4B4aX29OferaSlsckSPJWNDJOWBgMMWhNjMWtKl94LUIRSXNkXAMxFCQTGjaVfZMmHnqquLEPKdDMRfmF0SiA94WcjnOU5SGuInISZImjMnVZ6HpQhDyFsEISGaQqQYvv8OtEzFox6KuiJE1+1ozdHqEH7Jo7j7BEk09+k3r6LFo8dJ6Z9rTn3qhGmrCVeLjwJla+EJYCMf6FyiEMxZuJJObLZiyzLwZdkRsKrs+6tExoalQKIMTbnRkLBq4ntiR0V8RacXpWROh40aDQl4DsghS3IbulIHCcJwFvY4h8pxYWEYXmsTYYmF+OhCoYhCEeHQhU8H26MV2LQnxaMHp2HRV0SJKiolu/R6h6ZGdGMdPtUZdU+NkUmnj+MlnR9lWy6cnhNyEXAkSo8JMkWhMFNeSIDkWWMURXmryS25K3QyyHEOEOKgJkbQy10R0pQcxyUYmEZfEiSw/gjs/gjt8BkkDsO0lvJbye8YpuJb6BPeS3E7TsoO4arwxMqEyTwxXz6CaeH8CBtq4icQ4RzCZmuItM2ZRuIHdFKquD8KEIxMUIVPoEKjwzF+EetoyaNB9arIMulj2aH5JnYVK6SwX/tVQ2j3S3ByI4RxiVSoh107fg7fgjFwx/JEwmHPHGecH9mcH5OH8kkbGqaAR/oC2ymdjh/B/JH9EOVtw8giCkxkGYVkTJtcvIvyfyNf9hiJ+RcvydvyXCLsnDQrj4TgZvFDt3WRBHfQOPgPEcLSFDIlEEUaVBnPLpBBnbMkfH4o6W0h7USZGqi3kSIIp4i4EBDYNNhCSG7HtY5wkFbk4FCxoQ+GcpDdDJQ2Nl3hmYyZhfgQhGNCEIz9CEIyaRn3JIbkN0cghOng4I9icMhYHEQl/0O74Zw/AW1uW2hEnO+RSH+qRbb5P+kTsMjZcPIj/AFiNn4H/AMBeDMjQ0WOdRplCssju/k5H8nb8nCJWfNNxjjHAQSY8MsQqLCVHSQRT03VdLDJE0e9pxXdZJMxi04vsyNpBr4R4SgkuK8wk+KNpEPfyeAnkCXkbjY99mQU3uykyYBLQ/wCO2aFHsJsiRDROGeAqri2ErcjIwPRi6kDVH6G7wh42WxLUwHjK/AhCEjxEt4gr/lF/wUcRyIQHFN+4U0fsOb5Hb8nb8i6d2KiXDFsR2dLHEOEcSFUreBVi8URT2KRX0GnL2L1U7PgyPmy0PZ2iNHtDRl1Z67IsXt1V+t1dOLEyG3FLw9Q9yjbwtX7NOTrSmJVnuJkdzHGp/honRHcWvu9zAYL0o0ZZlH2UgZssktkPTvMoWFgiqMuhCHaRKrkHsEN5ifh1EhNiHZCSifIzhi5DJphUa3DDwNYk8n7HXEw1pCQkJGQQQQqdLQvW0exp97R6R634Q9Jp+5oj5mTrvcrA5g1K6N9KxuI0O78FuVYR71cSmWHrQ9ZiVa8mU9hEr5iCurin3sxLK0TiIzeECwJqH8Fj2NP2UYqYPSkJLHo4A9hCSlGXHMU5lqAqXh4mnFFCQioqTzQkrM+yrGT5iaV1VEsxbKwQL61jQk3kWH3JJJGSVl6UiRQ5gWsoyDWQ7UhbBxCAM02xUZ5dkCLMlxS8gIGtuLYVMWYtSQkJCQkJ8gggqe6IVZ6H4dn20eoeto9vT6q0M+96MjuYPPbijOuGK7Qp6jJyY9uukLWW5eOS6S1BG4qgD0K3djzHeB4MRmnkQ+glzmRiR+bCJItDnUMiaik6bGMXsk6xUwY1hNY0kSq5FiYYZLcqIg0pErjwbPmGdina4mzHgyzRrsTcJhJuiPwOEcAfWDgnBOAPaC0jwN2cxyk/kbxRUu/4O8XMZtFNCR7sUeRcKGJjPidNux0h3EQ5Yh2XkhlYDiwJ8hLJoRBIoWpJZa4q5MewWFSdCUueSBGSY8GFHjSQJCRAkJUYoSFTPuIVZg6/MdsFWR/fVunqrT970emYe3R4OB1JenaoI43ti0yFawqvYGiZqJHFQwLXIrjEbnaCY5bEAnBJkoJXEsRQjYjlj0yLne8CoHoSrknK+Rv/ADj+LJ2vkc7WuxcMA+RZUZboj/SI2/gVX/wpyf3Ry/g5ZzBrFMP7OmYpyyboIktj/oHN8jkfyNPIcBwVAXaEQVYccUZwPFjiEChHEjiOIhsKvAwIIo0Y0gijwJQ1gSlggxqBQk0oFRgUvAiVhUYOEcI4xwIa8I4lBwkIWa9VEAssQRxWFZBJ5ngbEK8iR3GU1mp6UCQkJCQkQNGhNbia3IbiFzWRbI4RxRloQUOJxq/OM5tB3/B3fBwv4OB/BFO4fzRIJgxtcjZYX/efwZ0/JtU38nWr1/oBPLOj/gH90fwQ9yTmK4vIUv8AefxZ/nwJdLfRnJ8js+TFW3CpJO12Q+UcM45wSWKFyfwFEQcSIH3iFVNgJH76fZeiyrtkK5RCjJFRk6WdROm4tHv6cnVclw4o1BlYRaDaG9iVvoWwLDck3wVW0bMiK4GGhnnowrOClkyqETFIkrKuEcQzJN2bRa4MzJ6SECQkJEDkiFRJbA4A0nKZFsTinCFMULaENkQtiEf4UgggxfdYEvEEV9B6foaGYqyMhyFWhGhgu9Pt1WMjp9ulzwTDEMVrOjOebIYUke6KrpJ2yhiwFYlDHttXOTK9iV+VGQfZogW4rMzq4oas6QffSCKZDHSSbpWfVZFeLl4ZiirB5CQoJb1CiJujCKkGYxVWPGKaZBGIS1cgiaPBgNlxaUGhmDYh0EtJkXidUIEhBBISErBIgVPu0fYL8J92jKLR6D0/Q0Mw/ujRFBgtGDsk9q5ZMgaBSLcSvyPTO4l/yE5PbdILXfB5N2ffHgYrnMkJmvKtw13YjwdxV2QzrZ91ZosuhNYZ8nBDnRhkH9tM2dtLJFn4GTY4Dy1EW4wVY1ZCxJ7ilQllXIYKsW9lh8vAkmbeazPIYR1SUMZxBCTYkeERhThsWkNEHqs7BNECkhpkE60cPUEhKkH0iVXhmPRiu9Ky0sf4X0np+rofkw6QsLQtjkeRNB3bHwXnaLhW6wDeTsM9xB6lJjxQ9ckO7VJRwNL7Gfa1QtFt5TqzmDeOrMX3p/xJo4eUM+I6HQhyHEyHwonvSZURnEwv8k+RBLehUcQciIbjqVyArohujiHMjkQmsxxjhEnlCe5ELXGRrcIbkrcZQxxKJW4leSyISpQ14SPZCaPIRppQkoYAZAmgskoHkUICdhHhBKUMlW02DSUy5CxUwPzFTANCdIoSIrFMqvIXQZ99Pq6HhmPR9i0v1afd04qyZRNEkrdEN0Kt2iDkdoWYSyxKCFcC0P7HWXA2okVRPklOx3/B2fA9r4D+vAjLkTCdAOUPvHc/mz+DON8nD+SLdLNUMh2CTS0PnITiR+jgfB/BUcB43OT8HPOUT3nglgmy/kz+DP4MSF5Ibsju/khuzuO8dR3HacBxDQiNAo4g4WHEHEOIcQ4RgwLZHCONHGElgtnAoqtnDgcWDhOIU0EkvIpCgbPBD4o9g13Ed2SgmQMaqdYHD+COJYuhB40Uyak0yG8JkwKyMFPHumGXIIEQQRREg7Pg7Pg4PgTJ/QLJ9BD/AFH8kfzRI91Uu55yPkkZ/oz+zP4scGHyNFCE7ROygsqYydh3R1fBG18H70H8kf3Ryfg5w9dZpMh/qyP+8UX7Dn+R/JkPh/I2tIQuGcM4pZW8ob8qJHj8HAIbCP2HAJdqIR7LIIpAkdpFYM6EEEH3EEEEGUlsBLR92nw6rBAt4lYgijPu1+CCBqzFEEEEEW9acxehiqzH8TBWBXcWhiYUgwEkwvOlA04gtw9DuiMBMggSIIIq4EEjOel+BQexozdHpUin0/xXu6Hh6mMFo+pp9rT7P4u+kLRlFozdatl30vAWjOYNOffT7Ol6h6TIK4e1WfdpeGnNCqkTB46MR7B72gjBmNfCuIsURBBGiBZfcgSpnPWq9W9zR6h6X5tZaB4erBYWj6miKctHv66dJPpaEZBE1yah7OiBAS0ZTFoZ7On7tLPL8WxdNIfR7mvPAxtngkYsTIDb2RTY1iRcECkCrNj7ObbDkydMxiofDIpIvBXG54sTihDBmKmWuBPbRlMGh+nTl30ekep+GFpstBg9WmC0fYqQJUUC0e9rh1w6qxTMLC0YPUPZ/Eshi/F/HsS0/dpXSYOhbcT/AALOhs+YXETcBosNeh4cbjuB25YuRRZVMblSJR4YsJSYHFFAPMYchBmFHWCKQMxfejKLC0eHX4ssHWj3qzpCdSwZvCB2IbjLIKJXRxDjHALezJxaFwzhjvI0x7Ptnycz+Dv+D+iJfHwEN2uz2I/6CP8ArP5qlwb1SLlHPG3Fj/8AZ/dn9mcL5LGPyPgQknUTspLsB3HcRuEEsLojYI2fgjZ+CNv4EkkIyaT8aQBzjlHKOYKLMRE6BS3kia27iZSpBPeRRcS3k95LeS3jeMhjWQwsx1ZnMHuxJ0pzafniFFZ86FkFiuPIxKDUjxOUWIaG2Q1kkFSRPPMUbFOPqIJzjCwbSuYItjKkSsNMeRlTz7pBGrBitk7n9Wcf5OJ8kC6/J/0D/pE/7pIdm6KPauyRWTOxH+scL4OD8CI0+h/BH9kcr4Ob8EDno7qkdgmf1Z/Vn9WR/wBhcTedz/uH9mfwY1Lz8jDmq58MbYQ3kOBTuCLWJk4RwziENhUKGxDYhEHsEUimdCK4umnIYLQzDqsfhuYx6cunKYKsa9496TMaYoepiLBFcxi0yxoWdIWxDYvLHCOEe4xS8hJPdE5c/hzGHR9mn0NOPRkpFftafUWnDs0Zj09MWFo+h+AL0StfZaT7lodBi60P8f8ALvpwZh0rLrTnMV+JYixoZ590WxY1jIYND3CnQ0InJZiYDFbI7KiCOyPuZ02efdVn+HL1pmem9HQ8PSvt0v1vT9LT7DR6x69WZhY0fU1g17vTbOS3nGqstLj7Wqetp+x6fS0/YLQ8Mw6f8dOUw9aVnqsNOVDHZ65mMVWhDtl7GawzdxlMDB0L50yDEJSwSWZMUwCozJ/k2B62jH50TpOTTsV00v1afq6GZe1WNvnLBlGjMLR9A8Fl+9tIYGJDJvs3P46H2rT6R6WnJ3py9afDv8c8ehaMxj0/46c5i0PRGrCfgzQtGD0FyEhlRVh3TLW0PFKFMqIjAlQjIp496FlXI/DlPW0NbG01hYpgx27yj3tHrHrVbSHBUml/jo8o2R7vzWZNjV4YmVPyySItjFT3cjrIsErc5DkQ6lc4xxjhHDHMGThi07s3EyDccQnWsnFNhGZhdDy2D72nQcno5jv+Bi0d3wcb+Di+BwfAVgedhJ/o0aSbai0paQMpM3mMRqbvUm5xyjK2i04c0q+n+LGy8UfyZx/k4JwxuLyOAcKiSRuOEPgSOBHCOETtHEidonaJ2CdgfIhAVhxT+7OH80TSaTLW4FoT/Y0KPyDkDiU6YyeGN80hJSTH8Ebp8Hf8HIcpFUGUQ5kQ3QxaEi1fHv8AC5sKwja+CP8AWGv9YWJJYtl8H9Ef1Q1uKSZDzOWPcHNEGuGUu0VDSIjtECvvisf2Z/Jn8GLBLxuR3+RzfI5PkIJ4Etk5GXW2JEEduXySeH8jaiBxNjFcrdQsFcTzZRcQUkQpEXhDhnGOKcQSwWThDahoOULM4EKsPkSbCNj2yBMQ/DjB99EV9Y9Krp9gyKIP8dOAtP3abdK8UkiPwLFmLT5acgQ1p8u9OTRBkyCKFsTeEcKmz6xCWaTkjSx0H6jQuhfg+4WKsy9hbVnQm3DI3I3u1E1vVYuqMb/mIkiJW6I1WyI3RVXqLFfIjhD8DXMBNe70fvA9ymeMAdHsBpO1j9rKoh7fJ6h6RcpbD0s1hBFxPouWh6HkrMX2ikdCVw7xoQVcGKWnkktfenvUbHOOBjgwipXL0+jSfwD0j0Kui+2n/DTmFjT92nPuJ6GYvsX4Zg9V/jpyEiMV0PRl20r6acmjEwqtmYquSrmMNcjWXZJJIxW/gaeTZQ7NLhFfiMmDw0PEwSEsUFlDy/G5mGHmejF1VFpvwe4Jc2CauvUOawPKxTXMPDhELgxb/oSmvAQQJcqRrSlHvocMXQx3E8h2F5iSF7EvvLlHAUoL38AluLC1dslsjsJHh5FhHsUgk0J8jOttTvq0YqZBNHrHoVYjPvRk0eHWh02CJ0ez+OfYLRl20syd/iGQxjki4T1p6Sz0ZDFXBmLRVMWYNTp9gtOS1xcXFtImeng3rwpEhTwxk683FqngWiTY6kMFXyBLKD3LS/Ych16ciHIn4Rcuwx4sCRFmkeDLChvIXxoLA8sj4GQ5IYhe7zRIa5LwZThcWFTvq5FoJmNkDo5B7vIxj7oK4kMguTF6fvtPer6QhE+bXYrkMFozdaI6Z96Or02YwX4OqYrvV7ItHj2LQzy70+zpdaB7SzItN4/h4PRPBholijG/KimK2loi8O47wIIWiTDJ+DF78GIuZYuBORRQWiPirAIhxTlfJIZQuyaUKU6SfaSQ3JW56wyXPByIhuiRO6JIqC9OlwLeRxDkQrtrTKOMcY4BxBU3rJwjhDDPGDjGRnCOEWohdLWTOFk4hwDgHFHcWkAA6oQMnIPeOYc64mik5TmOQW8Ku7yco945jlHFdPkO2nAZAWn3SmZ30Vy00v8AbUeaU7hb5znKcowsiDmOY5DlEm76Ipzj0XOfRtGJJZpuIcQbvAlWGLzM4RxDiDKFzkRyHIShxAmrMKsz7VwZgqIRfPYlrQJPOgSCZSXJKoFamU6MP5M/gyP+4TbcEv8AsOb5HN8jm+RGy+Nzt+Tt+Ts+afQGISXgdTQ4h7IgtrRFlIh0ScM4ZxxSxEccvYnDOAJ4rjhHFOKcYwhHGOMcE4QqVjc4kcQmwYsOUhuSm2SyyGxwI4EQ2FXiIWxDYhEIRSsIoRBC2IGrOkghEIilhEECBDggggW7o9AggggVCCCKSViCCKEpoIIQtxgQiKIEKGxDYhsQEUCTYhsR2OI4hVc4jiRxKgaRscIfjLfBiQWkI4TjOA4RBq1PvOwjuySbiW85lGpXAjaO6H1NgiQFuTJ63qGffR6mlZ6ZZaX3jmA8uZmmQ9PSF+Aiv3rTnpve0/eqyOZG6LybUkWrKiwdaHhmCi0FaPf05tMYs+tOcwX4hmMWlZarF+ZSEWxLcQ5EfKJfI6sLRnVKIHuMthDblmQyEqLP8Hj1+KBfg0e9p9Nacnb0egejpmC0Yrtf+MrIue/oRj1DenYLoVWYKLQ0TXLvpyGHT/jq2LrSsutOQx/i5DB+IePYtJNqQjhFIXKc6vSkUWW4gWtiOxFPKrxpOpfTQ8H36Mosf+J89I9LRmFo+pp9j81aPe0/WotEwVHoY0IUKuffS8MbpxI1Keh49UWhYdP+GnMY/wASyfjuAsabDSYfgvDQsvzzYMx6L/20v0afZFSRuxatZpsF0STVlEohuQ3ppRK3IbkrcdZSG5Dc5EQ3IHJJJKo5JQ2tyaaUWFBK3LwUbltyVuStyIQhEolEqkSmiVuStyaCikqn2EkkjPAxbv5IeX60PSZjHpeOnBmHVloeDAnQ8NQsaMdNmMNDw0eOv4di1+Qkd/kcz+Tm+Qkzl/I4jl/J3/J3fJ2fIpGcnf8AJ3/J3/J2mNwd3yd9HjHP2OA4zjGpMcsHGcBwDS0T+DhOKmRVl5OHRNnSx50hLIrjNGzrb0zho0QDjHFQcJwHHRIWdOACOGkAo2IH1HionEcAmuvJxHFQcBOyjwcBwHAcImkfMHHpXkyTFLiHbWGsRHkhydx3DSMslyZHdkdw13Y4FtwYFLrJ2nYPkJVkT3kilvJbxidzJ7jmnNJ7zmjn5HLOfX9qC+nElI3C8NRcA0FqzRG0RsEbhZ8GzFCdgnahuasOEcP5rQ5JLeS3jsWZHn4O4aQtEUZl3rFN6Wj3NK9GnF6GY9LRmFox6KKiQnzC0fe0Mf36ZjUmxOR+DY9B4FvechtszA0WWXdJaTuRchNNWrk7o3SFyUWXWm06C04PsSG/f4c8H21wEltk7olax0hmL70/YJLTlpNftpzGLQ9LDSeHdIotwsIimdEC3GC1Mx7aMgsL80/36PWPW0ZtP1qKvsafsaIGvjehSykXMqSy4CIFvX2tOLujhlhJIr3Gh6MV2JTcloSCbuiVyJ5E05GAJSYnr4kZQS1jdFjwRfmVIqNHxHlNOIW56Mg247tDO0SEp1+yrIGP3LQhoo+ykTg3CR5QsaVJ5qRMSNDq1/JFGSDAvANGtR9mhmL70YoVcxir4VwZi1YM+/Sr8pDwY9HrGC0fZpz6NPsafsaX6nR0bSuyBMpE52Yg/T2dfeFVH30tZwfAi2O0Rq6JHnyJLp+EMbyETLIlVbWpEE0MhTB5Q7G2DI3t+VIkbr5PBiiGcOBcSJDxplopBERzE3gShV0siueODxHYTp9lbExq0XDkhRZ0Q5967BoHgwWoLaSZDaWQqBXa4k2YkKQjK5O5j+GM8tNgqvD0GIsUY1tTXGOk0wXaFofo0+xowenZRYWjFdNORMQqfc0/b0v0aOTCd02PTZtc7198VGIxdoVFXRcEkmeA7w35Ik8C4eRHZYHMTGKPspEjiVYeT5EZ3XgyQawEAVJndXH3Gtpy7kJYVE2QQTVbyWoShKYVMu9c4ksLKdl+AdGo5OU9AzRKWDyMVcGS2MUg9EBBRQRJgh0PLStJnoZDFaMP3XAWK/ZqyDyHed53i3ldl3yd53/J3/JgcHedp2nceQZO/wCTv+Ts+RrTyPJk7DuOwSmO47Pk7vk5mLXlk7vk5H8nI/kju/kVkd2cnyOb5H/YIf7BCXLuR/2Ef9hH/YfwZYpZ/Zn8mP8A7j+zHbXiov5OgmDtmxIs5JOEwfkZqAT3nMEFnk5BCUpyhqBrkldgbSNMErFedN/ZV/gnB+Dg/BwSNgmJaEcNEbx3oP1LjiKE1ITVspZJ2hLUBPUAy8qvrkDMmIEjHJ1Wz3iZM5Et5JlzBSMxvGRAlcd1FMsjgYl5JkIiRem5DZl6YYlryIS8nccTON0kqTu0VXDo8pynOJDHKc5zkHJDVznOFRLzYcY5kNNxEZIEoWozCW9aPZ/EmGgzHraM+n62n2tCPtaXpH6Hp+zSCNIRT7xaPWPR/HAS0ZTF+REEEEafAt4lkQQRTypBBC2FuL1IIIQLYeIkQQQJZ0IIIIoIIIIRBSEIgQIRgQ2Og0ETwIbHAcQpljgOA4DYnGcRc1+Lr8N9XTn70esYutH2fi3uaftVUhEyJpE9x/fp+oWj7X4g+4WNGbVvc/E8hg/GBfiecx6f8dOGlpqfB6pZacOl4aGY/v8AB8qrfXLC0P1fhDMWj0jBaMF3+cJ9qqH34Gs3yH6Hpfq0/b1AtGYWjJq3vfi+Yw9aVl1pymCFo9LTlMGiB6Z4MP3W6AjLsLRgY6f8dQX4EzPt+Asvw/ByLR/hp9nQ8GLRnFo+zT734i6eDPJyX0P0aX6NDaSliVenLTZhY0ZNU95fimbVvLoWjIYhaPLrTmMX4qzy7EqXl5pC2piuxaGeXenBp8OxaMwvztWtVyeTsOw538nM/khNS8HI/k5H8n/YIb/IQ07vJH/YQ3+RD/YOCdxOmwQ/2H8HSQ5DupJFLeRO9knvJ7ye8lvEcUjmHOOccwcMeScyl/shwGZ/VEN/4FieRJUkpkQ+UHB+CNgjZ+CNoxXWDsjtRPgiLLkkJCeB1Q08Mk7UTtE7BwB55Q4Rxfk4vyfwY4mYeK5Oec4crs5BOslIyREIbMhszgY0aeRRJUec5SBw7jJ2UHOc5zjCdyCri2RxD/vHHMiOBbIhuiG5KMGPYQmKJJPcFWRszComOTn40S059qzrWAtHh3pWXWjPtoeAvx967m70eketo+zT7Gn7uiB+nT9FEuMe4wMLaGqLlzfA0Jo/UKuQSOmjmUGefxTMlVmYTXJ7yDiSih4eiRpkEHs0gggcQYyCEQGEYmJB8Boh8UlgssJKxSOHnDuMGWNYBG6+cdN0gNd4E3k7DsIHIl3ZDdkd2d2dmXClnYNQ5CbeS3jkshPuOac05tKjl3OYc05pzxEa0nyYZWj/ANgBaDSY0YkqrRISWXooKNQ/V+FvDPu0j1NGHRp9/T9mqo/Tp8OqIRtuBCpMl0dkWSLsW97BY8Cp9Wj7tChpZoyrnFgnHkSJYwW7GzwKxU+CTWNH19FjdDqsm4q2Jj5Jg0TJaqsECWYiFE7yBuEX4sMce1OfyKjPuHgtbVGF2Mmg9lGiRah3JTIY9OTT49i0ZjFaMhgvwLIYV8e/wq/66c++jIYNGYWFo+tp+xpfoel1ip4UOrFZTUwhqzMDhjNV4yXs4FT6tCS4/wANJfqO0TiuvyYWwCBpLyeqZtsRuEYZE5R9+n0VoylvaKsagku9PgWq5ES1KsxplG5CWCbaY92h6lXHciHJBS6hySib/cVfsplothojSxZIbwQpITQs+qZBqMxj0/46cTDRmMGjFmLSFXMYtAvweppw7aM2rK0ezp+zp8dLx0v8K2NyqSbwaHRg8APFfHrRJa8CkTZtCGNoLKcm5F2bI4k5pFhDnpkQ5r5PCoSKArpbjyr0L0IVbED/AGAq3e8JDz8CFnkOyN1mQIEhDeBblFgK4T4CyggdxOHsiWGJXNIaM+9HUksehXFUK1PHqmDMmqYat46vBoeNNhpPHvRgYK5jBfgQf9HRfyZMnNTMlUgElmKBXHLOQcoRV/Ok/sj+yP5oSgODjZI2iIrrBGwQSN47jomK1O0TtE+NYEwSbg/Jw/k7OD+TP7MbV2ygbbv8Rb85pyCW8bwcsHdXTsGSYuZhGzgYpEHDQuT4E/Kg35E1ukjmG3uKFXpuU4VE8qnzRDjHMjkE1PogJ8kiA3kZCXkWCaMcCqH3oUrTGh3rGAsiN/WBBDI2SIc5LXNyBQ3b9FbqRVTCnu08oqZxITS8RDqGY1nWshi04aHqhVeiwZi1sy76HgwaM56n4Ymk8OtKyogVFl1pWsIr/gRSKKcq3MAIggg+sJEEENhQRQOI4jiRxCR1vImkorBxmNHg4zjqiSSG7O7pJ7yW8e8mTmnKr7O5PyKoSjciN6MkQfqfqdETtDZl50AWOpgQCxA5JzRPvJ7yVrMsK47CG4hsyGzHaZxM7BBvuorVXlOcS2jnOU5TnG5ZEEjnOU5zlEZ7OU5TlGKcnPXXEKgdlJCcnYR5IciEsMjszu0s+7Rm07MYL8I+3+IWektIWX4h4f8AgHbF1pyd/jFaGZ9tP2C0/ZSKQYrsRBAlpg6ooIriy5CCCCDPsJGAl+xC2IQlxAgQIC4IbEdiGxAaQIhDYhsQIQngIEIhbECEtEEIgVQxbCCCDCIIp5d0jTkMnejKelo+88fhx+h6I1S/FEWXWlfTT4dfi31tWdKth6d15Jrg+1WhDhDDcQlrzpZzDTn304LvV7urwrKonGRfTTgxtL7hDhI/AmOkzDTl/CMNMsvxjMWLoe8wWjDtp97T49aVn1p9PT6q0r1aVlpf46ft/hTKzcyNXtbF7iWkMlF9QeApGxGlPalq5zBfibx+5iqYZ0/xBDmmcwWhnj1pwZcgR+dGK7PAkiX4UYLQzy7/ABP8dDM3ejx6q/wXKG0KGiXBL/iRskbBG0ec1kXNH6k8CQbxpJ2onYjhUE+NTGkLBNztQ80nvO0VxD0ZKAIkh+DgZ3/B3nOKck5zlOY5C9c+DjHCOEchPwHMQ3JRKG9pJJJJ9SrcIvu45ZC8QnusJNScEsPopd66uZLyiaAynGoHpK3IiszJKggoeraLgQtKiZpPQHwgiSpnMXWnw6rANyAKmnbyfEJzoljSs9OYxafc0+Gnw059/wAAevnEtpFMF2tPv6Xh0LQs+tP1SPweD6miBV8ZC2IRC2IQl8RwI4jiHEbAcBwnGcBCjipdhDkSou8ndncXN49pjZcRljBYUhth7IUyCYPIgo2jBLRZYG4MTBOxHAEchk4bI41iwwg0bVLZEu4eCcoa/uRKRO52HbRh5sEkLyyYNi2RxBEzmoUNyUZhZLnEE7ySSDJUYnUMshDB7PsSZEyE0yGC/FzGL/0ZL59vyCWNHu/i/wDhp9LT9DT7X55V6Pzgw6KtEO4kZInCxjoLhFyUW2EiwhKy2YeVH66reGk1Ah3RidJjAuQuW4hGuB2pPGCCCBFIsCWwksHghZiLeBxYGn7hbZwjiI6aHIS7sS7s7sgLu4/EIBMk2UqN68iMnECEUugJGkVm7FZZndHZHZH6jt4k/U/Wj9B2lux+hOxE8SeBmwfqfqfofqO9YP1P0I3I7owS0dRGwcAgI89xVKaiHMOSdhFF3kjuyHOn7PxXw60+h+K+9p9jT734p6f544dGjMxbGYqZ4Y9NJkw4rn2q5vHgt7DHXfpvxSIFO4sLgfIv4QiJGvIqN4Ev6IKdoaVXKQh5SD5SEHY+gghGkNKOjwyVnI4vDJMyIYjdhCbj+YloJ/kXYi0PIydcxgIrAhLQ1bVf4afDvT496fHrRkFhaBfjb9WlZdfivs6c++nLTe5+JeutP+Gn7enDo0O5N02Lv7LwldFomoh19irI6SiQAtGY9asXp/jpyEQ/sS1Yng8eqZRCUUeHRgijPupA0Z4QkKWDMwqZPxoZi/xLH9i0yx+ArcYq5jBaplOwcOvPaxoIHIGSTJbjvO6kSnY7s4Gdh201v2Oc5znokE7+TmOZHIjkIQ+yG5KJRKPv0+zp+jpWXWl/dp+hpT4C2hFfe0NHkn8GnMY9P+OnMY+tLBaGZu9OC7FpWfQ94thUeHqvHsWhn3fjjgtGcxaMu+h4MNcGYtLFn1+K3duiD7SCCCELZ9shELYhbENi87ZxHEcRwCGn2zhOM4TiGv2odhDd0EzvZopUi5OgGmCgM9/B2R+h+pOxDtdC2GgGM/DzSck7zuJGsxSWzHzHYcpzi13LpuEcI5h1nJW5K3JJMDHW5nRmuDMel6Rs+zUYaslhYSqzCir49ix+I+xpyGLRmMGjH96GY1f5C+5p8vOnB96fu/Dsn5BsmJv9dGGkz/FZejS/Vpw6NPqHpEUQIQo+I4KLjFrPk4zhOE7BpGWTI5Z3DfePIhpyYixUl3R3R+hbROzQL2eAnuJ7ye87iGzFr9jsrfONZEPJynOjhU29OQ5EcxK3JQyuSSiSaCwSSSTRSqSSeNJJJQ6hj2EkrclDajI6gchyHMhhZRyKi5TlEsvNKPJHZijNmT3abnaGfZVDPs0M+/Q/Jj0PDMWh4Zkl6eD7oySWzKp/JsvRpfp04rpp9Q9T8W9jS8GGjMAspJH6IohkgwUginu0gggg9kggQIbCpEBWOA4DgOAwo4TjOGrJl1jsIkaEIkdyO7P2FcVyO7IbshuyO7FpERrydlBkxUHCcQ5cjhOOmnIQ2k4Rwo4iOwiCCCBZZGhmLc6GfZowZi0YMXRYMwaMGY9EURYoJHh0g+x0kkLIQkSVqXsaV6NL9L04dlpzfjGy7i0Oox2/cQuTV5EjotkYMQrnXNCmx934zkMWn2fxzKYtP+Oow0Mx/eny70YMx6PLrR59acGKWha90VWWLdouEQ3dDQ3IbkrclbjqRavWjN0YuqTR7ujF1oaTyIV5AtjBFwpWONQyQoHG/SZOxN+5h2afY0+hpfqenDSZvxi/fq+yqmGFsPyjZFomqg4y8rky0XGYxXYvxfIYdP3C/Fsxj0vSZzFp+7T7Ohj+2h46Hh1pyESWI7Ea4qTPEnifqfodJ06b6J3O7O52ZLdkPck/Im3ICAgkFSPo0PDKhcxIsdwNTp4PGRz7SuSxPJcQQ5A6BMSHYdhA7HchyQ0UrmOYjuQ3G1DolEk0xWlm6PUJJJ/L5g+9HjeS6huirHg+4yDXGL7IsRuxbYgYLsWlerTgzDp8OxacvRGjF/jVmMf5i2fZ+ESdIQnCOhBqSCgQ2IbENjiOI4jhOPTAQIkDsdmd2S3JbkqgIguRvIfJOynLGiSF6QuO4BZdBrOEJgQXZOr/ADSe87zuIbMhszxJQ4uKrPGj9T9SKV0aJE7M7snuJbicQICCgOwkuSeBOxHBQWFAkJ7juOjI1jzWmBeIdoEeDLEi1KkaNZJBMHVfJANfFJSYfsWlZ9aXjUYC0/46cNV7ml4Zj/Ev8NPu6PHvR92pwXVF7uCBV/6vY6jiMMiCCKQNiiBJEVis+9SZey84uUmQ2IbHEcVKOxwUIHY7skdjPcc3QgI3kbj9D9CdiJ2E7auTPYdGR2ZxVNsQiCRD7UrsiFo3QxhiYW5THdjYSoSCjcRuR+hE5sTxJ2LQFnpByCW47CXyOp1I7MiQI3VnmqCkjmOQ5DmFNrut8xyHMKaRUpj0VR5Hng6M7jsOwlLegMnPwTwP1O42edKwTkRkkNomTBMyef8A0r5HlPyyjAQZw/BbrFyhonyLConukXPIv6Ji+JNjJIXIpVNxPlnytfqDo968n4YrBBBBCiJxEdiGxwHAcVSjyR5O7O4k8j8WqhG47n6n6HUnYTolJPcdh2HRkdmR2/BVuyZpZE18mTInjQ6CeH4weeDgIbENmdWdTu00cTsP0P0I0mvVyYGUckQsf+qSIQCUlfkcUz4Ekjg43DcnlIsCz1ku0roMPLulDJ2JEjSamLdrhdheNbG+UQ1kc9oW5ryPqMQWmebGxYWL/wDBH4o0wRojRBBBBBBBBAhENiBAhsQ2IbECOxHYgQ2IbEdiOxDY4DiOA4iOxAgQ2IECBBBCIIIIIIpH4rjasItoLCUTY+7/ANTR5HB3QJqJ9hP8Vn70eIEQtI+SRNEGYYmBBbOcg+HIgOUjYi8i1K2yJa5ehXOeBjlYRQ6L4LViF/8AEMTn/wA3+IxwbsN2yHgckHed5DcQ3HAzso8umZTmOQhuSTSf/Iy3WzpAlYWmFWF+CRO6pE8fgk/YlDlgPPgc1hdDMzuEJKf/AMO2NyLH/mWfRJieTFg2MwlhBBBBFECBxETiOI4DgOChwUIEeTszsJ7iehMICN53R+h1RO1E7GgIT3Etx3HVkdmd1Q5jmOYhuQ3IbkoknSsuOxBExPyLtPIhIY58ELC6xboYpn/8M2TIqJGJEi/8WP0Ii/cYQqS//gxpgggggggggcBHYjscRwHBQgR5OzOzJ7jmaIhG47I/Q/QnYia2k9x2EdmR2dY5jkOQ5iO5AlUkn/8ApNmRKCTgQxBxbPzPQt1sLMhsJJeD7P8A4SCCCCCCCCCBDYjsR2IbHANaUTud2c1Qo3kbqk7UTt0ISW47joyHJAhS5TlOQ5DmI7kNyG5DchuQJRJKJVZrJOuaGS1CRYsIINliG5DchucxzHKc9KJHZnZWKdBJQ8pVuXz/APLwRogggggggggggipDYiR2OI4DgIbENjgOKlEiQIETsd2dzudmdmdjsdmdjszszuJyxcmXbi5MiR3I7jUTCI4DgOM4DiOI4joQIEEVjUn2BOf/APBy6SMaGRJGraHvMfnasiyM5jQ7uYS3nYR2ZDZ1HlOWg5znOQ5kQIbkr/8AwMv/AAQQRSCCEQiBxEdjgOBHDXLhOGpR5O7Jbie7UHUI3n6k7Vqzpc953HcQ2O6o85znPQcyOYhuSSSTpkn/AOagX/8AMgjVBBBCIRAgQ2OI4jgOE4TiqEDudxIciuHKRuokcOiBck5J3kdiO1f5DmOc5DmI7kCBKJRJP/xu9VXwKj0s31PV40of4H/74IpCIRDY4jiOIe0cY9ggNUl7ljJgucxzHKLfOQluSJZIv/Qsf+Rfj8U8fg3p/8QAKRABAAIBAwQCAQUBAQEAAAAAAQARIRAxUUFhcZEgoYGx0eHw8cEwQP/aAAgBAQABPxAmtLYuZZtawootorCK66wa21Q/BFNGKhveDY1VOLf3deuZu6CdYqaYhLxLjmfdIsumbYiA4QcR0EcxgnZAk7xGJiuSEh4FZj8IHQ1k0V3KonlhHjmwuhO1oCH2oTETrWrm8qM+wlXiS1IxcXpwZlFlz7cTEFGmZ70C+sCKiKbhrxIw0CjMdeM0DzGpdQiQJxEcx4E5jAJsXGn2GOOEjAfTJgvSlrpOTeK9xDTyczq57vRPMlfHcrIdxDmzvJhVaY/452XqP8BBvNIg0UhwWU6az4ALuQjXsYFIER+Z/WWRlEwDmtCLFR8SufiL7JUItM9ElhrdqDosQXL1iuO8WLEy4jImybEYrM2ZbrK2gRLzNYUvEHtCdZcdpgMRO2irxTa0WLFbi4JFiymE0s05gCruzlR4R6SjMHUhRsTLiXxbqoCkcE7UqdIaPHCAJhiME/IStGmL0z60YaP0MqCiRqpX8uCNymfdaZ2qdZUqPjrCoudApBJS4ipWrfSB9SUmyUGmMyDLjRQwZweeIItF2XNFwTojzp3k7pFmPTT7U7cp6ShVKwEDtKTEO0NLuLMA5iipfebxIq8OlQIxlGi5iWKfrpMaVN64iibR4ss4fmVNvZLa0pTHrfiU7t4ZVsu5mDZ3BvNkLLjGJaRirsJMOhRO6Q0WUM5wCZizlHQ2OlpZ2RxxOl4jm0IO0fqlqPdgwY/iLd6AQSKEpLvG00jzEtMwEuZ2O9TLvVOUKhwQYpXCRb1g+UrzKQeIBdkVjDBr8ZA0YuIhfhrFOMHEGXovQly43odjQNMvLhB0F08qpcpPZIAr6ETN488O7Dph2Q6ThtEq7wQ31JlSbxbqJySCbrDuxDstBu4SnEqEDOAxFCXcC2VrgjLjH6DQ0on0IQ0Y6guXLlw2PMXoRe0wcXLqDFi9J8GOi7pbozAvCRaseRw9GVNk5FS7ojXYxNhIbeZNszYRcGO+y06bS5i8RhGMrurCKgDS6MmPadE2ooo9F40HpqUF9JRKZKYvoooihJduhKeySiu6HWc72HViBojVTcgTpA1Gibo0NB6ENMRqPTuWzf4IOJcWLibF3y+8uLH9UNFl4jySRYwiDKPaJlXRO9LjwodIY32kvspfLww5wFeGlu7uEPbhdY5K6EOAgHSUcQVjwgwTCLo6gpDUq8DBg76LNhF10hlWUQG8N2hdLaIarHT7zcuXHaXUgy4u+jrw6DLi5ipezBlkuYgrvQOuyPPmly5aZx9BqzAO4y9XXehaJKB8lg+FjVuYEEQ+iy4YCLfwIakrLpuEbQVMox08Zu0uPQCOPRg2FZyQOIComGC1d4BEnMyDTExcqcT+BL1dz3gkN5cur2QZcuLE3PfLjSXF6MBKxi59/oTGL2XTKTeIy7oyzqhau5LDZMupLIAVUxlrtpVQHYIXQ3QB0lRIkzOTaY0+yj9EudFabnklKJcXVM41LiKvyS4LGFF70WNB0nT3i4su4u8uvKSVOsUl0YGXCE8yhsbQPMQHJHhTsI/okOeHe9TsPqHFCKDjtCjaPNKw3cPqFSjtPNrGvdGWwlLZLMhgOGjMe0Tb2JcGLLHfCGuL+MNGOO4zUX50A1NyNN6KCOm5Lggyps1XrGLF4IJ4x6FmPpHFHcUQRU8cUGO6VPImGMubOdiOutaXp4lMRHaUtRtBlkR+JCYijBcsFerKdWMHchYTiBtlDmwsmCVXNRFVMoTX5TkuUeumBbCBOhKiTfHHw30NGKyswn4jHTx0WZ+BiZrdDPuE2kXQGH64UDUs3ML0uKN/iYpfclOSCN5QWm0xw8883qJ5Rw2akfYR8I7obMP805CD6uWbrC7uExwp207JAw92HBAoEo4gpu8NCh0iYmM6OCI4lXoShsiGDadrB94eYRga2uY1iv4lPQ/iWG5Hq+jLlkLpOanmL2Mqk6nAlwYspZ513vEy8OlnhZc/ZBlza1N7NxoesWm2c4MXaLS+0Uemg5XvFgzKQYqUW95ixhQGK9qKTBKXAaXukEC2VuyPThEqMWO5hEcKJk8yuRLZtJWy7S/FCwxOKCnSZH3lIwjswceqUauvF1YxZty1dCvRLlxYj8ydGixY9K4jH1ph4YsMEY3e6QQ36QeScohxo1yg5oB0fUYmxyiH54h0IXs3lcRmDzWrTPdQfe4DtoyGHpDiJTiURqE/EymjtGdX8AjA2YsPcHTGm5al6caBqYO990FPHTRZmbeUBOmm2fWoS4kFfnIhxFdxK9qeJchqhVsViBb/AJMzvjzFMIwIwlzpcLCIrxpSXHZqUnXFqLUtF5TS4tpSVgiqZD2S3vCRLgMQQ9KvBczUat9INvN+7geroQOGY3CHAQFMrfyhCVKUytGLDKJe7OsWn66G03gQYZt+UY6cGB31esx/LosY7CbRLmIs+w02czkR5ZnLfTPcl5BR7ODLSBUOxO2lsMFTCxZS/dZ2YcSX2m2BDbRXaJMJiNVM2jshN7MCO5Gm2MvS/ugw64Ka0bxFmYizajAHUlcUCF9mf6kLg5nfmCVO9olQFnVCmm+0y0KkWt6+SPBoQdW2PNC5aBrIwp9jB3rxDjS05OiZETxcpam5UupaKCtEvEFuxKSKYZ7oMuLMXgmNDfijEPJGMDAOpBbh2cyxkPiZat5QnF0LLjOHDXa6/hHLMxYYmwhBoTOdTzjhLo95xCCbQIQaeqJhKLtor+YIaKYvsg50GNtH9mEN4x/jGLVc8cFeCBKZUN+Fly4MdmfrtbKmXakZXOZ3Ik6kBkhHbTgizqhp2RZSA7ZXbFIQO2zDuTzTtyvoQUq2gOnJB6mVZURlkcXh4jMPV1xeODovws3mpzMvFZG/fQTijLcqpZOsKJRqAREu6hwhbtI1YDQAqAuGWCsR6Fxuhja2jH5FxKKYubsPuAGbHMyjwzNozjdYhikIQ03osJcuLGADSJKPGQIMSxthQgbMkZTRQ1GIg3MjATpvEHFQ1xW9kdVTM6gRXTauBDS4L8LHb9tKJi+yRlEqINiRRCiJtA6oJXZwzb8TUPEE3s3aVd9XQmyGnojqLpFiCEMlDCEcMPBHeDrGZvAVrN+TSYIMpQJTAjBfmSiXiLxKfgYT8EuUjzEtFMKOiCBFSPQ6lxiW3QmTcmd5K1DnzhaE3owLt2gJ0hbaIS5QMSXMTESP0fAxV5JQflibIoQ4BVvL4ogFCxF8SmR5l8ilRiNbT3EVB/IhouhHRkY2wwJLlwhRkBohBpnChB5ARwICoztLmCUgLhDgJwgVpkMvBykFG8UiplIHgEdiNkBl3RfxAdHLvXKqsLlcxnCJcKXUhssVEBqFR/w6XupYW4EM4c6d7N7OFzvK5MZ2nqVJUqFNYYXbJyRRvIHdR3pBqCzfsYdqDLyRWasg24LZYrXaXLO0N+BmfZEEjMD5OgptAADidNRl0mLGIoOCeWr06vRp3TcJsMsR+dFG141ImX5ZtL0J+eCSzmbm0vMwsjLtGXeqWbECJeJK66hNr0ZiK2Jn1SnLO3MOioB6JU6QgL+ILfSiVD73QWhyqUQgGyWR/ZNrHxWWswbZjGFwEQFSTLKpBdPoQXF+BxwR8zd3llrhFiOl2YH1TqdI0LJZkJKtWrGYUVwwmInEwkcErQAkfCDEKCjGANYuCMtCrhUxFIWx6J3J3iNspuEmnEdj9TvJ3kvgma4b4hyx2umeVGypuBjdnanZxHYQQoNyChAVtAlQgpmfEIafWivxw1PqlxWBoVUHr1X402+CDUYpGUSuMhO1i8oUUxzEhQxMrNLUU/DAmPXqmA43IGaI7LYDAI5XUscixQI7S3ihtHHcejMO9+mbmjA/DswLcHQTg/G3DaMRJdydyciRozCrrG5DjUeZAdQUe0gLqE5ZcyeYPnC7qzszYxNlm2gBKgDIEoiTaQ1FUqIFAHYGvejhPKyei+My8rKjRC2IVp4ZEa1cf3R07esSFbZgwXZgkeyIJKBpc+60YtXGAvrqQzi4NsGEaIkHVG8S3Sbdi9rV8EFoHaJQNKMxXae0lroQmhqyMg5Ut1gne1/M8SNMR6EKYrxBUgK0xKJUPDCCREpFtcIVWlRIdqD0a9Jl4Jn4J1lxZn4JZpXLZmovs6Ln50G77R/Ld8uJmX5EeHiLLjtLkdkQlTZdpn49ewRwoQjpHtFaCg8KCi8RtrkSYzUBEcQSP7TTGZincQ0vUZG86EhUHwbpnhH3m+Fy1MkJHCnBQQG4QMSXQA5YSwsXqYWtywjaLPEbDQ5haejHiol9qCPizaNQGIAJIaLUWftLlkdHw8Rq4dq28RVatwIutNxhQd4l0ZNklrC22Y+CbS4sV/n0xKyF9JaZSUn3MuY0DMGCItk3IAbx54w66UUe2FBpeDG/BC3ZAryS7dx7k7zDjQ7RwTqztE7REHSbTugfgaLGUgVIFPExokLNwgRNW3xay2n0MHEtKe7MljkRq9CXhB7a5wXql1ovEv8ADK6d5jDhhp0dUdN51TDyJtjpsa4lXhcSpuW/WBYkpbJ4cTro7bsa0QUneGpsZsedMTEwI5IGgTAeHNyDKEbeERexhCuGIBYjN13SGTWituoxEQx0UzZhHBGzxjj1p3esctA0o6RCU0bE8SXKJsoW5WEz1cELGvoJj6TKF1BVWyoS6pZqZWcYdwN0djO5+Y2YKbTRZWouGDjEBHki2pGDr0U0S0mwSvQz6o19usG69Bl0JT3SKQ6053O9ZXvCeQlBiHAQilQV5cogaKKn10NXhmx5dcYBMJbUgyOQLNKlQiTw+Gz5IbEIafURLgYEZ9aQSiEvEKRA7w3zFs7YUdL0M/DM3206zMfojCVOYO5Z20puENCDKWdMOPDhxSB7pyITdnLQptEVUb2YCHVA5JTOiD9THbi9MHsTGgp0mCEymi6I2GzvBXCCFCMY3DJwT30L6k8xCYlr2+ySrjvhTyRC1gMGOgAX+cl4e036xoYzGiRRfCvSuLnLzHCG2jNoB6RACoD7WsRBeoi8wmSFsihOUWYUTZKTkLE6odke1KZoq5SHYxDhkdmdyPPAu7zwY82XdcbWksg7QRv1g4PqKRuhgTv9ku5gQYgV6FAY10lOCUiEPqiiGgmJ9zKIhpi/JBpeilBCJGL3kNGbHxNjy0e0cYW3stOl1szExdNfxpPqaXFn60pRpcGM9yGBKZiDqRu2RaAMKzMO5Hor1GaYd5TZSsCzsPcejBvuiNdiqzK4IS/dxDQTY/Ujcl3pnZnbQ4keBEAgxw0OJpniIENQ4kOJOcnDTBLDLfLgGTioO8oMDLc/0NNRs4Y3tMODFN2n5nVspbXO28w65sLlQE2zAPXQVjswYZQ0Al5FKHfqT7xK0HqmzQbuEZlAmdO1EKU0Y6wwubcykEZUx0p6Jgr10AZR1JkLNocSPAZnsJlomWb0EZBSMekZClvwLqKlWRV1v4jdWc5yy4Q2GDvIEq2ETxCL2wBKNDVXHTGjOr7aEBLHlQepK+UljNz+mY4Sa4jB7Bp0yfkmwjGXiZ+fpcdMvG0uXHZmB8oMsIWXQwAV5IxZvW9En0x40FyAAdDiFtpWdcU2l3WIAGe19Tkg66ld2HWLKuYy9tCIAMvVG0o0qejmfjlaCL34lQSoY0TEweTWziJiCh7/AAmWCglatv3ga7GZPzKuVKhzlUNBel4IS/crZoikJ/6UFC6jvK+sKjBN4raoeAZYT82E309ojtu2gvwxW3aVHE76qbKClURIIl9dDYh8E7jRnRFzx0jbjTDrZA5ZdOLC0F0RDYTgQg4B4CAlSjBm7ypXaVAYczSStT08pTK50GlVKZTB9U3ZHyu6LPpT66ETQe1p10doLfl+sz2uCpsqxqsMeXhCLGWRcnEkOiGbCU7sejcqWnMXhdstArNgl5UBbBD9kXu4JpxK5HaJenJzDrRV0wPCEPHLvGQGhIdAVqc02vEuXob8Md+MjK0F+GVfDKlSo7p+sxQgjpsYcMGuUhqFaJGW/Bot0bhQ+SFxNBRMKQMvQ25nCpUSBmVuQCtcHipXaGxilPWBJ0z/ADmWNxFJAnkh0XBhuD0WC5sEgDAWURMxLn5m5MQ+b6gh5WEITN+IIzZLBK6wNEqdUTEOXzFStfNtXaGu69KjDdeyMI1N2dJySv4khKVZbGMgOI68EvMoXmd6XuzfOoE7DTWHDKcE5RCFwx82cUwWMzitkrHbFOqX6yByxKlu2dhA7CV4IDifXStDUeszPlDHQ9uh0QJU+tH60shGVnb8Boy5kMzTto3YEs86GoDnECG8N+KFRORlTpExPutSBvA0nMrQ0+vqxn2QVjPwqtu5phlRGDH3lsJek2dL0wXs/Dc8GdGVAKhSyxERIDqQZdkWSdHfszYjER0bujBvDCZhjbpVgQ+GBpfmJtmFPHCE2m9hE02Dt0BGouJvuXNoszKp8NwcS9FKYwXdStZSPITtpmEwYR7yCvEu+l5tWFIru95l9GNDAGZ+kHC4H+md5fzO1DgEUNseFB4iYYfuzHheYZhPEqVD4wJWgJ99Km0IM+2TKJEiUMGfl+sMYqD1ulVqLgv8aCKhF+ILgPVGMKaP6cQgLmJX8WgCEWpkSwLerBlOSDdSdUIAEbzsITPNORBtnMx5PSf4EB/FpRCcybQjWy9ORoBiXL6B7lPR7nYe5R0e4kzLzHkTuodeC4ChK+k7HpPJ6hGoJWEWQzLOYRsmHnnR0qb/AJmYMdOvwdSM3HiKg7Q08El6CDLrWiQQhoxjj2l9NLytPbQM6pyN2FS+UTzN2knEnEx5kbn/AAlRG5dKL6I+ER7d1ou4l+URTlhsHghw5T0TpUU40BKhzGot0HT+jmwi6M3dG8JsZ+u/XTOgxf2vR1lRQH5mgRJUt/Q2golSoZVX9swadcvFKfimNFjs+0B+OdJZGSloYWm0eNHiTvRqSsBM4FOGLukmF2jRSQfee4g1zLlTATrO2xiAbJwESxMQcJKcEYBApYRmBhJXxBKlEqJ9oI87IZlRm5BXlhpUSOtreBKgvS6lWQXaH6YRTidgjnw9R0uxnYfcp2D8x6YS8Ns9SHUESje3hgTZ/iJy+krKqWMxBu7kHGux5p0d5svDLNGIK2AkWzUYKNKHwbxqbJOM2lAwh14xTYL7zuM3t9MAQAWHREoOkfEqMnSZFiRimXhZegIQXiHPHR2YNcRnW5Wly41vJKlMplQ342labHxD98SJAWG5QlRNAz6QVMroz8xB0WGHJKMjKgjFBvHueo0Y8ENnLXSHScyfuivoSytKjhK/VKt4WLm/mCTllvbvHEWgMwDoSg2IC0zOtkyGPGYl6GqhfkSnVmfDcr0Y7RFdQRZf46AX71GhQMQaosAYS3RC3CyCZcQu/wCko7SlNsyUSpl7wKi4AEdpyWJMUgqUsDaTLsVIleODLgJSsRAXuMy6x2YdV11KdJ1u8BGivENHEdGCmw/M6Y+RHQH8MOBCAFCWVB/MIDGGO5ONGLEkawR0N9L0CJvSNNdIlq70xEKoEcDDl5QlxdPdS2cmL1TdwVdA1BY0KhPrQ14pWnM2fmE6QKIzb5dazNnwnSE6xsm9voly4RYY5XmXylXUgXDYwi47iekFOuJNvtRNmjPGavlizplVKbXOSWbPuiuX8xgWa2MhOhEOkV+wQ37ykJGtGb8wdGBiGNuJgoPiIirR0lkcEbtECnBNm6cRd9DD94FSoEdojttlm10jxKnWMhb9I56qOk4WJ7mCDjLZ1c6EBsQBduQBLneY5ZURKbCb80XfYWKERC4oTtLeJm4VEW6sFS2RIznJEqUg4PchlYhcxdJfEUzN1nmAVEC4ep1/zGLndECHiGKlN3NStYVgr8Wu1n1LCYlWQMA2itxF9NKFgVPaBN6AmEYM/dq5ICKp1lYE2RrglTQaxlZd1xsnhCbkxPdYTrGfdQzK0CsPSAPEgzGUVBlFXK2lT6UJ+CMb4hD6GHmYglTkEvFN87CJx2l/EE62E4nghvh/smfT7lhNgEuL0KN1RKc4V1Q7/uAR2UPtGEDexGKlQyCtF0WKGEG6GCAsBGuos7ytsAGwKIC7NhLjvoN4Ysxvqlx6IHLpaJV9ktTmD8lQxG2UFA6IlSyrvN0WJhjt+WBA7SpeyFRW7CJhcCG2AO8DhqijDpYBcIouX21cE8bZgbPWMAWoLDHWH0ZWZnUtyAXQYmUgVopRiBUJbALdFW4gsPJNssjNFmXMxDoaBMkrmnDilQQShZEoAKKjudmAJCQOUG+6Ez8Ur+CXLlm5sPdA0ojKV1x/NEJkJ0BTyRUslpDaXKhgM6REzvMPgZ1pvenzYbGFgiiIs5jAqAR2lWJqXLOYaY9IMRNiHLFqzoBugwsu902QdEqMGxEfUjxPU5frKc9LCavL3KefcczUskNMhXshwSpBX9m+gw0Jhld6wPMKlZlTYwQo2ggkvvpWn9Mw0WIN5QSVaboOiyo4aXmZyAND1gGLZvLC9psEMDHhlvhwOgKo3pe8rRYD4uCLm6pjKdRN4xN9UPZ4HMH4o2QPVm7tH3gAnmZfqMLc8TY8RYuzKIkGHMGzVqJYBOsolBFlV3Kd4naR4cV6Zi1vGlU/VLpwGEIyAR1qPX06koFQNiNgVnV5ZmMZgGPvEnrqAmB/MtmD3mUMy1QPBHku7iGYjtiAgUPEOV6gEr4pjgyeFEU3C7gaAm6x4Mnn+iLkBdz8Q1YahjhgZJ/vR4XuWBUa2iy5O5LiPA4nDx6ozHLII6KVLHlly4x4eIzLjycSOmA+D8LVLXqLnaCEPhN16HUpdwwxq0bGbR1tnLKmvModOgckIZbuIPrK9G1/M7MeykYwMhKthK8adv2QEZvDEfTKIgl1U1FXcIcEVArdWjpSyEYy/BDXtCOnFcrQ5Qlj0s/DPGxfU6dIke1+xsGCpsJuCITvAt28dCbAU6pakEBe7HNfEqY1RhGOWQ2FTiioG93sMu2tt5kjLRI2N5tqbzwaay/rqRciOdiCJhiJ8BGCjvxP1l8N0VA64l+TLD6WQWb2tEulqMHhKDmYSumxeBialEgkFyolOFEIJsYrZe5b0kSvEIgmVksIWYnfwcEcqGWNlDiTtZ287Eys6ztztztkv20EeKdJcC4hoFeKViUaEhoHsgVAgEqXSb+HSsRIfTPryjTEBaCx4IBEjVaew4lviW9CLNssrOsx2CU7J8zc2VhtZ0h0lE9MU2ZiUOgsHhIQuDNxFY+BQsOhrvCEPgTHNsHHLNIIS7tPQwMSo7RWWgJUEQHiIa0/A0JtH70+uiN2qBwkV63QQ8iVWBXMUeLZnRwy4PePnPCVtityWB5ZUwrvfMpVMyS7RFELF7NCXL9yQGfN9TaKyoMDdmcKFpg3IqRTviiErF2bEt1wR8kzVY/wRGmxuYgY1WR6DCM87RMy8UoVuUBNkMF9OZXuAZ4YMwBLgWwjKip90s04IEdZSf0I/cTbJCKxTi0ZAgd5WmZDMuFDWSB7EWquGLVhcFSrEl7/AMiZWMqr1MJFGw9So7QUvE8gCFAu6QYJUbEBzFkrNdEIrQ3/AANk/Rw0slEU5ggnee82l6KkjDRiqp9KHwT6UCO4gumGgGNkbRuZYGiKR4lRN4hNpvBMxWaiFyF1Gt+SAbTdEvaJ9mEE2SOluWbu7GGO6E3MZipLEKMQ4SMAF8QkKZZMj7T60rMqbXTnBvE7Q2JnPzHWJnI6mPjn1yCNRg9RC4az6EvRZT8BAhp9afRmFsUYr+RhosJDU6zcNoFVCfMlSwWFBCHbsip90MyWRGAes6khp7yzucSDL0e/IwTomHEnYx48UVdw0WCw1DXkHEw5am5OMGhspfm1tCHDDRs9Q+h6g4TI7EPa5yPtAej7gZsi0YBBwpW9iUgmTzyoRtHyumGwdURKF43Ix14IX2gtQwRpim1y7WPZFSjhIihvsiCY2BoaPvIaujHwKvEQNy7IVknEJrTcJAZlZikyQupUlS2XXKGEy8GYZuDSpeIJma3Z4IVxOwHSUHUCI/GSmsG0pL9UDh2YEYdZZ45cxdcoDcZQLjZm0ZsaE3PGgrRoKOv1U2FZcHJCau9sTYoWVETTHWB/cxKxtHNSsbXtmOQvcjG6EihiUudHopOYVxLBjQUQamDVlx3i1eGVecby1TwjV6misUW20Win4fADL6pB06Q5+xCdZceXmN/BLly4aXsQSU5iSYMekNibQgOtz4hnvBvE4XaCCXa7R5Mdsoa054ZkVC6R1GO6wKrdERBTZhyVMMI4b7xe3w6dYdSQqzBLv74KxZM5ZUd2t/DAdMOPDgQKcT7qI0MYmkIStBmVKlaIAC0Qly4xe9LtrkIGQWtmXZHrCK3qlzjef0RIAOYzdiWMQXEfUsXaIMQJeqnEQKGw9SNFbFOnq0CVBKOQZZq77dBi41y5cdCcPdQRuvthCY5TgUoTYtIAlK92IoppnSA3OBG5mbmKjrOJf8yt4hITBK6zrDXquagWOIrv4l9SRKtEugW1r1qEIcSdwmFRB86XXFc7CHISh2RCMxrLIzclQs7cxW0JCLUFxx9wZZRRpkMqrQVERmLlktxG/wANRwVsRjBS8YgdKLEJgJth/bGK7QJihtB1fAuAOdidPhdRiFySndB2joLCLSdKrQY+KGYuAEcNHuErVmAndnn9Qbb0SthoSHpSObPc2kCHnoS+WBQWxWg5lQ4ojh0lNhtHQEdyZ7Lz0nYIX4lzYDkJSEJhhs+UIqVMdcuGyMJEcOJXKXDRtvgWUD/bMNE1gGNEkMIHmCQjx4jwbAOYBBcbVbbRrjC9Q3DuGbGWdi1TwxqRGmFhVJYq+1FZ6TKGW5HDMB5Y7EroxCnmXKoA7EyGCvyaXLjCgIF7sQo+pIkZHvSmVIXCzjPWV6euCdvTGYJ2W7J/QziPuJh90LohvvAfb6QsBDoEty+mJCknadsfiJ2a9qgACOCXjanPMqke5Yfe9w27mB2FnmGgaZDseqAdM7We8GdFBkbQ9WEfBpyJAdTDEdPZLTp4lQQrN1ElsYJvYijc4DAKGZgGSPxAycAtPM3TMEmBySxI2iWZh0+xhIlSHmKod0wAgo7vriINzVLH4AZvPfWpQsvoYNw0b9PRDtoE3BG8ulC6ZegQXTAuh6lJhM/OQitNvwgiSpWJ94hE0c9rR0rHt/38HZ8TY8szqoBtoxI64MCA13vjS1/tnR1zgYNNpSdZmGwDv7iTmQIYxdVm0OfawYFCsYM2F24lhyLqYWBhWFFCMEiyEjitS4qNjxHiyTcmZsLIIiNRDRkt6w/kJbdglm4/hmDPojGkZg0DHPunOn5nIX+YZ0rk1pulxLsdocP1EcQ/RKSiVElFIqBKJiYJBpUqAt5IcJUAlR/AhJEfBssuyVEqdCtlrUSY+SGhHRqjFQCSACJklXp+JUE6GL7mPQK/Mzx7oHIXyQDPiMVUSU8w7hLgUytEZJVqI3kJWaAIdZuW9xgXiMzoIXMwvMa6wDQ0b9PbWjZBMkPSbJdByw4ISozdEGu17DU50ymNcJ7D4G7t8NKZ7tmDRnSgMWLOkd9sQlTE2MqadyyVSdkr1SJbmU7wenK23BSrr/iCdtytpYAo2TejMbYo1Gi7gND3sQ4UGyiYeYrtAbr0QZd1gwAcghgu8FgqO8ZWqxuhsEJ9JWBhgz8tKlSiE/IlTGuHOhWGgVqz6hoOitTP4mDL0ZlvzzMKMplMtJYyp1gQlpsRgNFlK+8r4YTCEqO0vXqkvFnfRZUY5mPnhL0FqKVpKCCvXWXl9R0lsgReQRlOXxmWixJtcuD6MqXf4hnXOu8ND4Xo07MzffALEtsJcdpmvW3A+uDq1K38H9QhEm2n00vSyMtnpMFp/tROHaRquwsOmejK/wAcvM5sO1jReYfzkVG011jLy/RFOMOKh9oHW9s7x+YoHHdhw4cWdloI8tFAag9EF5UiYhk092hUYBR6ELbi3BGW/UeSCTZBIqNtFD8pcsgxY8eTQuImKzKOYjcBlQx4UpgMCJCfjYdkpoYOfBK0SJB6ZvO2nXRZTd8xgy4sTE4OtTB94xqpB9JB0uCxmId/h1oGXiVBmR3qC5K/BEIat8EwPJDsDDKk9xM7jhLh8IQxhOuoTphzpNpineOKKOw7Y8QjFJhYz3I8hO0jWrtBwYP1h0l9Mf4iUYJehrTCl2D7RJoMkJeUW9PrRPyLpmXjV3985H2YBPBhaVgW3qmaVRgSg+CUVpUqX/DAaJMFPo6H4qZUdDyaI6MSzQOQHJiDtpzzYUNLgFh6vEx0Wy7IRyLqLHfXEOSd4j/3DcbWXGHHnhAhDtoKuIQCBPukXGCXpygg6Q0Y/ulNGtHjwQcR0WUc3SMMxtE8kbsiBdSUtyEtjeUFrDjTs5g2QS3BYd31LefU8/qdS6Q5pT1Z/YQQaotMsB3IfzUIV/TKt5Ph1zOFiXLZmvE2JeguT9MdBopAC94aLNs3s3TdpcI49d5hgwJmZn8k0iMcwKikf5sG3c55tD/vEz1OYUbMIjpmCMGYOFKHSVKhx55UoiSn4so0DTLxNDTDxSmc6fD6CGZWlytfbUTe8T6fwOVSKRCuj9GiaVDWaBVvQnUjIp3GlGYituxM5KGX1tlfaStFLqsRqibQBg53jzmVnaFBEDN7YgPNOYiyWVAIpdI7WdrO3hEN73iR19T/ABZR/ZhfaQxo76IP1e52nvQr4x3owK7EU/YnZ+pv36EyxOYUEL9Y1P35/uxZv7hdR0dOxiTYQFgi1y0w60uMytbEpwSuHSCBEgQ1IEp2naIKMbBgWIZjlM6SCnQTiPuFmyY5hxD8ynaVN0XySvK5Kxv/ADKEZuIPJLumWJy0sjymxmXCH2QlvWLfwmphDWPgJe0Q5J2Q8akce0ehIs0EYJRu5nYhoMM3XulfBitWO/M1Zs8OrGPFA1+sxehHfWv9W12YasequPLxL/ij3QhsN9LKk2CEWUu4IHETNiLEqa+kMSiKQlYK9EY59koUXQjLXfhMHC/DKZD0xe0OFe4qVHK7YvT7pn1hbL6Ydb0IZiFtpnu35nRt/mGgd3bOmQKMMy4MK8mPRELXggAvaIiR4FwqpsTmDStMfPNiW3EhakU2CzFe5FghC7xRNyKRjy8Tb0cSt+YUBMw40ZABdiWTHuk3aJGvsbxhwXYmDxcqIC2ChWUqDiAahFhZEwLuJcIxwzuEKilehcfYlyhlIk2Q45QJs/zEz9QiixSWg4ncnVNeZswZ0sNMiAWISydZunCfUqcIQoETQ1YuuZ1Td0fOEzDfeGuK8QIfKOjdSz5mF6usmXNnh1dN12gdXXhZ9ZqxXzJVBK8MuXHaHP8A1iU5InukEcCgEsCi1BGm6hahewvxBT/nBLFVS4VvvzMW/dmXb/M7mWCm7UhDneogZnyTY6/VDNNiBdzAtpPTkD0JseP+IaJKg+zS3ykSMYEUKm6IlYiwXiWB3IFSltvHhAqX4TBMIFiRAOqxvvXNjDNLzWekfy1EZBa6Qdb3BrQ96JM9CJIJeBtLkNFS0FfNQ2yyceZZO42+G2XFpL+EHtymbYAhgdWG/CKHcYI9JzAbTJyqDRN/3gIVK7RdefuEIFBMr3tGwhDYkA9yYDsxdEpadVx3jIxGY0KUdokKrolyNUhrc6nBGibm+kiRbDCWRY5UaJdAoIfkUtRTCEX0TKClPDAnKShEuXR2RhE3GGNRg91kV9YcQoRO+pB8fcLHSU9mool+NihBn12UJ2R2ikN/kl5lIMUVPygyyLFab6Z2UQvGPHjwYPMqlQXY9JX+GXbQfaGGCOwB1l+0n+nEYzWXYuBSl726yzdepzTeXtganB17QkQTXBD9pZ/MGAbMQuEX7YVwioIARJUcR2u+diVKJUiKthKc6TC1Hi0skuMqWynR+kYGgCBcDgIlRbAmQuqCShcqGzDMCjFEApvdVS/juMEh2bk3KpRbLI0riBlluZiQ5nQEGIwBdxGRtdUsqK6m0VLsrcJjiIJsBFfxQMONFmT4ZbuZY5cMsgKWSH4KLDAjIy7uDqpLqeYJQxA1JbgB+7EKndgD3lhsdoJEJcuPT6kiFh0uUlEShu1DpYEBcy3EeJmHuRlQZiVqOprEOBS7JEWyLTTcMdfq+kFYUajQU3MRKzUVb8OJlcbh2uIx7QnWyQndRMH403o8XshFqaMchdUuUt4uLx6G0AwqbzGDlqOZEQkiQHnQ2vEFoN22CDOhOvyM1IA31nHTqzDgxGoqmI6vUOP2SvT1xUIhMbvBdn7jx/cv3H8xyNUGpS29DLv2of5o1t+iNdTlluvvmHL7pT0fbHK7jc7GdvOyleJ7glErT7iZP2aVMUw1/qjMjLuVAYqC/EgTtc5mENyEPKma9kx0qkgg9HQbFr1TIcCGvMPVgdYIoxvTELqZq20ooZLQQMzHh/MCLGyBOmRVzO+yDvFU6rPGnWFpR48UPtkgqAjAUkoi6h2Qo9xDHlh4htEgNt0g0lpzAE5MwrVuwjG3qMxES6sLKqsqiOu5IaGSfwMNaXVobDiA0AJVGCbQWe4h7QvHeAmGIJFizZ4obVBRbMbgrLE5ESAVwx0qXdUGrFMQSyICiRqgsrecgG5glmtnMMgSbRMMHEoSGFiVDLR+IeBh0YIUU+Jh+zLiSzFHEnRJM+JI5x5jsylcqRDojd3OBRXniAUJ6TrW+pR0TnklQ3h0BDkJvEJlA3gKlho47g6NQePLBoDYJmvMvyEDMs72lRdpRLoWiW1X1YjseZ9s3NkGWGBvTpDRbXylhkTgucPMWR0wQKMbp2IdukAnZmXjlQMbyu0JR2ZUrRsYX8jKlaLD8T95CVcqKvKn1MvR150U1h6pQm+gdWOqnuJLGoLvO07sLEQQTOBUbsj9iP1olfdRSvd1sXcidBGpHCYE4rhd6WI9e/U7ywotZesOLFZ+IhdhTBpJ2cw7/tCZgLSZFDwqB0hLFZ3lkr+LAVdVy1MAAbDZFuTxGuFhjn81n8zqRmCN1Symu0BRLvdjku9vmIrRuwy0RDlc6hCLoFYi5gpW6NWZ61Mf2Ixi02vonH9pZBabH5lwnLbdJZ+7KYy+0W/jO7YAVuGhKv8A3n+1AdvbKKfZhBbz3mPN/wAs7CUwpklfE8SkQM7OUdkdoCUBOTUGmzyIVRKlSoIZr2iaKhbTMwHEeInaeoMKG8EBpLYS2faFdj/MLR7SA7L5IaKl9IHd9w7kqYPiRdgzdOLqYhZibh05OsyoDlKaL6EWIguIfgRJbzRhGOLmGYMTdC+Box1bxl4A0FNB2NA0+vLbfT4eqtWbkMMaJn4WsuZW8JidIx+1DXh6MyLsIjuUFmJZ6NnEUxgFuNwbMD03iGLYqMxiKhQcuYxv2Jh48R+VHWMqoLAC33GEhsEKwsK/SMhjDYFieJZKs9w1hz9mdaTy/TKtl/LSi9FzBDEKDBxghwTzBa3dq95mx7YsAWAWUxlichLG7r1qPN9EA6Kpieb+Zz+6Hefljnlp1w4h/wBiHFnaSvBNt2JXwdrJA1xiq5DKmQRhze82GOkogaHLxoqlRNGzrrD4BqZLmYs/XI7GgaGCXwwlzOmyhtqsptHTfRVDO5KhM7SlTB8EF6PUW3MQMDwymrLtcAmSQE3TmphcP4VCtjfEBHaAAN6Z92EYiRnHBeIsHVaenWwU+rHpN5ktAgT6kFai5co673j4ddcvMYz9BlwYsXR6RV4UGLyI9sWBE7pS/khNqYbToWcIgUAcLYj/AIBltll9i30G0H2+iLR0uSIHExnnaJuItm41XjSPWIpKh84YAhyJGaCG3xQzuQ6yflP7lGOraFRjVn7gthCAjD6ICVA/gfrCNSeg0JUrValaH3EB8PqpcvUe9KlaXUcSoO0R7cIa5ZOxq3M1PqWOjGCtNUTSp54asK4omRosWcZT4fUmx7upDB34pWjMI9ajCDBmwnTTB8pkRIh4lxvhUVYnbeHUA9RlWhqZD1vRi9BxYVA7VMSpRAgh0kmLNyCvHpU5Tea2hFaFkfpjw9iWRHJO0l7ZIf7mgdpH1dEZ13WwSyv1Uav/AChCY1xFoveX7e7HpzXw/wAsrlG2gzvHWPZeIOt6icsLI+YwpK7OUo6vbBrUgKqWYF8i6cQLZ6p0QhVtMJv8sNDa6hAYZonWZ+NAiEDMwnDRYp1e79YQJUdGGm2LJWsKhGLPoYOrPqoGiafXyvg68TDR0zeGBlBxAJRoI9ENSAMZfy+JPx/AzexkEdDTU/BB0pCZxMUd4BxKOIw2sStPnRqXUz1g+dMV7w2lTeG3MzpUNHzHiXGG++poJgmNoX2oEZcQQC/AY9D0UtiHIduYvb2xQPAlVgQLxiM3P4J3XonNJEKx3A8zyfynYfbKWcEKzgW3ohCp0CBsdJXgis6Khw9mUTbRlMGlUZU0FeIm4yzMsDzFKrytHVKgR2iw5DobgUzFh0YaDs0SVFUztGK6Ffk/rOkDGjqC9KjrvsXL1+u0t1D6YbS5ei0O8oqM9UwjWv6KXFg6Usc1tH6JSHMQjpYneDe/RCQsuzKYPDjFbz7QCy0nEOn6XQCf4pZP+MWyimEjjl33sh/tjQfvBEL13l2w9z/U04rufcCNBR5h/rn9LK937IqIv3Lym8TJmGH7Ueuf4ihP0SuNIcCC/uQXYRi+RMEvSqpSX4lwWptaJiODDTJ95tPgaLN+CmCYuY0N9DzptMZwPiHtBKQfXKQJ0lNJKgRMTj9MrWn50p+BMa5eGCVGMV68ylT/AEYqDxFxM0A2PYgAVFse98NkeJiLDYn3U2/YhMaZdmVly9Aa+X6wG9GMEAlTZjMv3iiFZ5keU9wTJMnWf60/1ZZtDtptSIdGeT4Uf5ZHozZ7eqYRtbTi9hDpfaEAyjvoHpmD0fqncj/Hhe2V0qVIwDhE5+ols/8AegN3NcbT1dmFVLN5d0fct/myk4bRWP5MUxUaCDr9KcQgnQiEVcDBMwhg0fM2JWlQ5TE8wIEqIUymPmBGVKlQpUdFw2hNKN5f0xTf1Rbphlgn5hxP8zglXsnklDKzelORgYfliGwEW0JgZ6S4uJeezaVEhd1JVnuOggxu5eh8C5vjkeqDR3QX+KBAlTKYrwfDPx4GjFXlT6jV8T7KFaMtMe/+pLixjMH9rhLiypmvZ/rAuOmyBLZZE3QwgMWJk2IkbIFaz0yE/wB2LQELsV2V4Uc9NDOZf7pFh8VZXWDA3MWjb7Tv9LEiBQtqf2mZkuAJakSdofzUDo06zk9qW9F/LGJPaFKQ7UVA9vTATHqjCq2EHrQlEqiyi3EHANNUCPiNRn52GBLhEIjCahUrkwy9FhqXlGT2cRtEHQRj7Jh5YaFItkVeKZG0qXpuxWPEzrdGWvFQ0ZstadMPhDePD3+DBTIeJUZuTYO8qbk0ENA8RW0YLYfJDceEwCKlMabfDDZIzNMdk6fJV8AaVE0n1tUZl7u5oNKP5kCg1WVt7EGXFiVRiPYly4sXvy4sc2SGHc8wuAy9dCf4Qxe39aEgxncqX6emPQ9gTvvSZKAHczKe5eiC9g8rEb/xdIFGYGZRcwE2B/BRNrafmASmuVLdlvlKRjFjIBLanqBYou1cQbA3RCowDQ28X/WNn7wuAUWtcwZcZMJDBAEMsmN04xi/N0l3cNFCXG8WAhTARK7HWKyMQMoQ41EOkwYKjrU5BouWKLdkcKW9CV4Um8JCIvSPCxUYIFa8S3GuILAO7KpY2QFxrdgaBDZ9o0GXV7ENobJoIlzK2w0MVAuJCCp7Phvz6mlE/E2Mwgau0w8cNWWH4lStGYyGXplBXoVExMS76ixhwd4GgoPJEeBj0T8GpQDStmPQZkQZYmZjU3m/S9tOzylQTitDEhBSXAOawgt6vTKWdDowXaDsf8ToEOP2ELmLVlmIJIP0PyzwPudMFdLjxQaI6j6TQC5fV3eZfvNzi8qzsoZV6o1UbsB2MAdCVqDE1R0qg9eBEiImPhYlWdacQB8CwuI/AS8dKh9CP1MGkC3U/tdop1lF0JdHu57AzAeNZtoBGQpde1RLZ3IKVd9j24iXkHSZ0YplHKWv1mTLoEZ2StmAamVBQJFDViKAwd6jo3AxFpunQxuY3jvSdcTZinMBF0YtMov0qGN7TziLiWCXdstKXcZf2IWSjZxKWrQSCb/iCziGvEQYL1x6xSfCyzLyxIbaAhzd2Bj4H1zc9jUiQ1rLm8N0Z1ZsfEHS4wAXcnTWlorGrtMYViMTGZifeGvR0MoZjVhyy1zo6EJs0rQ4Lq44WXoHxLKGrhAGJcBMIq8GBAgRmXmJUqVmCJhUxoV/fn4H1Q2sCETRg0Yy8gdRhgUXKlyggFbKZunAgaDOI66GS2PuCM4uB20cQwdshiVlrQWXiL2oj80qDgTFKgnCoSXGNbhIIbbUwfgfSIUMv8kNtAp3QKuEh1yXO8gRZHi2ojmwsY7zEKu4zKjNyZFM6KQ+Jb+Cpg9qBSIAJN4edw+euy49Q7xRuOsw2wQqMm6xdgbBM/HKnJGE43SFQqUAgPR7lZwhmAVxrSHNzs52E4Z776YtC8MBxMnp6oKRLSkKu5BzCom8XBOmD+Tj/Oxiu3rmH8nB/lR/kIPV7IXi62JZLXnRnPAL0+5bHPi4c72Tm+nRO/0wARFVtBzYfhhCNguijHuhWLmNTDriGprUPqjuTAozfO7q7Tqhzvp1lQ1VjRlBTSITPF1wQJUP0wlETE6TN9TPtE2EdCP8cmjH6JV4IaLN57YS4sZv5EGXFibjuixUxIFTzlu5cGUK3Kpm2FyRYiww2nQFQ+ydYMwZUrHEMemNQgO5i0GTmDExiSr0z1YohBB9TAzjM/3Y+xvhhZI94adWg0AQLfM8MsQQ75RFDvfKFPIRcqjNWhtWYIMeGpf/ABxTZ9LSDKLyqW4NtlGK8kKQzGl7otts8RO64qJZ+1pC/o9TJn0Ee2QAGq2gJDr+xN39VEVnZyxuhhXmGDsoEwO/aIZprcgP7Uq6J2CU8bbRWraAKicagUzb8QNyv+0RUHTbwIStATrDZpifbhCKiEMgcEeJLN5ZeESokp2HwynY5U49yAmUysz+BlO8eaz8QYIYgwy5mo8TSlTBPfRjBljvqattNp9mbTU6PiCl3UIS5f8AHlSozEo+BpYeSGxriA/D0dtPuoKiuXFjvxdDCOjMRJuJvYSi/qSs5BsWXtnthqADtGUbzFMoBeXtKHpEK5QkLZRgmdgFhRUvMe4m0xlqG/J5RL4T7lnajpX8RdkDlgbXtEiHUsNyUg5lAaJ1IDqn5xt/Au7c8n8pebvboANpYS0BRH+Olau5ioP9qHTHqbQ6GBDaASohKpwGjYm2NvMo4GztoSiDTCbgykD0wSiKkUC2oa23mLoELgQ2KmWVAijaJTA+UOXmVRF0LdOQj5rAqGotVe4YVlVR0a8DM2Lg1omJYxJT/JL25IMHEWT2gyzmXAhfzQdfgqXgqoa4N3mzVlfywdftwlRCVlhLDolGzixpjuSyM89GVPtiGxM28DR0Ev4HwtoZls0hl5w0fLoHMY4blkXS4+aWRLqR4EQcNkAM+6P8/O/Qb+LCXVENhhbj3ovp64tt9UeVQj1IYzSlLC+354tNj3KV2H4WblO8dkL7fUSzf6CZs+6GOWhIVDqdZy38qf6VgOSaB/xjQq+SBqC/E7aKFIRCooUIRlAOG8lQflXQxitB+K/66E7Q2G8Njb5zUEFQcsBA0Scfo1Rbj2Wg0/ZBAuUcjoM7RbUH4BD1mCLowfzHDZNbCWPeWiWlbwx4ljLilVkyypdIaiDyBPyz6cJeFRzodwySseXllMbmJmUMovAX6iON7bQt4dktuTPXMLT0uADCAs4UXcX28US7MDnSpmuh4QJREoQgzDQ5cdJSESbD3mwgSnQ4XcmwlSozE4aVBS++pIa8mpn2JU3Ix/UuNRN9IzqQj07DQLRC6nQT0o9z+aRy1XmU2Qd7YHT6ZxyOaStWvRraH8YTBmT1/dCm6w4YKN3pDrHsjRT9mVO2FAJjoztn4gGwgIPp0V0iQ+1B6MTQk+9/SBCURxB7f0aVGb/iD06Vos/MhDSrYfd+iVKiaDCElaVP7veLK6KJM/FgxZocxkMFyOrBy0AYUx7DMqLFWYZXXBXQypduN0dUnS42OWM+nG1LoYWpbCv54GJRr5YKbq2zpPU4zVsJt6XDCFmDD9hLQ7rMPFCDW4FiWohmiAA2NsOeZRbjFxDBIySZYAmErsS8eqGhptFYVzGgMIUxXKz0ROMlDHQGSNZjnDOWNB8sQBWwSuugQ0vtzZGJtLiaPMXCOpSXBlMhpcZn+ZNr4H6ISokPqx4NRg7MJU2RVC50mA0OhlLlQtlQ+MBfxg20BMKuIPToEqH7JUrTYwt5GjBnHogaMIffqZX8qD09UhK+/wDT4MT/AFNpcI7T6WmVK0/TfBVR9Dr+jQjKm3wvSAiSyKJkbDaEwtLFeIFi2KCXAcIZd6OJO+qJGGw25dyrL87MTSq5indudwhBPJ1S5v6fpZh8DccpkGqpKt04fVhGeGiCa8tNDf5E2kuKMLUugiqpijAN2VzD9UyQmlCx2iem5CFj6nTkYHWtHhyhz7IzlilVR8pHNZ0i0lPQzElEXVGUpkbWQGKg4jasepFH9qGm/MYgdCaaVDBOuhb4yzoz7h/LT/Wjyg4zBkun/dlw31RbgYyj7gTA9zsfcr3+0Wrp+YEC55jzPcxNzGf+UFVj+IT/AIJi3fTOylm0FCku4Ql6J62/NhmNF15EIzGZkNdkGf8AxFn+M2adk3sFeJBDSqPdDW1MtW+WGm2lHjRjPVENFqP34K8PRjMv6GJj4Kk5P6Qhu6fXgrx5WjFhIlQjLfn/AEQfh+v/AFlx5J2k/wB6AZFULvvKt/bHb++IW4hVxnEixENrAHvK0AMBbJB2l3iBMEDS+DKJC3KQrZajjqSjxgUQxfpk3ab1K+6VYb4iyt66EV239JCIwKZnAKxWoLfPWdn65YGxkoiNgvNnWKiG0H8QY/aT/HIKpo2xDARYxWnljzgXhqAlfYhx+yP+9jRAAnDiImzRj+Oh/AQ7p1hx5R0TtJWGAkGhIMMULmmA2hAlHwRToM4CkASiVDIXK0FATNmQjttFehF/2pW61cF6CcQ/lKNh+YkbPZgopjioBu/hlO7/AAwlCUzAk2Qv5iOZWI6Y/kR4JcSHE3/M3htN3BFNkZPDwvgfVozFNzxP1cv4fcuOihuDGmIJsBeCXLiyt3EY9kR3H8zA/oI/yMRQzg/iDbW8DBdH4Uv2ebSMpxDAYGcQV/USPRPrp9oUCnUz8HuV/CdIPDikqtumjGJe5/GRyr6I3JuT2o37BTuzv/bDhyqAD/wicQ6Js/pS2v0Rbf0QuHVeAlXLX5CbgPJDAAEeAlV0gNEk9DF3iAlTaBtJdExU6Jcc2fkQuiO/XQgiEZvWbndfMcWjs+sU0YcNGVDlMx51qVc2njQA1W/IhrRB659PVI6UJWlzEcbNLJdT6k29fUJbxD6ypWizm3ESq0FL7x2ajKUnpKlijsgi25ie4eGGKX5hSv2ptvwMzD7G9mPCpem2boQ0DRUiia1r35U3IpLMyiGwcwvr74B+7LnHvgbDWNzBB4/pjyfaPdZVyl557KI6QCdvROOSUUItFmcS3vDuI9CW3cvKl8PZli1u3jrGKtvH8Tbu/SLCDjEWHFLO7xzr+Uqf3J13hvLAbQN364/xJK9g/BBcZt/SUOkAiQ+9MvB0TGl/7W+tGgfyfogSo6fZaGlQ3kml6BlBqESxPnoMuIgGYEKDSYINtBhl+Id2BbYgYwUADLLV8xKiOAXglswa21liCxVYRG4dNrP1XSsytDXhIasxaT4fXmUsx0Z9U1bypga5mx41YG029Qjsw5HD8DZN7zDUYeZsNRidHvMMIMM2Dh1wL4YVUSFd0nSJNsdOhoS0tDPKG33jOfbHZV7Z1sl0BsmJD+Awf7MD/bI0sQIcOdglCA/G6kEVDhTmURNchd8qVogWukqeCJKZWZ9XU6f3u0dT62D0dCJMT/bMuDBNP7jjRImi+5+ut6G/SsNDRtAVFETbydCxCLLReD1Y3LMN1WS4NbJVjWV6oBK8W1sEsKU1D09KpYGRlq4oE0tki4QVsTpMDLeDfxvCbGbvloR0wXxD6YNWD1TZ8/BSEDRYMFqYkHSsyGbp3+CTFx6wzpcc3Ol3lSozfjw0NH24aMx88NN2bTS5eIrMwGm2HF6L4G8IdJtNrxvBDo2PJm0+Ab8ZAlRJ99PoNWfq9WVp6okY2e3RiQa46hWlQe9PpNWf0u+gak/P+iGjp9pqwhv+HaHVNy6MW4Ju8G+VLDSkubgT8ksm37Z9Sl0RZcZDTZEgwCoseVlPWEPKWZK5gGBd2lR+mO/HAWcdIXpsixZVbyleEOYnbe5/tSq+Lun+rP8Abj/JxlPCkQQ4k4fqzuvTOF9kvv8AiFll+Jds0UgLftRTNqdBtDoewn+gRf8AlP8ATikQfmVSqPMV6fc7X3K3/tL+g/MPQLnmf0s/vZ/ezlfsmcJWZ5q/ineX4l37cb3e/DDnemW3hLcSSUn5lRklj1hGpt4Ouw7QME2hy8RYaVg+jq7RrQ3ZUqBCGuVadfQccF+NrGmb+NWfUgrwtOkY7Dt8ClaEuXFm95P1lK1ubPQuOYs/o9peJcYj86bXsly4swJVK1L+f9GlxHJO8QdZVv1lO/vif78YhxobmTDAz+tQbb2JwwbP+cWC1tqoPBZG017SLC39I5BtOLJ/jocCB94mOd5vvGZf81j4KpXWJIFizJfiCC3TbQFk2Rfb+0U9ljgh2XxESnHRh0r/AJh/NJ/op/Uovc20QN2Sskj+xGirTB/AQ/jJ2/qI7GBdRuSoUbTGm7GsQFkCUdoC0VVMaHseBlGVMph3hgxKiTEpLKVQNOkJT31EZt9FTESDDAcTtIrv6oUf0pbwucYnhZVsf5lJPoundIcv5JXu/hie69zMQ44nV08kXt7IhGkjw0XEezvq/EE3THVFq93QSb48db6oYUTcxZq08Uw8bW5lx9cvRjkhRd1LK6RLqQO5lQEeSVbn+SIP/WMDuPTHdMGbrlu3uzclu7LHB9ESuLS4YYYf1GCLK9H807YNOyxtCKFXayk7Z4YubMlmZznLhFxn0pj63YJye4hRbWMUlXdQ60/OGVV7Y8aBBJMCq9lT/Lhs/VAeiVOkMV5/6gEolaOPOgSoGMD8pFJUqMq0wgRIPuQ4j4ldokB+CF+CIuA3puCMYMMFQu4ZwA1FxDtreJSxMoECDaA0anTbzH7sYilmRRb3g3CMFoYrlpNxWE1byi4SCaOI5m/oggSkoEKk50xqOUD8BpdyE303puedOujiAFTEZj1IIZBm4S2Irwy+0KY0uogv+LNpO8DRhzHOpoEM34RinwQ9j/iI1+lKJBb5x2n82Irr9IUbZIS4s3K4/wBdnb/ct8D8w0qnWiBDEaHWuTPeekt3IvdE/vk5fbHm8IL9ZFS27ssv3T+WdrA9oIgO10WB/sEDMS7bShHZ/rAIRUdps0BAuejZ6rHanbeZUU/qd4NQbiRgGZWTCcRNUyytHjvrm8GjOj+94MuOn30FdCbzDw/A6OZgREACBuXmoNh2jKRdGOq7DKqHeINKdsjEI6KvIS02rCoU1URcTPcgD1ZWIRKz1dDApXtcFwylSJtXuDzZKQa76qoBtujLy7ol6GMwsW4A20SIQWT9d1XFh/U0dGO17Q+GAlkq3Sd8ldgKXXTo6ExQRBsuXbGUrDHk76BuCOhlDEmPdNFflD4Kp4IWjOgMHZ0RA0bvlypUogpd0gYla7hD4gbxJ1Qe9/XV3mH9jOhoG1iz/veZMwg3GZGiBgVH70d+PFwkAnpLWXgg+j9YKgBlGLFcV4iCbixBKRDVPehFnXR0PdNpehP7XaGixn0MCEHsrCMtlvlmAKG3YQt8E9zIC1bSW/1wEpFRYEz8TnOpCXUA2NoIwOLCEDJ7kGKsvEvYNm+oRg3tBsb3BCRbMuJeJfEAam0xN9SPabzvKlR2h9sJCZCVd4a2vzmwl6VKwy/5YGqxeiZS5vKhiYgLtgdiWmSJIVcVuSDbthO5blESE3Z6UzQ7wcnkDwwpsoBZ1Q3FiGwWDbjAvRioo7RwXkhoxJWpLQwzcgPwyuoF9laxFyZueXwVn2waMxPQdWfSg6nR/XV3mc4n40HWZP8Ae8qiNwaXYIGJcLhfzIK8GFGlzciCpHX5mhEhcwQisFgStJiLzKS4r27/AK6MNB72lS7lxffouLpv8cK0AFehGbbFAlV0tUi+bOL6kMKCUiRZGSthwupOstwuEIzkpSsMtdJa5sKEJiA/gI6bDDCL4IxLtShh/OR/kIwshzCam4YG1zDgBCdtP6RlW8q9X0weFDxHCF4DoQAab1khaSojUMRH/EtEOdlRM5XKEPnR6pDky+Vi17qLm5f8oD+Obl64xvQjbr1zBf3JvlnlO69MYjYwBsl20Dc+yHQMC2TaU5ly5kPM2XHaE2yiS7RYNqvZAVUNqaTpLxLiwYzMSGgQh18JMDWkJl46ohz9oa8jKNdveIG+joLft1dp9dgrwx0YO3mQaAgCZeF8OmjMSiKEGWZsyzqlIpYA6iDiKS25vZGqnfQdKvbnrzFP70o/fn+vE4cySg2R/wATDPT7IIYH+Us2+iq0ri9MOn9Uwf8AUiMbZhZwiL9tIL/amag5rM8fvK5+rFv2WEMEvcNoOOjtPWPheEO3ngxLxQhxAOAAMEd3/ITNMdqmLPulwl5TpHlwRTpgvbZtuU/0EA/kmWGA5g502bhBy8qxlUzzoYCNqGkHq7jMoJBKQEYgTym8OUIynBKcRDiJpAmZSa5BcBxoJNchB5SA0PGm17wJU26S4sPEqjTMuRl2xUb5oGA4iKlSoqsXLNxFNg/iLSUQWrVQ4bwzgf5gRiIXUSoIU8RPdIBv9pljggH0wfhL9vdHakpShkhLKEiyd5lpUWddCG8EMxmx5hwY6aa6DnOkKLR9FmPily4so+LKHWOTCP8AKTcaxLB5Srf2k/kpGCthtQacjZNxgcCWUzCuPZiQYiwcfXMX7c6J7CPT9SYv5JJZk5X44xYL8s5D7TaaX3F0UTyhok33TKjFrOJsz0l+93gl2/0Tmf8AMo8+Tdirf3pbV+1A+nshyvbDjaoZ2E/xpTt6pX0+o+okK4EpUFXFZgESCvKlYjDodRBlzEcXUy1DkdArSpU+rho0hF3xzJ+2lSomJX8iVaZ4hANMss4DywaCFLsnUlm2mJUAVQJQCyQGw3NJ5hXSwppEptQtkNLB22lPAOSbZh6jGBeHcgm0GEYUrQHR2hvK1wPgUHSEG2sTbSHkBZSl3iwRYwKm8tgUQ0RvHZKBoGJUxB6orGlGHTC0RDqJu0jwqi4sYUGi90ew7mRg41SZhAggh0Ng7kqlH1Hmz1HvTFDf6R4WEC0DM3z9Gik6+2Z28bMbgI2I5vclvX3Sn+SAAayZWC8u7Me2MQO3ogkix0h0vWR/gIHt6oN6YU242SkwldoJQ0IdJUy0yokYy2AwZlRzgzDyx0JlQo0WUf0sw5xCFQ0MmyBgiYYkEFyWigwOUqLp4lQa6p0KVpfAxuyoBsA002gQfmgxix8IOIstYDp30vgMRDaBTGNxuzXZSOSVNjp/MS4dftIKpmLUcsdlRieSUTHmcWxRKRhBZ6oERLl1G4dZXzA0gSoEZSq4gDFFQiozdPdIaMFZT6hDeWUcTBMvNBqmEzURjggZibsqBEFmWoFMB+RBkLY6TBdoLTJE2vLGVcXENoFmGwDMdBG0eYOhzmR1plaB8AsELR3hUY0DBBnvjQCEVeLRA+NMYz6bRjHXmT67XMtjg1Znqixl7wDtAnSUnWUakSOGjHzLMZnExapcHy3ZbP5jCPsTrKcohLNJG8MjiXKYoCLo2dEqYzS6KzEOAqt/mFnSEvAtGo/9BAELXLB0SI4tqkI23vLeUuEGMI7xu0IlpQjoz6xDQCUQ4+zPoascwqauekEhHduOKheExT9j26EKK6r2grSf5GI3VAQ2zOKxlW5t0ZvPcTtcaeBq5gNRsliNQSg2W5OrgYOINuhJcXaESIzLQahUWBvQ4rCC4g2RhqChKkW2UI/mb7tLfqEd3slCE8w3DF6pvSVLFxDabB0YMyeIhJZMhmEr+t3aCtGY6vEdLmxLknEbjBZksaEIL8UfwKlakmnsTF1HYmDaC4EzmGgJh4IE8T4WS86MqO0NtrZ91BQ9ulzrH7ujiXDdYtKYzYzrSKgxgIUFfkhLK+kNFQsIvkFl9FgqEQqFoeUUSULglwh9PJKTlCAddO4mGMdlRlCA2hC7BiKfhgN4gX1tsZBJ5cQoqYZmIOBTcImxxcJBsQ13GMxq1DLmKoXeKOMi4sUgt+SDiJbBAqZeJhfj0XFiGdYD3dE2YH6zCat0gvomwkvjfMYpNLBGqgGBJje0eli+ssQQg7cUKURve0u/9pUz7Je/95/tx4SF5hMdMZYkkayfUrAyB/FlBv8ATDYL0wBBlKV9Srq+nTD/ABMQ/sYGcqrid19MeZfTLatDtUCKg7ZBlltNhPzHfqwe7jD8XohyqaxL2zM4FdCDSCaEhWJvzBxhXjMKkXCAarmBvLjphKVozE+8RhGFMscCCdJZo3vKbaVAu7M34lURxtFa0iONDWpPFoVDfmh20BKm70hrDQ9k20Z9Nhoxm7zaMufWmBdiWaIJZ5FCKSzAwTab2eNHQIf6ZhcNVoRrmSO0wZG45jNhV0sGFUqNCndSnMiBceNQFZd2HRJALd6LI8uIztV3yIAZLQSuwm0wWuEFuV1mlDgRBLcleIphtnVVWo44nEn4JX14PtLJ/wA0TliXQjMuvA/GcUDNXOuMB2BZYrmlUrmX/ZjUBTtMMRPIFWoYcw1dG8u2XpDrepH+FI1uf1DSF4Yfy8vM4f8ASMXButgWvo7MwnN4tsKCA/nEr/dQJVRxuxdv9bKlkk7aLo3Ue24QGv0YMsRCXeHiY/8AnGKYK6Q/ip2vqdp6nbQZQYYRfWI4gN6JRxCraVV5gTwJTiAEQdwieLgUYECE1tGjBWKgSUXxUPolyzozKIubUbRpw2ijlPxMFfRKNoJGPVAG96Dbyadkr/lH7H3HUEvZhTYvzHoyyMnyEplheSD8rA6lDrcaqj3GB2CS+BDyjDjadMzGA25iwRYq8Rb+dHzoal7eoA0CvM4adGPc7CYWrfWfy8h1ffP9WF6HswoG4OdCeNp07cXRhye6f0qKH/VLdvahliWnBMpMH/ONf7cKm11UmIFfkiv3GdrKqV3h0pF9HvYvD7SqOx6byo3b5TGgwtg6/wCKRtyeDHmekp0+ogQZDBVbwO7hBWmrS6lhhpHS3CH8vnJ98PsPQssvhCjol0fiLwQn/wCbAdvTAmOyRAn1Svi50rskBXFHQmJRLUULdtAYB8MIASokXIpGXThCY3RQJUBNcAKTPV4IsUcGJRfLDRhdZ3GbFBxMiVK0xSGGovzor8EzLB5ImVtDCEPGQ0ojU31lYRTGlnMqbkCxgqOwgnJBHrL7y1bOjEHAxGstmGGCLLigsx0gOwlQO0GcdyaO8GIyx3ga7sUXCbYlLBih+MeyErRh2lR2eIJF3Jma0IzYPDAdz9YMy/iiTnIMY5hoCexqBArF40Y4+jq5WsKc6H0w/jZ1/rihCbOkrD0ONA7b1HijtKxeATdEcRFQ35sqURi3DxATCVKhzQIkSVqxGbGddy/rGLUJeVuUh0uWu2aDK0YfVhUwMsjqKkuMRvTcWKvJG5EtFqMvtkIzDLiLQszcjvm7rwQURexFowYQnA7kS7IBzUG2psqErPQWEYfXC7MipdIIJlKD8oOrCKYRl+0bBYwIJK0ClSBjQ6CPhYye0d+IvJdJcqd6Al1EArCCZoWSSJUxuQb9d53cOu5YNqOFpTB1unDOOQ9nH26Qsi5LhEEckNC+lDMYgLiLtKiesH3XL4okSYH3iGIN2WMOU6HDAMzIQjwFc8TLuIsTdPI4tHadfnTKMF5ryQ7dFZQ6qFXaYIQI4NoT81Ahp+m+IzIlbaMOfl8fsjq6zxHR0RX3g0ZsfE+x+qDLJhPrQhUGxqxp4MSnh1c/iO4zzcFvDZwhoMKC8TC8MQzuQwIzL+hiBpXboIIG6sy836JkiEFFK2AOuUr4wYKI7ME3ZMFkWqpzIK0XqiPwEdnqMQ5+UqXoufTSm+FNyOyTlExZ8QAfyoLi9MGWRYsW3I3mAIxu4SnMb1IQDa2DojpQgh1eWBtaYlaGH3zGi6A1xAxlXKpGggr8euyNwVdIoBim0vObQpIxYihFSMThmYWl43ZhOmXIN3FJM52gOo0ykqh6EtmjBEAiLGwcLJLdbBAEwMOsCwjHH4R9mphCCMu0pgdoUYbXaCgQ0B9zCGi9eDL1z7Yhox2Z950dNzyfrDS4wXg2kas+3qYMR9h/WVowP4oPRMy5cEE4RAqoW7GYOJupZzYKRj2ztLmZQwt1daveIYllsO1B4SY5uuGJXLbbecQJU8hIfUv1IK8v6IXCXFmXwShmysDBgy4z6EUBeUNEkZcWGL3fiWOCBISQE7zbZL5vIbEhHlolvFuVl27qVMbxAhTlSwS98E3kqUtEywIYHusXQJwQ7f3GEDaG4rmH8tKf3Jev60u/eh8EJg/6R2PsljHun8miZQNMRkN5QMPcOFHjRmY25hALqHNO0hN0lU2IM2zM7y2LB4FwPMWXfBLJDMrKYZtgIYxbZVflQNbZKFZxBLZ3gNT1RDdwEHS7lIq1e5H5UHhFNtIrCMoTsGXGhxh2TCQrKgTZDfjglEozD6YkCoMWGw7ZWqzJezSyLF6JjNjLJlW9/wBSEs1yw7ODUs5ixYPR/SXBzFjs+Jh+fQYw78cIBZEcnuP85P8AWlJ2SbA28RZTXosigGy77TLn0qxJx62VzWtoC/YoObYyRpxsxi9irEzdhPTtDIfqR6Z7on97GjAuSwVxMOaOKh0vTo7O4/eSwlS5aZYZKXpoXF+aGWZUeHW5x+1lnT7Q5/vLf7LM0pXQhwKahcI5p5Q60QW49J2PqOofgGHV9Sf5hKN19afdlOo9k5aLgmYMpaybsuP+8f5dF/3Wcr7Mpz+qOlvdN2PB7M7PszkXtnfe5sEtxHonVRAdjCcdwXUdkQPWZ2JlU0nE6L1Q6von+Fol9DAhAySiaXDoidlDJDBaxzmHFjulMozcJRAVNvzDZSFsPuVZH2lIXs5n+/AdhPmC19sfKcXBFSGAH7NMJdZO8C5RxV2ZTuvwzmL8QivyQA4a2gzDHSIQpFy2XaO07RZucWR3eYaoQisOyVHmAevsnb90IDDshyhPbRuKW7e3Ns1pHvhVszuPqWf9kn+oQs/5IcSVqyzEJ3Zy8MgrvajZZ7s/1o9H3sv+7FV3yHmf0DK/jxODodTBQ6tTFtPxmKr+sOv6EcH6ZDmtMkrOIdX2k/2o3v6prHJXLlL2+giP8/n+xw2nsTJJDGWUjDQCBV+zAlTkpvb/ABNmH8I7/wBE4RDFyv0nYQewlOIB0gr+hjR4RIwCQrP9JhKlRihi6JQ6jGIeBASkpo+jECkAASpUZ0OH8Fl+5pWhEojeGU0JBDjy6JKlQ152BKSmuMEJaW0MYQBKNHTGx4mSdtKm2fqOhomIYXchKlESYvDRgeMwU9Am5DlGUlEIGUEYIrCM9SBmAQxZBDBlH7iYDBybTIIYuIaawE7NCTNu8L9CdggnSY+Fg9SBTEiS1XdgQiMaQO10aVMz7aFk6SkSWqQlRJUDHz/WBKiSoZQiSp9SfSlErQ+mD0fDZIRl6fZ/pCUypVR+1+nwSDRLLjHUy1ufeIsENfvob8cqVrjqV0XrihowM+L0ImjGLFN/DeQMvU4ZuHdgSo4jDS8w06aFYmo7TacaMUeRoNGYzHR0Hvg0cjCXuwVDpCXBn40BfOBiKyD1R46E3LvCVBnNqO0wU0skVUIkcNJCRiTDD0mIPCGrZ+YQ3YzLN5pqdNMFeBqsJZ5MNE0Nvb/udNKj8GZ9SfX1Z9afWPgbJAjAtZhMPM/SPLDSp9rBm+jPrZ00MYeESCMXVFg8aBgx34WL0Q1dQbIZ0fYSiUa/Vn0SXo6MPEh8HAcQhLmyAo94GlRg9sCMqVDZ9oKE2JvKjEhqI1ZaAMSJgk0qJZlBoOEl5wEuDiAcPEhlhJvFggkuCzrKxqLkTYMsKoXc2MzCGFBXaIEgTbijvLwbVMiTODuDB0QIkCVElS1fiEDkNHRmh4IujUI9pQmGMq4L+D+8n0ml6fTQl6M3ZvS4sc96O0+lDQ9pUOsZ9KW/AS9cdkgitBJ/bcQ6DLn2/wCkEho6WONFx0EES4wEFwPo0DT6cR+CXLjFltQGm78wlyyKRn44vSS5cU0+0S4xYwWeKJUAhUTOm7QxptKk7wcS4MWCGxFc7oSRjUTVL0JeIs/eEwQgJhi23KXGroGZEPmE7WUHFgtLxLwLMpCFtioLIFlBFpHsEdmID3xLaIDBUu2M6WIjCpueIMPwVSowRUpBhm/74TpGkmw8TDJ00GM37T0EjLBiwuVFNFn1p9FpZp97+kGXGLi9SXqWfrtbirxRgNNpR1IDhO29xRA2naEdY7v2EP58nB7yMK4CuZXd+0n+tD+Rj0PbEkDVvqB9EeJDaPoz+wYT9ivDKMfYlfX3RD+WVMezF8HK2pS7viHpQNtpLIP0RENFFzCj9iNLUv8AdJ/qwUUHVshSpOOE44YtsNUVysioEcfpbB9/ey+n3s5PYy+s+8uJDOd4FP8Aiz+kZ/hQ6vogybvE8f4mKJll5A0qVxHAJjGJ/aT+kJyL0Si8/RH3InWpef8AAn+MT/KJzxvKlM3GogL6aGNdMB292mXECOra1vWD9OU6qqRSxgNMFQ0NpSti11vDlxfaBzNKqLTDkepyfqYYX8QGBQcS6ueowo7T8kBNhv2i8gyFwsO0rZHuHV+0AwSbNkul4Y4oeYOS0/EvJRoETgLuphMiiUUKnpDdxMQFuI7Tpd2jBCYiSmUaY+KIrsnWpxfTM8PLK+oizMYSD/TT/aTlo8stYie6qg/2ZVP+DK/isqmfTAlPlvaHXkLM6CtZKcQVG3HCXbr0hl/QTn9SWwyrTRip1KvUArP6mX9mf6kZ2SGbzNmgesIX7+AILcwp/u4v19s5ftiRr3RcKpyy1zb8soHCUXUlglQYFL3IfwMB/alP7ZCqDE2n+XAP2SH8BDheptEg43qdhO1KcEAY5BKJSUT66VorTBeIBYSpUrQi/ESiVEgwzPzMqVKlTaeIdkCVKmPkgESV20H5SK/DpiMZ9E0olRIIfWlStCQVMqExLKix4psPhsYL/ONVAO2wjmx7kDSpRKTtRgJRCQz1qhyhsarOlIhxDpiPAl5p2jEJybeyUdjMCA9iALtZiwb6VokdCXH6WAZBxpU2Ht1qJAvgwIRI7My8zKlaH2H6w2IaGfSipWt4AErEQ0FzqhGYeNhYA0YtKGjDiQPh0sBo5S7i8/KmfVwdWbetvo+nLvjasGGbPl1qM+gQrV1W9GZfGLoJK1N+ObrtDVjoZnVmx5JtQjoN46rDmWJNyWCMoJDQ+ChHQy5rDCdI1Llqy63cTfI7PiD3UombLCYmC8RQJHklIWGGMcHx8CHQYq8UJelRJUqVMYj0Onw+mhetYm84GmIxg3abjz+urNrwho6H5wxEifCzHSdLT6X4HQ8wlfGrFi2oa2bTIwJiZoDXTNm1a8krn4w1dyC/Ah8ZGrPoR34mrmJiH4Rn0nwY8+P4GH0fHM285GXL0N+GWVgjoy53yc41ahzo6k2vgs2neEpMvhg3DT94Mo1Hq+GJFhAQwk3cEO6X/Cyop9aZCZS6MDEAwEuVPeB00eGJWGklTdzZoph5YXFjgeJ0+CSpUqL8CGi1MY9dJosAzLt1K1fpYa8OrCMw+AvzYGIEdBm76CM2T3IXqAdAtQHaWpIUebCVozZM2RS/km5elEFshZHC/mAATTHEHq/Bm7w/BioyNWffTDxNWOzPuZ00dPp5cuWxZt8cNosuMapir83S9fstQVovTFfjg6XGbB5i5d/AL0y5cdBrTWExU23ILXvNkNCpn4pt6kWLlzMtu50oKXaPyUNrQWblVDQvjiFJuWWmbFkNG9waIOnNokxkNQjB1JOp4EsnWMsdMXFyzosgRcajYzcdmlxqYeRBRnCXLglrQdY2WgXUGXFlw2+erGcCIDzCecP0lyyNDBN7rveFLwp9yvMOUiRSgmJNqkPwidt7nY+5/oRYgckCw+0iW/tJ/rx/lSY5hLvN/wDVg86FEdklAAYFz/Tj3KDPMP52VYDlUYpwKVjWCrWVP7GI9ftMd29Mt6+yP5MBcM7PulX7qf7yXfuJVacMuhhHT0S/8Muv/GVii9yTC30BtL67heWcEGcjM6X3Eu395P8AYIAgrdlzlPc7j3L+v3H/AGSgX18xOf1T+lnae528LMn3ADS5etRu26Af7EOp7Jb0cC4fy04PfP8ASn+xGsdvmHGFysLP+8Kf+seh7Z/qxam5rmH8/D+bh1vfP9yIRU8w7DHmP8lOz0QeH7g2M+LjxvceiPc5B7ie2fmKm0jKBj7lfR7nL9phwvcXv9oZQ3MOb7n+oRgiJAzRInURFf8ACLeb6VAOGAhEkf7kOZ6YRV4G8rIx1uHR90aYKAYJi4rMaLNvwnSXN8g031ZcuJaDCpricGuQYtESrqWs1Q8OAtx6RY5BoIjC9TW8Op6iL2H8EOT/AARpVxs1FAMTpUL8zJZdEq7PSBV9xXMxo9S95tmziB/OgKWO3KXfvJ/rY1/9ssNXZbsEzShDdjFm5ZCxSsyqNJfcjRdPLEWNrygP8mD7mVoRXGYYdqy945BtDO0h0p2grdOsRgNm0G39Ez1nelT/ADY/x8wUrJtD+GiZI8SvPZh/BSmAz/zODnBQmIN0IIWCAYD/ABAOCUSjglEwaHRKiSowU/FBglJUQn3E+slSoCG7NnlgxqFCVXwan65BiVKlR2m3scqVmBKi/KYEqVKgyn6roUOko0oSNoBKlQH4or06lRINeLVJULBuQ10esolSohUFVgIEZU28qVKOIitobHvMZSU6hDNhvABcr4L9EqLjqIjJauWUNg/MQ2mBDN2UlA/4yzuONsJ+ZmE8Q0YMUjOjyIMJRUSbJsvVcDoOCIGUAOhOwpCL0Fka3YjYOn1oPWlaLmm2K7dInVY3YTF/TZ2gI2BJWmHiwI5nUKolv5I4gEPxFbgtPNJYDcdQdLvRwcgZfost4jpt2DGr6NJem7ln9Z9hPoIFBSoGN+2nPEBBHTsiXdTpJuYTBBbd7uXH2gXTfuSyXn3SPZZQHbEfbAsmbAvKa3+GHSP2f0g1MTGOSJZ7QjrvyqGNIQDBmAioMZueSDBqz7CPRMUq1mSdFSp0l3HZNyzRaiWF0ePg7TBnUSEdVLlxTiKyLFwovh9+BRDRZZltwdVi0O8dPgZAFvUrG5MMDtGW1gxmDjptoMZicEjoZyGnSei+C+/CohUN+GMr41qJHRjEdkMNRS3TNRvcqpNEC0py1LRBsxMsfpSviLimWcCE9YGLkvcWlOmGrOjAV230x14UuO0s1C7QgG1f8QxzLAyy3dCenX6qNDQO3eXzVzOXrFT3JFjdg3XUwn9yS4HoiLJQswlGQ4XL8MWVi1FHTuA/WlHhio+yK4t6sS9mz7JV7yA9MQ2nIQkmbaFdyqxdnAxO7C9yu5FUPEoiujePqRe/N9GC9rZG3+pBeuNE7IXoEZ9omAe2rPsNUqCDOkmhgZ9lpWXRNS74IvVN2qRNDDGDGH6NDPw6XfpDRmDQbarNrHg4Wly7jHXehtpUJkPaL0w2Eg7tpLMkXEx78fgKtyQiMI1ozbS8wX4In8EyyoD8UdwLNC0PebdMpK2l/BijMk9ktLlxSUc9hy4xRf5TIRexA1xKRBVzRgR118XkelsEiGqC0j86IKLsaMPI0yhBvkVBltNov+BX3Dux/mooC8DK0HIpRZgz1q4FCW0tcsJCFC2XzGA84qFWq3KzbwbXCUA7+CPxk7UdA8eYUYAoe82XYhvMNmNziJ7VVLAsrRfOjucx7O6Y/Aiwh4ZGy4CgOiV4eG/WbstwxgTPz4MuZB3yp+f+It8hKOJWm/wQGChGdHyR+o1Z9tPqaqEDKaMSpc8DCLBjBc/pfBcRB5DRdeKds3LhqzAITB0uLHim34bGYBgdOsYM0CS9S0moiIKyXVixi+K+DpDaXozlyQl430z8UeGhBlMUcLK0NqbXiZgsZQjuxVcadJfeNJOMRGbZ5g6YlQLh0CIrZuREH/YjahJVwsMxVVF1JVQ4Yy4VHY8RCm7SyzK7YK1lgylEuXcQY7A2UGYjUKueU6kA5EbpcCvDfneBmRS5ZEEVG3dMpyTso8SM3OqGNcDrMn/aFP8A0jMaE5ihpcMAwcoCSx/2h/KTf/WjQxZIfzE/2Yn+5P8AQjaqDnFP3YGK++GAoVFX70uFaFvM/wBSZn9WVGwkEIJSgwXYagzMx2uALDZrOynYR4ECAtSBHE4dKH+LBNl6iA6iLbIOJ33pndemKbP0yl+xljrOGJ/WMFuvTMu/0zvPUbecb4Ycr6Yp1emHL6M7z6Yki9uGDsXbhnSt9Mp6vpncfTHmfTLZNPaYt/SPd9Sn+xl3PphYF2QMBX1O4+o8z6Yc76ncfUanczmPTE+r1O49R5Xpgal6YI3fTKur0zufTEq/5n9Yzni6Tsp2mjaqMJDgw4UeFO1i7ARRZ3nZQ0CA9yZU6j8AMH/e0x/lJbwbw/mp2EODLNkjGbpAZySzR4Yr2bMvTZFgjGm2j9UYBll1xID4uZRLhuPSfqPSkCQITDBprExTG1+rFfzxsvsgV14ZWKszBADZZMtyyj7Uq/eQ/lE/0EN/iP8AYn9yjweycA+2NXGqCNzRURx+UBqvuwI192b8jRZds7eNwGI5ELSBbQGpgwH6pZsQpkDhqCztMAbT/Cn+bP8AJgO0hmVK3L/2p/nwDYfxA/2INUpbHOhN231B8st+Ua8LQuI8UkOH6n+VCjHqnZeoGlNkONOylXQjRsQy0myDaI4naSvBD2ukN4OkBxDinaJ4Tb94cBEvQjwRI7QjFzKyvErxKcT3KAW5GisrGNt2JiFnaAOmgF/JCRgnhASvERxLvxQp0JXgleI8UpkBOJ2pV6EpwRHEChIcCdlO2nZIIIdSNDCdtHhTkPqNG2XjXWdjP8Kf50w7IUKUm0uP+Edsqc8C9wQNyMlwbpnZw4MYhrq7w4X3P6Gd73iH70sYNPRlUw8xeb6JRhvxP86UZsDY4hz7opDDysbzYnDqeR+DqC+OBokYtORjpoKeA0dNnzBPxKlTdcCBHS590uz7EUIKeEqCvBPe1VvB6Yh4kMtdg/tcCVCMN+HK1Zb8j9ISnRgvy6KgCMLWZeSE9E2jlFc3hx4NCM3T6sR+FBvV+jQGNFaNPwxunMZjMGly59GfU1HOpauBKjpc27aGjOnOh8M6PPxfBiQq3IXUrS4M5knaVK0SbHvpTE0wbvDRCXdIFKsbggr3JzTxDrhDoMusTeLEvOjNh31YFgOQgds+Jc5YG4CbUtGBCtMPFCOrLjEvsfFZHytfxoAoOGhGZyD8Db8ajGexKpWn3kFFx8CkQ8RHRj/vdYOr8aYPa/p8EJ9p0qIaB9z9I3mVmVxBjSVEFgYgQeifXaFlzaz9Zok0ZtexEQhjN/ckYrBn0IvXozrLlYd/jF+CZ+N8GY6g2lQ+uW3emiExEn/MNKlT6cy+Nh4iGuYcuNh8DBgRhki24RTcwayzO0WsRC2hUYcZUEVYPu5jzOzdWUvwgOwgOCO0xT3m8RgPMQO2jfRlRmaeINcFAZcrW9NteIaMFj2YGrN/XUNKIxhw7rAIxlDypifbqy03g8as2fGC5R1Z9l/SGiaH7ZWJUYJ99+kqUwMwMRYisWA0rMHrn0DVUSxgoHdgJTox14zRbUejokZdM+tMKraXxDwEl6MwXuiyzDbTPwM+rKdUjsk0GLM/Gz6ujK0FSJeufgixjqk28yHwOHmPDR0NqZmBNtDalkeNElEAFjpDSpjM20cs20JvLj94fJZlxhDVeqGp3FlzEORCWTEZbsilkslkxNzzCJZoyHtOtyzmWcynMWxxKh8CA5lOYpyR3uNyHMR5p2Uq3EYufRO8TtJ2U7abCbw4fuPC9wkPClqWYuB6JA8kryR5ibm9hlOSb2ScFAXuSjmwLO4S+RE+pHiQm/sIC2iDxSvojxI1kNosdNid8jyEybkUpzGMk3ZyiPEl3REckOUyEXIgnM7kstyRl+OI5iOYjmKXnKrwPpCrjEq4vvLYLM/A6DUuXMj7RV4dDS5ue0KiwpinMVhHUBly4s3UWlxY7RGe+i86XMHqDqTc8kcDHTJkrTS4QkNrRikGTkhrufeEYzbzJ006tbQsbPyRTaEtRSbNRT95CO/3k2dJyjEynKd73THv7oH190r/AFEcsOb3QH+adz2Tex7MEbGi+7O17ID/ACYcD7YG2L3M2NmbzmlP+TK+v2xSrYj02UmebN9JMSVCf72f1rKIJ0Fibs9lOQS5g7YtIbVJ2s7edjBoaT9EOJKGzRlHTBgxRmbZOwhwJT0w5sEZb0x4s7edlAINK2S/onaTsJ28JpSwS3cTsZn2SrolJ4hBac7ocbQdjGqbbblDWmVKyMeFHeB7ab/azvpcJaLXLYT6PtnafbEuj7YU9fcukysed13cT+xZXtfuFRv7hMim48vsw5/ad72ne9mDXBzDJ+yf68P5mGH9eELo8yiahN7lP5p2e6X6e2HN/wAxKx742AM6Dd+9K/34Rbia2GzpXzaXvMQ5As61APXHkeiGsa8zgcOZ6h/kn9BDPJ+IkHB4nZep2HqHXPqUmx6gYpHif5s/wYBApWyqmzUuuy1Ietif6ESupOX7ysWzPMI1d3N/iYAnT4hxy/uGY25ElqE+BDtozXQ6PpQV4WlabDmStGMN9gw21YMvK+HD6MPrypUqATgweJUdDtSdQBocSoypf+7pKImrZ9tRGUvNxlculQ5PZpJen3mEcdIOdN1xBsSGQnWAVBrlldkJwB3iod8KjoRKVUsNOQljo7T7mdI5J3iUO6RmGlvRZke9NhGJKtlQe5LlBKlTHysoSVANKWn6zXcmENpm++0TEAUEvBCEGGO/MhWjTpUtFQ0rRJtq6yjW5QkEZjQeiOVaM2sND50dBlMhE0qUFwAkBK0g34IRXaCm7xJWHBC1dNKnSZjNjMUes9PgcfEfB2fdla4mT8BqxnW5Wjp9xDQPCEdF7CG2rFYJMENyYgvyoa3HX9W2jKjafiNAJdSweWLSwKSLPSWKkoASzBTc/MuDMPIhdypVQn0sDeNiVIRcAYqR2ICt7t3FSdLzMhsTi0yAlKwYaDYlkfuRmehL2YZWUsCD7kLKbFGZwQQEFRE5IrCLEFrZUsPIa1LAlTtrFeEMCiYZcVgNM/VISVgFc9IYCjo7TeO6Ggwxi8wrLhgbI0krXLAi2To8PR6kS6EpUEM7MeExpcWDqq2YleCYdphJJh90Ji2DSFbanEcaKYvp6TahqgEedSptjaq2h1Lges2mqwR2naGgwu8NtBYSsiV8MGn2L4LI7kOIaM4Ow6Ed9Nx3IMIxUp9x+DryJh4iXozb8IaVGHc0hg6fZSvgb/o2hox14qgwpTBuwk5YR5IzM04PvurxAKmzDfnTdosUFjxgwFHvWWBXSwFz2gjVeSKeOuUeu6LkQaHcZTgALYzja4VHmjlKMTJAAVzbGMPxCUVdXMVBMyW4Hyjsp8EvM8TkSsTqiOGd2jDV2i3N7Z3SATuwlFpE+zfao7EEpsHJlRLdSeSUea+TtAQY5J03noR2oHfMoG7QWRk3lwwHuIxc6TGRibEY3pCK1esXo0doyoYnq6yntoxWx23iI2WHylgYI2kI2S0AuG1ovuwz8DXn0NNk3+eqzcm40YfRHjDTfmxqARjeBL+FFfDLHmZbzPLTIiFK3mNMVN3w4JLJcWPMzcvEuKvEzCV6uOw7Qly5lEHS4veG5lFqy83wMR+KLgku9PvJgI06Z0qlXKXKkOuHibnwW/mMcYQ+WDHefZR5YOJsYo70JXPuwWnUkE2FFijGduzDFbdsu3MVCwlQ0UbcTbXnLiAiYYnus5DaHyKNrlboTpl1Q/mKNMlOM9WO0emZaSwznDB0YsIhBjAaWGJksygFuFJgDECzMHA5mBphOMIq8MsvEGBYF3S0G0ZNZxAqdL0lYj98doQVtKOg3g78BMQjDxQZlmwGDQeJciJDNW1x+yIJ0qV2hANGWCACYg7wj8pcZiXf4ZQy0mczBnGrNR4xYkvfwKWY0zU37Z/QseP2YB/JlQHAN5Wn9bMe3tD/AEI/6kErui+8OD2Z/Ysf9ET/AJMsDsZvO57IcnumHf3RSKY5YpLkcs2c+zD/AFMB/lEwv3L6/wCmd33Tu+6Vbexj1XIm7O97op+6n+yj/OpRegbs/wBJCx/WQ/kExYi6hN1g6szo51BamLrsc3AG2i4Hp6KXrhdZZP8AvLTC/ln+zDuNRiDj3S9srnRgcBDfcAbQ5pLzIo9UKkIrgUDKMFfEPjd+IRVAWJdaCcRo3eiPO9QPq9EOT6j6oUxwT+ojIaar6nbv4iZEXW9TgkJj/EiZn0zNEeIQPowD9qHKD3xc6d9vMvjBwwr3gC2TIbH0Th9kJp7JVKL5nY+4cf3KQt1Fw8LzKP5Rt1e8XbueYw3Wk6y5fzuNqzxO5nc6dYYuE5ikSVsgdCIoqUYQ2NHX+CApTN8fxEdtWln6DCLTdxEv2py14iEqAln4E7HpHc+iAfsTyeom28s/uJ3X1PLO+wC5ucTPu+md16iO69Mv/hGBcMNP+2jEQUE3Ox0B4HuKX3J/saQ8cJ0BO4S7ZIq8kqOnSddFkYTUWc1qxehDSozjdUSGn04/S+BIGlaYMFaVEmHdcqVUQixM5OmrPrurHQgY1CfXgJSAlEpIES4ZR2mx4w4Ph9xFbaKiE5mw1JiM+mwNKiQn4Zl4SVKjEm18QJUeug+xAKlONRgB5SASpVdJSZiF+KUqbNFQqrtA0eGgBCumgBlIYDnXWYd8YPErcBUroQESspKSkzJJTiVleJi2IgOMVOAR4idiNGxAKUbQ4SdlEcJQ2IMwuHGjxY8GVBOJ2c7f1GhxjBs6jEcOpOnwYqcFHwPhSqPw9UE31Sew9amPkQV43w/TaEvTJPbCGjH7X6fAKlNMx4vqV0IZGwWT60GlRjf5kHwXog+IG2lRmKeyPDVn02L8JqxY9bcYq/JDVn05l49WMVeEhowIM48Gm+u07DDTppdnvexOYR06e6gapBnHgcQYxW7ykTBq6w0I6BYadIRmPi+OMSOqrwfDZNzygaMN/iVKImJg+WtxybfFjwOUmPgiwjtCvCLU03ncIa7FgryPwcmHiNWZF2aXrsORDVmflYGgafW0LUCSwYIgBTR+HShqz7SGgRmbwfC+gVoz7hNhqz6rPo6sYL8KGl6Yflhqz6rPqtWJPpobS46zddviFeJoaUz6sXp1Yxj4GDMalViWGcLW2KzAqb+NhpWgteJvefi4hVymN6Cl76NyVockNtKYJiHEXoxaHc0LjNrowimI/BnuQjQjNx2i8S9Tl512R5eIcKfErBqsRjyYVpjQL536aXLm8y/JDQY7TPwMGKvBEJyyqRoCMXtS9L0XuQrV0lBvDzbzmCaLpl40Jev3CbWqxH4YvXpevL1GJPvQ+H04vVqsYEijpUN+OfQghvvHQZzaDMRn159OXqzdQ+AxBIqkNnRBEije6VBSRsNBJUGJvx6oQ0qYeGHw+uBjVmPkmyGjNtXHwwfv8Bp9yXjS74Og7pCtf9Q5/d0l/qoPihyh/Mofzqf6CY2RdryMM/1E/wB5M8hq2R6w3oX0MKqkpIf6pZNuTdh/vn9TP9iURUC913lXw79++VpzLbcesh/FECxK3TUP4An+UR53ojyfSdYIaagTsgjI2YTj/GMJgu1Rp65M1DqSZv8AlM8R/FRKuS1QP4Ok84Y2w4xLGFiIcMcMdiVTmOamzU4/fP8Adn+zH+TiwIYyMCCqvMS0lHgQq5mOYPPnRuPL9zPl+5/qaElDqlnEEmHvJUlfwQKIph/BT/Pn+fP8yHXDqR2XjtO4+p33qMTjLF9BRgfYTt4cePHhGHaEuOCfy6Jfvx/gk/14M8HunQ+yX2fZLDZLupEbxtAM0rz5hFJSVshEvQjBL0d4l/BHCZ2eNFIb8GPBLKly4pUx0l6L7x6IxrT9YixLi3p1OyCVquJjrlmKQOjokVGLc/Mzo6Zn5lYhNkZk3YhpgjsxX5s6/BBXjR0GJr4QlSiOhmlafR0MC2GEJR3QIhGVE9uBLh7Q0PEgyocRvBRBe8EjlE9IcKJfOn2upjSo3ZV++VAuorDDyo3w2lSh4WglQQTAqtTBFrTX0I5afSM+owEqlTCVDi8SpUpow7shKysZzNoBwyvBO0Rp2JQmukMCyWTeKjnZSioDecWQtoZR1BjKmznXmLbOA9YauMkKrBhUouiDEHFKLQwot3b1lkFP3why+0eT2l5uixYJ7p/pz/blL/7Rx/7SylRaf9YC9zeMLPbCKpVI0E2tJ5oEpLqiTubZ0p09mBYCYN1Tup3nqd76hFdjxEg3mHfO79T+0h7LS+CYXT4nc+ocz1oHE3JvUqP2z+kJ/YQoti+IUj+if0mjt2z1d7T18nZaK0Zm/c1GPN2mx5fDDwT6SMNF+aBCOiK+7QrRmx7QRWCbR+7BiwmI/fgkCkOWXmKiUgpgcQrQuFkzf1Xc5iVG1l/ENRie5ANGfpovb/jQIgarhOvmVDnxQIpcY6XtECLB6QcAAOks8k8TBHfEBAW1EFUPU1Z9PQaJWNIklexRNRH+FFDe+0Fa7KXwRBG5cKqVKRkKqNpVjpLK3jMjthOvSXygO03TFTFQlKphHg02M3DhQZa3CFV7R1EcwnIbaIE31xCEIvtHYhDjmXh+CTDwEqYuVEgxI40olaSriiaiGekSpjpGuVjxHShAdGVCMYssrW3wM3uvmP0sKaN6n6xqwl6I0Z9z9EGF6OrEgRmXbUXeoaGfqpcRmbY4l+JgXsw4Gl9ILPjDwZ4drP3Ph4SkuXvhAjN7VEK20KNR/RB1T42Y60O9mNAS2dPUQsBQdySqupFOOtEawXqbPlDS44jgGqq2C12zYa4ZAaUX2fgLRA8wjQI3eoTNkhbq4LwiKxbLBamA2TMz9yhcInMIJOs6Rds2tBRozaO+O0VaFKSSibS7TPmkGoUi1IJE6BGWRUXMEFyJpw6Cw7fIXXlBtLmIw4veWpHUWPaZwdb/ABtue88pel3xxenRJimDGiTGrtEgzcaOujPYctlxYj8LBRPENLmb7pNh41pmYyMvR6z6cEHVrwKXN3V+zpRCMdnnC4sJ3JHaVPy4jEBVPUlB8qHyQ0TL3w0YhyzaXnywQVAJGeMCJLm/wy94aektWC2IiGqZJ9aH1RlKWzENAtQhhxehKAwVHTpL9Y7W6DoRm9+AxS5WMp3TFjRYe0t0NyP8E7w3URcTHCptB0AOKwk5OsuOyOT1XEASVVMASvQlwjZcWi8LKnOEor1GXLjJSoATtpIEyXUqVGYlJDUG0qd1Ed+JKjtW5tHaVKaCD1RpxmDMlNqXnWqJivJDY0uLNyK9BlsOU7vV+Atx2ZnXYuIKxOkuZI7TLQuCyivwStdpcdN1JXEzk/pYrpNV+9MbYvSHR9k/2tOcq8c4OCE0/iif5xANjYNiHSfqVG/Q3kxUU3eGocP1HjeoN+xP86PWayNT/Jn+RP8ACj/gm5mud82Rx94Tf9qZSX9/SWv+0P5DQTEV32Nt9IX7Y7ONuhjufcJ5XoUgCgDyfCscCMCxBTf8kr/FEpX0xUXbdG0MLl7UR/gZU/b3WJU/Ui+rB6QszfqCdX4i9A81CU3DaQwJ2nZTtdEwICCQLswho20j/elmay42UiUdSCmyV5IFViBuhS48GEXFBwm0zfCsSwlwirEZtGJvyR4Q+XEibSlslZeuHqTDAqZc6UBmJUCIx2UUJSRFTBdYNFmdELdWbzA4uKRoMNxKkdNQI1Pq6NrDpDDMWd5cshF6Q2xour+rpiJHJN87sNdrmbx3fh1u5MwzrsirwZmMy8Ud6lxdKmEyeA0ojybm81reXJjA8NWZHihCMZ7hlSoGiezrUZ+fWJHV+jgV8NyMSpUSVhAGplYyRWhIeglYRu/DGhikGcYDW0rxE8EeBDEAwRyoLROxjwot+xHj+oJVu8pJwTtJ2EeDBl0bQWCLiH3Hu+5US7kP5eV/nlf5p/oxk0gCDLWmHG53fqNmiYNbSlj6zt/U7P1P8KYswALd3WDXMeM3Gdb2RlhwKhxJ2/uHH9y6UB5uU2UUBWppDqTVclUQKB0Prh/Ax/j4fwcNrtEOp6I17ekc28wdC/UWEz6gqL1lBv8AU7jqoljswLdfBKPoAl6Q/wAk4NUmcOhpkE3IfUJsu8771Duemeb1EZbDmb9Q7/qW/wAI8T6ivI3tLenpLenpGrb0laXrtP8ALn9J8bhM78yRn4n02F/FqzwIPUa1Nw7YbaOmx7QBptpikGdXQSIQxKJ9ZCGjEwHwNx8V4K6vgz9XCVOsZhY4QJWjKVPE+m1Yz7nStGG+DVm9jqStEolRCvktIc+GDSpRKgbmGiiIgRjjBKSkL80z8abWEUiSoJIwpSUgYjiEJOzACwbQtgjsI8BAo7zsQDoQboTtEMfODmRHDhO0hxEuMRWzRdtOcJ2yXWdUOAnbJ20eAgtgwyvBO3KcTZXSAwrxorwQGFxEHQhCE6fdK1ddOmgGat1E1x8cFeBGDGZA7J0EIGmQwaMZZibasG+D4Z+Jo6DMk7JWrD8Gzc01oyn8mdJcYz9RDVhxES9EgvxxbvBlm7aghi6cNAZYiu8spBhhoRZnDY+CXBi+FmC9sPjttDK0JbHE2NUI33IAApMQ0u+jGovxQk52Ya3NyhSnuieR0qPFDQ0wHmbCfiZ02tR5+XW4kxGXqSlUJWgtRWfgvWRhGbDvp+INwmJiOn7M/NLNyX3mJ6uYeMmIMxHfi6CS9PWWjoz6HLgulxWvEjL1+kl3qaIvRrT62D8OD8DHbnrlwcyyLDfhg1ZkeGCOjglMQptLhqVCzFapFI6eqs6JNt+WqvXVjHvG05yFQijdimm4n1I6XFqLZ5+DKV4E6AKndZDDX7xowjYg0BI6PfdvhTQm2qzLxQLK7wslHUfBZOBBwY7lYVozHY21xUuUvM/F8TROrEYNM5JUqbaH2+DZNrwvg4TnXshh9zUqbaDUT8UY4yyNG/0TvvU/tIgpRxtBVjDir0Q/hIH+xBcIsVP8WY9dJ7ELwUDU7rP9aUfvS7ce5vRuhcx7fcOqfct/nOf7y2mdGLgXV70JOFoqGa6wQZ+xM/2p/QTsH4hd2GFSr9mdqT/mZ3XpgUKkKg/8WMd3TOGQlGqhBdtAP9CXdMSDZJwJ2U7xO4QM6bRSU5lNDmGDDVdgtgNutqYiUB1IcIA72TDCXFj+yWS455GHdysoPNgy8ZnDmKtcdQii/UPEdsRwTHtMRpG8SjWrD0jmWVN5A6QYMuWMG7vF1pYzGTwO5DOHPEFbrLn1zR9sEYhuCM+jHfjTMuXGMRGoUZqS4HeAbBKXqYAGAabseHiUStHzMPFpXwX0NbxHSjXESu8MubxIx3+0vVmAamYr2SG2izY7kGEzoyo6lV4dKSoCuQSiVENarErOn2c2apPq5WgRgXwRSpg0SGz4SVpUpxCTUSiIcRHBEYTBFXRHiIcadogtwbdK7GLw7WLVSkYdul7OY4wthud97jxvuf1MR2faGZlk3gOnvn9LHKdnmU4D14SATGN9yCCmUQ9oLXDqUrrz8SoB/EQ0CneJ2/qf4MCbgzKRLk2PmSr9+P8AJyrUtg8wKIHbmd2+b4nV0KiMUdbl2FZmYibECoX0GC+0KnkWOlMoOxxO36Q/yTvMQb7gkvwyQIF3dnS62gzYqZseyWuykIcT3Ck2nmX9Eu6kYl2lngxP9iZALKZ2lw5DiOQwBJ05EJeniqNwQGIR6hhq0XKslCxmNUoN9IJXwz8cz8EuYYxyTANajU3EHQdKELIMY7TADVjpYGXLJi0KqXpjVpvN4KENch5kpga5B5dK0Z+mTQjD6UzCMauJ+MV+JK+H3DUjM/GaMdD6cI6E64Ph9N0qVpQwyCEuMwxjJR5IPXobQ2mXow61pkgwdoOqL8TZw8TJ5pUqfnEClyyv5kqUSoHVP1jtdSL0PeYqZpE+RWTqMdPuMY3vBEbInG60wMpX4SvETwSnEvVQQqEAB6wFhAOQTeKA8kaqYgzQwbJCjSCOh25i0M1sxN2fhgSvXZlA/XiKT7oQSQIRIRmhyM72bu2Li5R7uxW1SoKKZ1X0nCQ20JMGipUFKVUjfKELOxDuixF9suDssIqcJfDRjxQW7QVqLS43O4rN2XK8TsRPLStSULsLK/iT/Kn+FHheoWArTidX9IxvOhhW0wqkdSF+vviBPSQq/wCkt6+026adSYmaOYE1ZkfCsNMRYlx1NiLGZN2kqOl5ma+I/BWvZK0xFjvx/gsyXs1Yyr+D4M+s06Q3lwDOCVosyLsw+PjRpmAuhcAsNh+GE7J/MAzYw8k/DH18l6+Mpc9Ls/DMfAwgQTbdkSXrhKpBQLs4iGoCxyvphFRDORqkMJgDf4uso2ks2emlT6EJBxMF92dkDmvAiVnjeCjpDWBvO9xpn4pSLoX+YGDG1seZ3aMwU3OsYYoWOF1QbNNLQqxCfghJhp9OUfHCAlaKtMVKJRMyO9FEqVNpVK0omMgxK1BS4EIWaVHHeg1MmPiNd54SUoqGlY1qnXXQ1V9pTpNtGZ9qSOu78Qn413vZoRlzBeZvVYsvMEo0Z9ToO8YjPvnwZbXMaG+THws+OA0fjZYAUlxkgOnSA6TAiI5z0cSlkkq5WmWrGEgfOcnncitk6j0mRo6E/G6JUqGdreVDEKuGNGD1yu1mIqONEIXgRlV3VCAVcQwAafUm15ZRYA0wJvgAzZAEQTrHttJ1ZZXJVdxM9BUN+GZGEqbaY+ebHwGGfYhDXDuEIa7bwJsIsIwt5mHtCY0xTkSGmGWeFi9enXSK27S5elRxLaM0StwxzcU29k7B/M5x7hkZDbcP9Mzb/ZHm+5izAVosIVTyj1fpx/xRzW7EP4GPH6w/wTuPqLtXPCXH7IPNttZ2Utklthx9GZ3Y+4xamXOymLcnfI8hEW7mzklkuLN/XR8LjuK4ujoJHRj9cCVqzZMNmlRgt51Q0+CUQBOkSPo62FoLHoxBRLmHw+jPr6VKiR2ecA+GfjYL8aYlzeMOfswS9GbGYB3/AAZuYONK0SYwIUShPOhn1mLHHXS9CfppsIa0m+VQ1xifDcllO2lTYmUXfg0NMWglQjyjuFaG/FM5ZNCOjLcxNSjSpk3AQNMYjUFnslSiVEQ5ZNOIA6SnEc2IDO7RO00zwoTcEHgQ487ePDj8lyeLOxiksOTjhhOmCflne9mf78T/ADSubNN5jn7odL3a07jEJuyjrn95O19Tro9QHUfwmL/zhym+ENMFZou1Sn/0iLt9zm+05fvF5Vxnew6kFRp/HADVh6QJdicL0h/i0V8N6TITstINqFnTErTCwr2Q4kp2lIsogjcuJARcsjta6ar0yq4io+0vS9H9sNCLobPLBiujB6sVjxqsYtfhHqGVKVjTZN/y6LQjx4org1SDF3h8N3BOsNDNX4JcvS/44vVB1GDwIa7GpvnCx8abGdDhgmrGZ9g+CzLxJUTRN57EmgRQJu+XAjN49ZvvKmNKjNry/DYxYC0yybv0asz8v4v4J6x+4iENGHpdOgaJBj7oFStKgiBKlSofcgt06JWU4nYI8UYKGEjxY8edpOxggYNHUhg7ntBKtjmdaKWrHthxqNcboGCwbLqNOJqbr6lD9qKIOLbSLCpmHZEOif0Mp3hTNZXKmPNCiQ5g/Ezocx2PSef1Hm0C4BcCBM4zCMzHiS4INt4S2iBfvQ4E7aNG5LXmwPJO8SujPcR0PEBK8kpodaYJEc6HnzIJUpKR5iIzbjN7ekp2lHRO+RqKbQxKTtJV0x/noppvzAQl207eLS/bdGHf6nb9IqP6Ewg2dIuG0WLifmGtxTq8uXRL0PeZt5fw2swHdaOiogSNMT6koa1wUuhLU2FqEYRMT7/RYADdYdYjsxZv8nwY78h8GfWaGjPuPg6kJ00PuT674E++QhKvTeSGlabkowqHDCVd2KBIHaJUqUR7AsY5XlrMMKhFOIhDUQYlNFYioCua8E7E7ZOwhUouo/B2nYx4ceHO3ggBTCJkW6ZR0nbjwTZmDrLd79w5vaV7L7guiw0G2d1nXF7h/NRHPtLLkH8xMf8A0j/KQP8Acljt3huCxPWDrPtPP7hrq/cNOZ5fcv3H3AJd0m7dRhH2869IOhwTpsowjhxHYSlJKj0lOCIlXzwGhGLEPkODqK9TDzWm8DEVJ2hq7ldairxRjSYxB42CvH8MPFPqzppUuQ7yvywzc2NfDo4MNuV0QkyxIHRpynRIR2EuOzya3vMz6z4LD6ml6MMAdd5b4l9Nmfj+P2iGqzGdQ2joMM2/LoLGY/b9csVR8nRYrmNvYy5O+hWUmWDeRixOrPiX5zc+2FaVHTAe4w1ZZ8ctn4Iba7zCYNDRJ9+BKhoYO7+PiFeWjc0SHObErWlTf8pWi76Y14XwGLtGvh1xDGoYLVW+o0YSf3e6zz+pZ1fU70pNSQZYrYzmEIDOOghptOzhxp2E6B2lQ2RcuLF70oD2S00XPdph42hGMpwELE7MEdz/AKINi3yxAKWyx2ciYLm13WEcYVDmo9y0LaWHrX6wzHoj44Z9Z8c/CnPy0aMHqQ1uZeNmPj+DtPuml62tdsqZ1es3PLRhgSYkdyFj3iy7KhBuonFjCIgREN87LHU0DsyxHTJKJthR+03PZFiLDSpsPEJWjD6GK438MV9vxMRTpvKiQ4e2uqfjQ+pg51CD0x349KlNR8TYNDKlTAtTBh8T1VCKS5i3JDXBO41B0w8LCEq407vU5x9Sw/iJTcTpWTl0MecU5tgm8PuW3tDNgncr8zvvuUoyiUT7IA2XuD0qOfEiLgeuPM0X9hNyZmzUKpmcm1KkKdyWKG1eOJezeXnaArLFjOqgfcYjaSxOMK5hGYTTOdw587nQKjfHOuHHHbfUz9ZYOYBL3CEnZw4U7SWOzfDmIHkiOZYzIThBl1LlxX50sfFBV+HQlxn6KHwZh5ujGtu2zGkISDZzALF0lc2YRth6QLlUXJKZeii5UGCBgiquIRifWRNGhozHvCBjVgvxaYi6ijxTYaFaMFSGgnQgksNa0dfm+IUe0+jMaOgoO+jrh4CEuMpMacKXGMxfvDWgneYTJFm8deCCEcRjaRBW7EowbwDWto7BMuydtmdvOwnbTtZ1EzsZ2Z2YcEs6RidyBK2xD1T+tlpd7Kuud1DmaJOzxnayhkShRkvtLDt3X5imYY6jWElYRHq475lDQXDzkd55Eq3fvUMvGv8AFKf2p/nRwykTPUOhf1NF+Ez6xXOBOIJxOV9zgfuXTuMR/JLG3u0BoTBAQHiE70o7T1E2UiUJbKekY4djO09zpgpuVzT16HaCZE1rdDgZ3WI+SBsYjZN48u84SWJv4uDODPWJCkCApUrUesMCqGqWSu4MIA7x4+ERW0ElxYz6eDL13J+uwfhkfJNpKlakCBqBWIKGYMJtpv4CV8MrhcuXoK/FCYYBGVn313FiwQRY11hOmBJZpiriC2VGE6Z1Qho6i9DwywNuKIzG9QWvAGjrTqGjHV1rSjVK18uSBiE7ZM1zGVR6QFaAcRO2gQzF2wqzY0VK0KbWXoWKy1D0WVLBxFeyEjhFXCVafozso37I8HSZNtEvBxRHmZbL3GuZBRenDceloY86EvYep287CVCz00IcGdvP7Gd/EurTU66Xdx6m/CTgazOg6h1EjIX4jiJR6TO9YAzFhaMG5dRsnZEEgmwsw5c/vIcXRl5QX9yqlOjE3Z7lcKEgVyh1HOlpVeFWoFTfKG7j/ETL1iMw+ioCdYIbsZhusaXMUC9WEgW+jDRQLdQYszkZbDMsMVpeseaW9YcujkRyRs6+p5PUekPqHD6QKXbVK6cbwtIIzzDkz+10rLphwxcAWaQDMkiRdFfME2Eu86EZ2xLzCeqHyzpvpv1lSp11NalSp1lxioDpLfyRgHwdjWtcSlQppIiulWvaXZ06/wCxFDYijuTzcJKjdAgxJZeZzQe3zEt6GTzUo6yoJjkCIQoNJpW8JUqVBm7ogV1chNpkql8XBNEmIBEgVKNFSpWV405w4IidkjAvFvROxjJZHZj3p3/adz2n9TFwyc4elB0jbiK+mVbZKhfGL4pV0sK9kr0vvdKtcgfwQC6Rd16nYYaghbaidud8mXcgR0nfJfbL5kOUnfI8hO/HgncizqJR1J3id0jHwQ0pn2fqAdGd96mXdolekvPLyeZDNnH/AES7p9y68SXxiucLdEOXOmjpbYMzoET8Jdph+M2t5aGmdWY/8DUj8SYTeJSqqXYslw+T8DCu9oMVAzpRQI3TL/uOjKPV5Rd7sRXK8ETKglR+YWY3dCjCapFUaGv1END4bEhOjtaDkCJN7lxBd6yuKlBJQXmpdJQITBfR2hp+IHxrSvkrRISpUplSoiUSpUqUZSVKlaKlSjglNUHWV01leJZ0jxTsJ2CY9o8SGehpu0Ttp2U4jSdvOynYQ4U7OVdEu3Eo6J2U7ZO0abHsTsTsSvErpV4la2lJS4aFRiiUXGVGCS9GDwYChjlFcLCb9EFea+HOt/C34ENL76kdah6CyZJuybgDEbslnR1dTVis7hEh0WoU8StcC2ks3qVE5EiwLbhtBozjeCglWOxiarISVmqydAAWnaKzQ0dAU1Ygw9HTO5+pCwu5BlhMWrtNjLl2SDZkGF5TCUqHwz/9ddtK+B8a0rTeVKhvqafiGoQJWlS9XivhUVQBZ8BlY0rWtMSoRIkSVoRGBj2lJAc2uKFSm1jRQEEktHAz6Z/mz/BhwH4nL9Icz6dHVHZQ4Uv6IcGHEnGIHkiHqS4C4Umty5cub9I62S4R0uLBvQi6gqnNy8RtvGVEveiExqtWM6BFN5VQ+BGphnC+4lL0RJy5v8S+OIIdIYYHDukHtWX+JUcBRfUhQCckP/k6R1xozp8GtDTHyIfE0r4VDSvhcz8E+NBEVENQ/C5+dA+Va2R8SoGZ008gUwWRimzymL9odPY0UlKlZXiU4nbmPYinRO2R4s7edlHjQOOxpmflne9pu/6y38kxw76dzO5n9JO39Q6R9Stug3pa/wBidn7h1vvDn68S9DUb+iHB6Q7nqdxjpt2Ev6IcadhO+SvMBzLNLlxCm9YlVHFTbyCe5QlSFgCO4xVpCp2qpiqFyy84m7oOly5fyr4XL/8AKzXGtfK/hfxNF1o16fGyV/4UxTohGiOugnMlqy60t+SaKy5jTZejFMm4K5icUQjBj1QmIfBg6VKla1K0r4USpUwTf4pAlSiVGKJUAgREcNSsDKyvEeAjdsjwp2U7Sdhrp707ntD/AHaJ6cnpyedpqI7GVIb4XjAEO20BzJXC0GWSHgfUIdlO3nZTtJ2U7hHmIMposlxZcsikvGly8TENL0v4mhqRzruSoasNLl/A0fjTMvtKESRTF28AJuhKg0PiaOroGGqA+qCJgzB+ibZFEDxhDVJmG2iTpobRS9Fly9Osv4Glw0dTTn/zvStaqBK+ASpUSUSoEqVKlRNSnWV1EyvErxOxHqQ8KHGjwpdHDhLuMe9Fy4HMe/UfsZV9yLxIQDjTmhHrnezkhaAZduDvzzzlXWQ4UOFDerDhw407aHGnbTuaQeZ3jSs5lkpLIwB1m3eWQZcslkuIIIMLyZYjfaWbsKHSXygzeZBqCOpEeiduR407Cb+M7WEDzx4Gf5Ez2g83RLOxAzM6Cgkvl64WGghA0IbfG5nWtafmE66XLl/KtQ1flR8K+J8N5Ur4JqaBpUdKlaVK1qJAiQI6ASoBKfAU0eErpTxK8SvEpxKcS/onZIv0Q4krhk7LRXQaC8s6GYd+d9jyMpygD9ydqh3tFaXkh3vcJvLLSvJ5v3B2JAXchYDAXb7oczKDd7nce53bFLbhth0hN2M3I7KCdDOwlL2TsQ4JWUlEYx1061pWan6sQRuSz+aX2i40KnTS5xMfOvhWpGZ1NHU0dbvS9ONMa5+d6VqS9a+Gf/Q+d6row0dvi6VpcvTrqa1A+IbQ0q4aVAhKlQ0NSowbeESko1UEoU6TnStEqFKbIKyW+oZlavwx1iQJRKlQ+kiu1ggorEOiHPlW6jMt3lhIbSznsgvVhpt2E7ednBemWy7pOyl+yRTklnJosuXLZmXLzpv8biwfj1+V/CtB+BL+JqR1IulwYfC9H/wNa1HTfQ1uHwNL+CRNfxpmMKmIby/hf/isq4ARdGXpUSCwDmbD5rU/E/HxMaUlJSAVKSs7UeIl14J2Ev6Y8OMS7pnbTtpd0zNGPrFTr7hyD8zFxJkcMzkx5Eph6cPCgHTMMaEQ6JUZEIeRzkcI15Bg8+ZdvSHfnedISdnOyl8uwhxJV6kBE8ykEl6WaKS5cuOg641fGlw0CZ1t+B/6lfMh8Cdf/AhKJtFg/Mi/K95crRdcx0udY3pYNX4Olwi1BhqOhoVGW6rXwqGmNa0vVJRKialeJRKlSpSUlZ2Icc7E7ceNpO0naxTNZ2Om7E8kwbsa9cVAM3ThlS75nxPZzgEo8Q4SdloOWapNAi0OZzup5IWbsvgis6YcKdpDhTvkOc0iHnKS5cNLlkslnwvQYMXMH4Zl/Al/C9fx8q1I6nwPkaXF1GOjpcF+LMdo4hDOs3R3ju+IbmboTAnM6kOumyMAIsDedSHXTC47MqHTRcsvUaf9aCOhKNDR10es6niAV8ev4+HSO6TcjA1YGiF6MZWnVlJTiUTBtGvaNOyCjjHhzs5m4zexhmHhgFzrEBpSjBxJyw5cDN8OTHGXvMTlvCLuwTrLW5iais66GhOv5h11J1Z1hv8AmddAnV16sIk/U1NtHcnV0NB06fmG8NtKJ0NDaAtjqa9dCOh30EN9esemiQ4n/9k=;" parent="1" vertex="1">
                    <mxGeometry x="250" y="170" width="1333" height="1123" as="geometry"/>
                </mxCell>
            </root>
        </mxGraphModel>
    </diagram>
</mxfile>